<?xml version="1.0" encoding="UTF-8"?>
<svg id="Layer_2" data-name="Layer 2" xmlns="http://www.w3.org/2000/svg" viewBox="0 0 1123.02 2141.69">
  <defs>
    <style>
      .cls-1 {
        fill: #dc803c;
      }

      .cls-2 {
        fill: #f4f2e5;
      }

      .cls-3 {
        fill: #b7b7dc;
      }

      .cls-4 {
        fill: #8c8dc4;
      }

      .cls-5 {
        fill: #da7bb2;
      }

      .cls-6 {
        fill: #010101;
      }

      .cls-7 {
        fill: #eeaecf;
      }

      .cls-8 {
        fill: #e1be31;
      }
    </style>
  </defs>
  <g id="Layer_6" data-name="Layer 6">
    <g id="BACKGROUND">
      <g>
        <g>
          <g>
            <path class="cls-5" d="M171.16,1928.52c21.29-38.65,42.45-77.47,65.18-114.53,18.09-29.49,35.06-60.35,52.66-90.45,9.33-15.95,20.03-30.36,27.99-47.83,15.47-33.95,33.49-65.37,48.96-99.33,10.08-22.12,18.18-45.62,25.31-69.83,5.06-17.17,10.45-34.17,14.64-51.83,4.14-17.41,8.33-34.79,12.29-52.28,2.83-12.48,5.54-25.04,7.94-37.7,4.29-22.57,7.92-45.32,10.4-68.5,2.17-20.3,3.81-40.66,5.15-61.07,2.58-39.33,3.91-78.68,1.8-118.2-1.29-24.15-3.21-48.21-5.52-72.14-2.93-30.49-5.2-61.08-7.98-91.58-2.55-27.89-4.04-55.98-6.01-83.98-1.81-25.72-1.16-51.53-1.34-77.31-.17-23.8,2.06-47.25,4.98-70.56,1.58-12.63,4.67-24.82,7.34-37.11,6.47-29.74,17.43-56.62,26.61-84.63,4.3-13.12,10.16-24.97,15.14-37.55,6.44-16.25,11.49-33.44,17.46-50,8.95-24.84,14.67-51.55,22.5-77.02,8.83-28.72,14.84-58.76,21.62-88.43,4.22-18.49,6.44-37.76,9.41-56.73,2-12.81,3.95-25.64,5.56-38.58,1.07-8.59,1.51-17.24,2.16-25.84,1.57-20.8,4.71-41.49,2.6-62.85-1.04,5.35-2.2,10.66-3.1,16.05-2.49,14.86-6.38,29.05-10.19,43.27-13.94,51.94-33.16,100.03-53.79,147.09-3.71,8.46-7.27,17.07-11.17,25.35-6.41,13.63-14.74,24.73-23.44,35.45-23.5,28.96-47.08,57.87-67.65,91.14-12.46,20.15-23.64,41.72-31.73,66.15-6.29,19-12.05,38.32-16.66,58.27-5.48,23.69-10.71,47.5-14.97,71.69-2.91,16.55-4.98,33.4-7.48,50.11-2.93,19.59-4.42,39.46-5.82,59.33-.99,14.12-1.45,28.32-2.07,42.49-2.25,52.07-1.18,104.2-1.19,156.31,0,25.01-1.29,49.94-1.77,74.92-.55,28.99-3.15,57.61-6.48,86.2-3.54,30.42-9.25,59.98-15.43,89.45-9.2,43.89-22.19,85.54-35.78,126.99-10.93,33.34-23.07,65.64-36.58,96.95-7.83,18.14-17.02,35.01-25.27,52.75-22.3,47.93-49.77,89.94-75.82,133.6-18.2,30.5-39.1,57.34-57.77,87.16-13.2,21.09-28.42,39.08-43.25,57.7-3.63,4.56-7.11,9.38-10.6,14.18v296.42h89.98c4.52-32.2,13.31-62.07,24.71-90.8,16.9-42.61,35.27-83.88,56.47-122.36Z"/>
            <path class="cls-4" d="M1123.02,1843.87c-9.81-13.2-20.08-25.64-30.26-38.25-12.73-15.77-23.54-34.2-35.3-51.32-9.32-13.58-18.96-26.74-27.9-40.8-17.97-28.28-35.84-56.71-52.82-86.21-9.48-16.47-19.61-32.21-28.12-49.75-13.83-28.53-28.27-56.49-41.05-86.02-13.55-31.31-25.04-64.14-35.94-97.45-7.69-23.5-15.15-47.13-21.69-71.3-5.49-20.3-10.15-41.02-14.25-62.02-2.77-14.16-5.66-28.27-8.02-42.57-1.99-12-3.72-24.14-4.86-36.36-.93-9.89-2.12-19.74-3.04-29.63-1.53-16.47-1.97-33.01-2.87-49.52-1.42-25.74-1.2-51.55-1.26-77.34-.09-35.54.46-71.09-.1-106.61-.48-30.48-1.74-60.95-3.62-91.36-1.17-18.88-2.91-37.63-5.21-56.26-1.6-12.91-3.56-25.74-5.69-38.53-2.21-13.29-4.46-26.52-7.17-39.63-3.53-17.1-7.15-34.14-11.15-51.04-4.83-20.4-10.52-40.27-17.41-59.39-11.3-31.36-26.49-58.87-44.26-83.27-18.1-24.85-36.26-49.66-55.82-72.29-11.19-12.94-19.81-28.96-27.32-46.32-12.27-28.38-24.41-56.85-35.33-86.34-9.89-26.7-18.79-53.96-25.94-82.4-3.48-13.85-6.84-27.7-9.23-42-.21-1.26-.58-2.47-1-4.26-1.3,4.14-1.61,7.91-1.42,11.73.93,18.88,2.45,37.68,4.21,56.44,1.05,11.19,2.12,22.38,3.47,33.5,1.22,10.08,3.14,19.98,4.76,29.95,1.94,12,3.59,24.11,5.72,36.07,2.22,12.48,5.29,24.56,7.75,36.91,2.21,11.09,5.03,21.93,7.57,32.88,2.78,11.97,6.55,23.38,9.79,35.09,3.5,12.68,7.05,25.34,10.36,38.12,4.21,16.26,10.16,31.39,15.03,47.21,7.47,24.28,17.44,46.66,26.27,69.91,9.45,24.88,18.36,50.23,25.65,76.57,5.06,18.31,9.31,37.21,11.53,56.61,3.96,34.56,5.89,69.41,4.21,104.51-.48,9.96-.78,19.97-1,29.93-.36,16.34-2.05,32.47-3.06,48.7-.92,14.89-1.71,29.85-3.52,44.64-1.07,8.79-1.73,17.74-2.25,26.59-.78,13.11-2.43,26.06-3.05,39.19-.43,9.15-1.71,18.21-2.56,27.32-1.97,21.11-3.54,42.28-5.08,63.46-2.08,28.62-1.78,57.37-.65,85.96,1.11,28.03,2.89,56.06,5.72,83.94,1.56,15.34,3.25,30.65,5.33,45.83,1.48,10.77,3.47,21.44,5.58,32.06,2.3,11.61,4.62,23.2,7.12,34.74,3.47,16.03,7.34,31.87,10.93,47.84,6.03,26.76,14.13,52.33,21.82,78.13,10.2,34.25,24.25,65.35,39.93,95,8.22,15.55,16.25,31.27,23.73,47.56,7.49,16.31,15.79,31.75,25.14,46.02,11.37,17.34,21.4,36.25,31.92,54.57,22.81,39.69,47,77.76,69.06,118.34,10.28,18.91,21.05,37.29,31.11,56.42,12.61,23.98,24.63,48.6,35.52,74.23,9.53,22.44,18.93,45.01,26.97,68.62,5.74,16.83,9.68,34.58,12.52,52.82.45,2.91,1.23,5.74,1.73,8.64h88.79v-297.82Z"/>
            <path class="cls-2" d="M729.56,2067.04c-1.63-11.05-3.55-22.01-5.09-33.08-2.01-14.43-4.82-28.58-7.57-42.73-3.1-15.91-6.34-31.77-10.06-47.44-4.9-20.61-10.17-41.01-15.72-61.28-7.15-26.17-15.45-51.57-25.14-76.02-6.05-15.28-13.05-29.79-18.47-45.61-6.79-19.82-12.8-40.03-17.42-61.11-5.33-24.33-9.72-48.96-13.5-73.86-4.17-27.5-7.44-55.23-10.2-83.05-2.5-25.24-4.18-50.65-6.01-76.02-1.66-23.01-2.97-46.07-4.54-69.09-1.83-26.8-1.3-53.6-.09-80.4.34-7.61.86-15.21.97-22.83.27-17.94,2.4-35.56,4.04-53.28,1.45-15.64,3.19-31.22,5.41-46.65,2.01-13.91,3.6-27.9,5.42-41.85,1.19-9.04,2.12-18.16,3.1-27.25,1.85-17.14,4.04-34.19,6.09-51.28,2.15-17.88,4.79-35.61,7.72-53.23,2-12.02,3.52-24.16,5.54-36.16,1.12-6.65,1.61-13.47,2.51-20.19,3.02-22.72,5.81-45.53,6.78-68.65.66-15.75.28-31.46-1-47.23-1.55-19.13-4.24-37.88-7.63-56.43-2.82-15.47-6.59-30.55-10.43-45.61-7.47-29.33-16.11-58-24.25-86.94-8.43-29.94-18.05-59.08-30.51-86.18-3.27-7.1-5.05-15.15-7.49-24.05-.11,0-.23.01-.34.05-3.46,16.65-10.04,29.7-15.73,43.47-8.88,21.51-15.76,44.43-22.47,67.41-6.57,22.5-12.83,45.19-19.13,67.85-7.54,27.1-14.02,54.7-18.64,83.11-5.26,32.31-6.43,65.11-4.47,98.02.99,16.72,3.04,33.34,5.42,49.83,1.93,13.37,3.47,26.86,5.37,40.24,1.69,11.83,3.6,23.59,5.49,35.36,2.18,13.57,4.11,27.21,5.72,40.94.91,7.78,1.71,15.58,2.75,23.32,2.46,18.33,4.35,36.78,6.38,55.21,1.52,13.75,3.7,27.34,5.41,41.05,1.94,15.52,3.9,31.05,5.42,46.66,1.06,10.92,2.33,21.8,2.87,32.85.47,9.68,1.44,19.32,1.67,29.06.47,19.71,1.39,39.42,1.4,59.13.01,21.56-1.54,43.03-2.98,64.51-.9,13.34-1.88,26.67-2.78,40.01-.94,13.87-1.84,27.75-3.06,41.57-1.89,21.38-3.74,42.78-6.15,64.05-1.7,15.02-3.56,30.03-5.82,44.94-1.6,10.52-3.23,21.02-4.89,31.52-2.18,13.84-4.86,27.49-7.63,41.09-4.95,24.19-11.62,47.47-19.44,70.1-5.45,15.79-12.3,30.43-18.47,45.63-10.25,25.24-18.65,51.7-26.04,78.81-5.26,19.3-10.33,38.72-14.96,58.33-3.69,15.64-7.02,31.47-9.88,47.49-2.63,14.75-5.69,29.35-8.06,44.18-2.78,17.4-5.5,34.84-7.53,52.48-1.82,15.81-3.78,31.6-5.77,47.37-.28,2.18-.52,4.36-.67,6.55h353.69c-1.43-9.29-1.91-18.81-3.1-28.16-1.96-15.51-3.77-31.06-6.05-46.48Z"/>
            <path class="cls-8" d="M561.68,549.59h0c.11-.03.23-.05.34-.05-.11,0-.23.01-.34.05Z"/>
            <path class="cls-4" d="M34.68,1790.69c11.63-16.94,22.87-34.43,34.68-51.12,28.92-40.86,54.85-85.44,81.23-129.49,14.78-24.68,27.28-51.6,40.48-77.88,16.35-32.57,31.09-66.52,43.41-102.36,10.75-31.26,21.48-62.58,30.46-95.05,6.14-22.22,11.94-44.58,16.72-67.42,4.21-20.1,8.43-40.28,11.13-60.91,3.2-24.52,6.08-49.1,7.59-74.04,3.44-56.74,3.02-113.56,2.78-170.38-.14-33.44.61-66.87,1.83-100.23.68-18.58,1.72-37.23,3.45-55.78,1.48-15.9,3.07-31.75,5.23-47.46,2.27-16.48,4.99-32.84,7.81-49.15,4.01-23.17,9.03-45.95,14.46-68.51,9.53-39.62,21.62-77.35,40.32-110.45,12.93-22.88,27.58-43.2,42.71-63.01,12.66-16.58,25.19-33.35,38.53-48.86,8.39-9.76,15.25-21.48,20.93-34.5,13.8-31.66,27.52-63.39,39.61-96.46,9.95-27.22,18.73-55.11,25.92-84.07,4.19-16.89,7.9-33.95,10.11-51.49,2.19-17.33,3.29-34.94,2.83-52.62-.23-8.92.64-17.91-.83-26.75-.27-1.62-.11-3.57.76-4.41,2.87-2.77,2.25-6.82,2.26-10.64.05-18.95.06-37.91.1-56.87,0-.25,0-.51,0-.76h-38.68c-.15.87-.3,1.74-.46,2.62-2.16,12.49-4.11,25.03-5.75,37.69-1.67,12.9-3.85,25.66-5.61,38.54-1.91,13.94-4.49,27.61-7.61,41.08-3.98,17.19-7.91,34.41-12.19,51.45-3.78,15.04-7.56,30.07-11.94,44.82-5.9,19.87-12.87,38.91-20.66,57.35-9.99,23.65-20.7,46.61-32.99,68.06-10.48,18.28-22.83,33.69-35.96,47.95-13.7,14.88-26.65,31.02-39.24,47.71-17.27,22.9-36.08,42.91-56.07,60.7-21.32,18.97-40.67,41.29-57.97,67.15-9.71,14.51-18.05,30.6-26.36,46.71-9.06,17.58-18.67,34.61-26.85,53.08-8,18.06-13.97,37.44-19.13,57.39-3.95,15.27-7.54,30.72-10.52,46.39-2.16,11.36-3.8,22.98-5.61,34.49-2.64,16.71-4.05,33.65-5.78,50.51-2.65,25.8-3.4,51.82-2.86,77.92.47,22.63,2.19,45.07,4.11,67.53,2.12,24.79,4.76,49.47,6.89,74.25.07.78.13,1.57.13,2.36.08,18.15,1.8,36.23,1.29,54.4-.66,23.37-.75,46.85-3.66,69.93-2.34,18.58-4.98,37.11-8.21,55.47-3.41,19.36-7.08,38.6-12.35,57.1-6.49,22.83-13.71,45.23-21.59,67.17-9.98,27.8-20.49,55.15-33.21,80.74-16.9,34-35.21,66.28-56.48,95.02-4.48,6.06-9.15,11.83-13.83,17.6v261.68c2.7-3.53,5.38-7.07,8.09-10.58,8.76-11.35,18.3-21.49,26.59-33.57Z"/>
            <path class="cls-1" d="M389.36,2062.95c2.25-16.5,4.88-32.89,7.87-49.16,2.52-13.71,4.94-27.48,7.8-41.05,3.61-17.09,7.35-34.13,11.55-50.94,4.5-18.05,9.14-36.04,14.39-53.7,8.48-28.56,18.02-56.31,29.57-82.71,13.04-29.79,22.7-61.75,29.73-95.41,4.74-22.68,9.01-45.53,12.27-68.68,3.98-28.34,7.45-56.81,10.02-85.53,2.08-23.21,3.74-46.49,5.62-69.73,1.25-15.39,2.56-30.81,3.13-46.34.49-13.12,1.96-26.14,2.17-39.32.44-27.12.07-54.21-1.34-81.26-1.09-20.97-2.75-41.83-4.96-62.66-2.54-23.93-6.05-47.57-9.03-71.37-1.94-15.52-3.16-31.22-5.11-46.74-2.67-21.21-5.06-42.48-8.06-63.61-4.02-28.33-9.34-56.26-12.39-84.88-1.66-15.58-4.36-30.96-5.65-46.59-1.88-22.74-2.7-45.61-1.24-68.53,2.33-36.62,8.93-71.76,17.66-106.27,8.62-34.08,18.46-67.49,28.13-100.97,7.64-26.42,16.48-52.1,27.51-76.22,6.99-15.29,10.46-32.52,9.93-50.89-1.67-57.9.32-115.8-.15-173.7-.22-27.11.12-54.23.2-81.34,0-2.5,0-4.99,0-7.83-1.67,1.15-1.82,2.75-1.92,4.27-.83,12.89-3.85,25.13-5.52,37.78-1.49,11.34-3.7,22.5-5.37,33.8-1.89,12.88-5,25.26-7.83,37.73-3.35,14.73-6.23,29.7-10.38,44.05-12.12,41.97-22.95,84.67-37.44,125.27-6.78,19-14.76,36.97-21.65,55.81-8.94,24.43-17.98,48.86-24.96,74.56-5.72,21.06-10.12,42.7-12.66,65.17-3.63,32.14-4.25,64.43-3.53,96.78.47,20.99,1.88,41.95,3.31,62.89,1.65,24.08,3.37,48.16,5.48,72.15,1.95,22.17,3.51,44.41,5.79,66.53,2.25,21.84,3.35,43.92,5.33,65.83,2.85,31.48,2.36,63.05,1.48,94.6-.51,18.37-1.97,36.7-3.2,55.03-.82,12.3-1.8,24.59-3.03,36.81-1.6,15.86-3.48,31.65-5.95,47.32-3.28,20.77-7.22,41.27-11.73,61.56-7.29,32.77-14.55,65.53-24.21,97.16-6.32,20.69-12.13,41.68-19.69,61.56-10.13,26.63-22.38,51.31-35.25,75.38-9.18,17.18-17.16,35.53-25.98,53.07-4.09,8.14-8.48,15.95-13.23,23.31-12.01,18.61-22.87,38.56-34.2,57.96-19.36,33.15-39.42,65.51-58.35,99.13-26.55,47.16-53.62,93.85-75.88,145.51-11.47,26.62-22.76,53.44-31.98,81.81-4.34,13.36-7.2,27.58-9.48,41.92-.5,3.16-1.39,6.23-1.92,9.4h284.8c.98-12.37,2.47-24.63,4.05-36.88,1.8-13.96,3.58-27.92,5.47-41.85Z"/>
            <path class="cls-8" d="M1005.48,2057.15c-17.11-44.1-36.22-86.37-58.06-126.02-22.04-40.02-44.12-80-67.58-118.44-18.85-30.89-36.46-63.3-55.27-94.24-12.33-20.28-23.9-41.18-34.16-63.63-8.53-18.67-18.56-35.84-27.53-54.08-14.83-30.16-26.94-62.35-36.7-96.47-6.66-23.3-13.53-46.48-18.98-70.4-5.63-24.68-11.53-49.26-16.05-74.4-4.17-23.15-7.58-46.52-9.87-70.26-2.82-29.2-4.99-58.45-6.15-87.86-1.09-27.59-1.34-55.19-.15-82.81.69-16.03,2.26-31.91,3.5-47.85,1.06-13.59,2.25-27.15,3.44-40.71.89-10.17,1.91-20.31,2.68-30.52,1.63-21.69,3.89-43.28,5.64-64.96,1.18-14.62,1.66-29.37,2.95-43.97,2.21-25.13,2.49-50.36,2.66-75.62.18-26.59-.09-53.17-3.15-79.48-1.75-15.03-4.66-29.66-7.83-44.25-7.7-35.5-19.49-68.47-32.32-100.45-12.62-31.44-23.78-63.78-34.52-96.47-4.59-13.97-7.99-28.72-11.98-43.08-3.11-11.19-6.2-22.4-9.49-33.49-4.24-14.29-7.06-29.26-10.46-43.94-2.82-12.19-5.89-24.3-7.85-36.87-1.92-12.29-3.79-24.61-5.89-36.84-2.49-14.45-4.08-29.21-6.73-41.84,0,59.67.02,120.89,0,182.12,0,23.16-.08,46.32-.18,69.49-.03,7.6-.75,15.12-.1,22.82,1.27,14.89,4.66,28.65,10.41,41.04,12.46,26.84,21.34,56.13,30,85.58,6.67,22.71,13.23,45.49,19.37,68.5,6.6,24.75,12.54,49.78,17.01,75.57,5.68,32.79,7.39,65.87,6.16,99.39-.49,13.4-2.03,26.62-3.71,39.82-1.83,14.48-3.38,29.03-5.31,43.48-1.62,12.12-3.55,24.16-5.42,36.2-1.95,12.55-4.17,25.01-5.72,37.69-1.83,15.01-3.95,29.94-5.77,44.95-1.85,15.27-3.53,30.59-5.2,45.9-1.68,15.32-3.54,30.58-5.81,45.75-1.04,6.93-2.13,13.87-2.85,20.88-2.5,24.45-5.27,48.86-6.6,73.5-.96,17.83-1.08,35.74-1.74,53.6-1.05,28.47,1.44,56.64,3.04,84.92,1.42,25.16,3.56,50.21,5.36,75.31,1.45,20.1,3.29,40.18,5.6,60.17,1.71,14.77,3.64,29.49,5.4,44.25,1.45,12.15,3.64,24.12,5.59,36.14,2.15,13.29,4.76,26.41,7.32,39.55,3.85,19.74,9.1,38.7,14.71,57.53,7.15,23.97,17.66,45.27,26.39,67.99,10.25,26.68,18.91,54.39,26.23,82.94,4.04,15.74,8.09,31.47,11.96,47.3,3.09,12.63,5.64,25.49,8.21,38.36,2.62,13.12,5.25,26.23,7.42,39.51,2.01,12.27,4.05,24.53,5.89,36.84,2.04,13.61,3.81,27.3,5.81,40.92.94,6.44,1.57,12.98,2.16,19.45.79,8.71,2.46,17.26,2.97,26.02h284.01c-.85-4.25-1.23-8.69-1.94-12.93-4.24-25.51-11.99-48.8-20.84-71.61Z"/>
            <path class="cls-2" d="M87.17,1407.61c12.57-32.27,23.88-65.47,33.53-99.72,4.18-14.84,7.17-30.27,10.07-45.74,3.14-16.77,5.76-33.7,8.03-50.7,3.08-23,4.72-46.26,5.04-69.74.38-27.67-.32-55.23-2.54-82.7-.91-11.22-2.26-22.37-3.44-33.55-.93-8.84-1.73-17.73-2.45-26.59-2.77-33.98-4.92-68.06-3.78-102.31.69-20.48,2.64-40.81,4.63-61.13,1.45-14.85,3.31-29.58,5.52-44.21,1.94-12.81,4.15-25.6,6.96-38.08,3.76-16.7,7.67-33.34,12.36-49.62,6.82-23.65,15.65-45.55,26.45-65.99,11.6-21.97,22.44-44.8,35.06-65.63,15.97-26.37,33.84-50.15,54.59-68.88,29.27-26.43,56.79-55.89,81.85-89.94,8.28-11.24,17.24-21.45,26.46-31.08,21.43-22.38,38.16-50.71,52.66-81.93,11.27-24.26,21.85-49.08,30.37-75.58,5.52-17.17,10.15-34.82,14.53-52.61,3.53-14.33,7.1-28.64,10.39-43.07,3.93-17.21,7.71-34.46,10.05-52.32,2.4-18.32,5.34-36.49,8.04-54.73,1.02-6.93,2.08-13.86,3.01-20.82.04-.32.11-.63.16-.94h-47.43c-2.68,8.45-5.91,16.54-8.84,24.81-9.03,25.49-18.44,50.73-31.22,72.99-7.92,13.8-16.26,27.11-24.39,40.67-10.4,17.35-20.79,34.73-31.16,52.12-13.32,22.33-28.13,42.49-44.39,60.49-24.21,26.81-47.21,55.58-69.73,85.17-14.13,18.56-29.53,34.95-45.12,50.87-22.99,23.48-42.55,51.93-61.61,81.35-28.22,43.55-50.54,92.6-68.9,145.38-7.84,22.53-13.73,46.24-18.93,70.32-3.79,17.57-7.18,35.28-10.16,53.1-3.2,19.14-5.98,38.45-7.59,58.05-.71,8.6-1.6,17.18-2.32,25.79-1.45,17.42-.22,34.67.5,51.98.35,8.41,1.55,16.7,2.54,24.96,2.51,20.96,4.72,42.01,7.96,62.8,3.27,21.01,6.22,42.13,9.02,63.28,4.64,35.05,6.2,70.44,4.53,106.02-.7,14.96-3.13,29.63-7.02,43.6-5.55,19.97-10.83,40.08-16.7,59.87-8.97,30.25-19.98,58.9-32.65,86.3-3.63,7.84-7.29,15.64-11.12,23.27v220.21c5.66-6.9,11.03-14.27,16.26-21.82,27.82-40.2,51.7-84.68,70.91-133.98Z"/>
            <path class="cls-8" d="M40.34,1225.93c6.34-22.07,12.77-44.15,17.89-66.87,3.41-15.14,4.01-30.98,4.43-46.75.71-26.92-1.06-53.64-4.22-80.12-2.2-18.37-5.3-36.52-7.87-54.81-1.84-13.14-3.51-26.33-5.17-39.52-2.05-16.3-4.37-32.55-5.91-48.95-2.31-24.51-3.96-49.07-1.64-73.9,1.68-17.99,3.53-35.94,5.79-53.77,1.8-14.19,4.21-28.26,6.8-42.21,3.05-16.48,6.38-32.86,10.09-49.1,6.57-28.77,14.94-56.37,25.18-82.89,12.43-32.2,25.56-63.77,42.27-92.02,19.36-32.72,38.87-65.23,62.14-92.72,10.8-12.76,22.17-24.48,33.43-36.39,15.74-16.65,30.62-34.75,44.86-53.87,15.47-20.77,31.64-40.4,48.53-58.75,24.68-26.82,45.97-58.3,65.58-92.29,9.13-15.82,18.36-31.56,28.04-46.7,16.91-26.45,30.22-56.15,41.29-88.02,3.05-8.78,6.15-17.52,9.24-26.27h-71.97c-4.49,12.82-9.91,24.87-15.95,36.35-7.95,15.1-16.22,29.88-24.22,44.93-8.97,16.86-20.38,30.25-31.03,44.77-23,31.36-50.23,53.39-78.82,72.42-18.58,12.37-36.84,25.74-55.85,36.77-14.45,8.38-28.22,18.5-41.12,30.95-10.55,10.18-21.01,20.54-31.55,30.73-31.09,30.02-55.77,68.72-75.38,113.77-12.21,28.05-22.25,57.88-32.04,87.79-1.08,3.29-2.12,6.59-3.16,9.9v821.39c.22-.47.45-.95.67-1.42,15.71-32.21,29.25-66.18,39.67-102.44Z"/>
            <path class="cls-1" d="M107.7,290.56c12.83-12.48,25.65-25.01,38.61-37.22,13.02-12.26,27.52-20.44,41.72-29.43,26.9-17.03,53.55-34.83,79.48-54.69,18.71-14.33,34.68-33.79,50.62-53.51,16.24-20.08,29.03-44.06,42.04-67.99,8.32-15.32,16.46-30.74,22.94-47.72H0v489.93c8.98-27.49,18.68-54.47,29.63-80.5,19.96-47.47,45.79-87.48,78.06-118.87Z"/>
            <path class="cls-5" d="M564.94,59.36c.02,2.48-.74,5.43,1.25,7.22,2.16,1.95,1.99,4.88,1.64,7.74-.58,4.69-.69,9.4-.73,14.15-.08,8.14.2,16.27.29,24.39.17,15.58,1.18,31.02,3.39,46.21,3.03,20.84,7.95,40.95,13.28,60.83,9.93,37.08,23.21,71.86,36.8,106.42,6.85,17.42,14.69,33.97,21.83,51.13,5.94,14.29,12.68,27.86,21.72,38.56,15.66,18.54,30.49,38.34,45.48,57.91,13.37,17.45,26.27,35.47,37.33,56.01,8.99,16.7,17.66,33.63,24.01,52.75,9.16,27.58,16.55,56.02,22.83,85.18,5.64,26.13,10.72,52.43,14.6,79.14,3.32,22.88,6.04,45.92,7.64,69.27,1.87,27.24,3.18,54.5,3.82,81.82,1.32,56.55-.73,113.15,1.01,169.71,1.03,33.35,1.55,66.71,5.41,99.78,2.55,21.77,5.02,43.52,9.06,64.87,5.23,27.62,10.86,55.02,17.79,81.92,10.99,42.69,24.84,83.57,39.06,124.14,17.5,49.91,40.11,95.51,63.42,140.19,22.12,42.4,47.29,81.4,71.81,121.06,10.62,17.18,22.91,32.11,33.43,49.32,18.88,30.88,40.7,57.37,61.92,84.75v-261.76c-12.7-15.41-24.49-32.17-35.54-50.03-17.5-28.28-33.3-58.35-47.11-90.45-11.36-26.41-21.1-54.07-30.23-82.16-6.26-19.28-12.42-38.63-16.87-58.98-4-18.32-7.24-36.89-10.18-55.6-2.22-14.12-3.79-28.39-5.68-42.58-1.21-9.09-1.07-18.33-1.68-27.49-1.4-20.99-1.83-42.05-.91-63.08,1.04-23.61,2.78-47.12,5.17-70.57,2.41-23.66,4.85-47.34,5.79-71.28.62-15.75,1.75-31.44,1.72-47.25-.03-19.53-1.87-38.82-3.42-58.14-1.28-15.93-2.95-31.77-5.17-47.51-2.8-19.82-6.09-39.43-10.5-58.69-3.37-14.72-6.85-29.37-11.02-43.67-6.53-22.4-15.04-43.18-25.32-62.56-10.78-20.34-20.93-41.37-32.37-60.97-17.23-29.54-37.22-54.91-59.97-75.73-22.14-20.26-43.81-41.35-63.11-66.95-11.9-15.79-24.1-31.11-36.9-45.42-9.17-10.25-18.38-20.39-26.72-32.05-13.94-19.49-24.88-42.23-35.6-65.21-11.75-25.21-22.05-51.55-30.47-79.32-4.46-14.7-8.19-29.82-11.83-44.96-4.18-17.38-8.38-34.76-12.43-52.21-3.35-14.47-5.78-29.28-8.02-44.18-2.82-18.76-4.94-37.71-8.23-56.33-1.09-6.19-2-12.45-2.92-18.71h-38.8c0,.57,0,1.14,0,1.71.06,19.21.1,38.43.22,57.64Z"/>
            <path class="cls-8" d="M717.48,121.32c12.59,19.89,24.38,40.8,36.6,61.17,15.42,25.68,32.68,48.66,51.46,69.33,18.73,20.62,36.74,42.41,53.95,65.53,17.36,23.33,36.16,44.15,55.46,64.09,20.77,21.46,39.33,46.2,56.43,73.32,17.62,27.96,34.95,56.23,48.79,88.33,12.53,29.05,24.51,58.54,33.68,90.09,5.7,19.63,10.37,39.79,14.54,60.2,3.86,18.91,7.3,37.98,10.19,57.2,2.27,15.13,3.96,30.46,5.58,45.79,1.82,17.24,2.87,34.46,2.65,51.83-.25,19.22-2.09,38.22-4.41,57.15-1.71,13.97-3.17,28-5.19,41.9-1.87,12.86-3.35,25.83-5.28,38.66-3.86,25.7-7.81,51.4-9.48,77.59-1.83,28.6-2.46,57.27,1.38,85.68,1.32,9.76,3.75,19.18,6.39,28.44,5.8,20.39,11.07,41.07,17.3,61.24,9.59,31.07,21.62,60.14,35.01,88.13.16.34.32.69.49,1.04V505.7c-.43-1.35-.87-2.7-1.32-4.03-12.2-36.13-23.89-72.7-39.9-105.86-19.39-40.18-42.83-74.92-71.66-101.99-10.95-10.29-21.69-21.04-32.59-31.43-14.06-13.4-29.7-22.31-45.03-32.23-30.12-19.5-60.41-38.57-88.89-62.75-15.02-12.75-27.82-29.46-41.07-45.46-17.52-21.16-30.99-47.05-44.84-72.64-8.5-15.71-16.74-31.6-23.09-49.31h-72.17c3.83,10.55,7.67,21.08,11.39,31.7,11.51,32.85,26.35,62.33,43.62,89.62Z"/>
            <path class="cls-4" d="M791.2,95.82c18.46,26.07,37.64,51.14,60.51,69.69,16.55,13.44,33.92,24.59,50.95,36.68,20.36,14.44,41.69,25.86,61.95,40.56,11.56,8.39,22.12,19.07,32.76,29.5,13.53,13.26,27.54,25.64,39.92,41.12,26.13,32.67,48.07,70.13,64.27,114.03,7.33,19.87,14.69,39.72,21.46,59.98V0h-382.26c3.21,8.17,6.26,16.48,10.31,23.88,13.22,24.16,24.8,50.29,40.13,71.94Z"/>
            <path class="cls-1" d="M631.84,134.58c5.84,23.22,10.98,46.79,17.37,69.73,8.31,29.86,19.14,57.86,31.47,84.74,9.59,20.92,19.49,41.52,31.54,59.86,6.34,9.64,13.17,18.52,20.48,26.62,15.94,17.64,31.52,35.87,46.2,55.59,19.05,25.59,40.49,46.7,62.46,66.81,28.32,25.92,52.52,58.05,72.45,96.54,10.85,20.95,22.34,41.25,32.3,63.1,9.18,20.14,16.02,41.88,21.65,64.46,3.64,14.61,7.14,29.28,9.96,44.24,3.21,16.99,6.08,34.11,7.9,51.55.82,7.8,1.59,15.62,2.51,23.38,4.34,36.8,5.25,73.82,3.5,110.92-.73,15.44-1.84,30.89-3.27,46.29-3.71,40.13-8.6,80.16-8.5,120.79.06,23.38.51,46.76,2.76,70.05,2.71,27.92,7.12,55.3,12.14,82.49,4.27,23.14,10.61,45.3,17.65,67.02,9.28,28.6,19.05,56.86,30.4,83.96,14.59,34.86,31.67,67.14,50.6,97.53,9.26,14.86,19.17,28.72,29.59,41.85v-220.34c-1.96-4.06-3.85-8.19-5.81-12.24-14.56-30.16-27.29-61.84-37.15-95.61-7.28-24.94-14.6-49.91-20.2-75.75-2.8-12.93-3.2-26.36-3.73-39.76-.78-19.49-.25-38.98,1.12-58.33,1.15-16.17,3.05-32.26,5.48-48.22,2.81-18.48,5.23-37.09,7.76-55.66,1.87-13.67,3.83-27.32,5.43-41.05,3.42-29.33,7-58.68,5.42-88.6-.56-10.73-1.45-21.47-2.66-32.09-1.69-14.78-3.31-29.57-5.7-44.18-3.39-20.7-6.96-41.31-11.23-61.7-4.59-21.92-9.66-43.61-16.49-64.28-18.23-55.12-40.55-106.52-69.78-151.58-14.05-21.65-27.67-43.83-43.66-62.77-11.39-13.49-23.39-25.82-35.24-38.46-16.01-17.07-31.14-35.62-45.69-55.14-16.03-21.51-33-41.5-50.45-60.63-22.56-24.74-42.2-53.56-60.22-84.71-10.22-17.66-20.59-35.14-31.37-52.11-17.37-27.33-30.94-58.18-42.42-91-3.26-9.33-6.56-18.64-9.95-27.88h-47.57c3.27,18.86,5.88,37.92,8.48,57,3.58,26.3,8.08,52.26,14.45,77.58Z"/>
          </g>
          <g>
            <path class="cls-6" d="M578.28,336.87c1.97,12.57,5.03,24.68,7.85,36.87,3.4,14.68,6.22,29.64,10.46,43.94,3.29,11.09,6.38,22.3,9.49,33.49,3.99,14.37,7.39,29.12,11.98,43.08,10.74,32.69,21.91,65.03,34.52,96.47,12.83,31.98,24.62,64.95,32.32,100.45,3.16,14.59,6.08,29.23,7.83,44.25,3.06,26.31,3.33,52.89,3.15,79.48-.17,25.26-.45,50.49-2.66,75.62-1.28,14.6-1.77,29.35-2.95,43.97-1.75,21.67-4.01,43.27-5.64,64.96-.77,10.2-1.79,20.34-2.68,30.52-1.19,13.56-2.39,27.13-3.44,40.71-1.24,15.94-2.8,31.82-3.5,47.85-1.2,27.62-.95,55.22.15,82.81,1.17,29.41,3.34,58.66,6.15,87.86,2.29,23.74,5.7,47.11,9.87,70.26,4.52,25.14,10.42,49.73,16.05,74.4,5.46,23.92,12.32,47.1,18.98,70.4,9.75,34.12,21.87,66.31,36.7,96.47,8.96,18.24,19,35.41,27.53,54.08,10.26,22.45,21.84,43.35,34.16,63.63,18.81,30.94,36.42,63.35,55.27,94.24,23.46,38.44,45.54,78.42,67.58,118.44,21.83,39.65,40.95,81.92,58.06,126.02,8.85,22.8,16.6,46.09,20.84,71.61.71,4.25,1.09,8.68,1.94,12.93h5.97c-.5-2.9-1.28-5.72-1.73-8.64-2.84-18.24-6.79-35.99-12.52-52.82-8.04-23.61-17.44-46.18-26.97-68.62-10.89-25.64-22.91-50.25-35.52-74.23-10.06-19.13-20.83-37.51-31.11-56.42-22.06-40.57-46.25-78.64-69.06-118.34-10.52-18.32-20.55-37.23-31.92-54.57-9.35-14.27-17.64-29.71-25.14-46.02-7.48-16.28-15.51-32.01-23.73-47.56-15.68-29.65-29.73-60.75-39.93-95-7.68-25.81-15.79-51.37-21.82-78.13-3.6-15.97-7.46-31.81-10.93-47.84-2.5-11.54-4.81-23.13-7.12-34.74-2.11-10.62-4.1-21.29-5.58-32.06-2.08-15.18-3.77-30.49-5.33-45.83-2.83-27.88-4.61-55.91-5.72-83.94-1.13-28.58-1.43-57.34.65-85.96,1.54-21.17,3.1-42.34,5.08-63.46.85-9.11,2.13-18.17,2.56-27.32.62-13.13,2.27-26.08,3.05-39.19.53-8.85,1.18-17.8,2.25-26.59,1.81-14.79,2.59-29.75,3.52-44.64,1.01-16.22,2.7-32.36,3.06-48.7.22-9.96.52-19.97,1-29.93,1.68-35.09-.25-69.94-4.21-104.51-2.22-19.4-6.46-38.3-11.53-56.61-7.28-26.34-16.19-51.69-25.65-76.57-8.83-23.25-18.81-45.63-26.27-69.91-4.87-15.83-10.82-30.95-15.03-47.21-3.31-12.78-6.86-25.44-10.36-38.12-3.23-11.71-7-23.12-9.79-35.09-2.55-10.95-5.36-21.79-7.57-32.88-2.46-12.35-5.53-24.43-7.75-36.91-2.13-11.96-3.78-24.06-5.72-36.07-1.61-9.97-3.53-19.87-4.76-29.95-1.35-11.12-2.42-22.31-3.47-33.5-1.76-18.76-3.29-37.55-4.21-56.44-.19-3.82.12-7.6,1.42-11.73.43,1.79.79,3,1,4.26,2.4,14.3,5.75,28.15,9.23,42,7.15,28.44,16.05,55.7,25.94,82.4,10.93,29.49,23.06,57.96,35.33,86.34,7.51,17.37,16.13,33.38,27.32,46.32,19.56,22.63,37.72,47.44,55.82,72.29,17.77,24.39,32.97,51.9,44.26,83.27,6.89,19.11,12.58,38.99,17.41,59.39,4,16.9,7.62,33.94,11.15,51.04,2.71,13.11,4.96,26.35,7.17,39.63,2.12,12.78,4.09,25.62,5.69,38.53,2.3,18.63,4.05,37.37,5.21,56.26,1.88,30.41,3.14,60.88,3.62,91.36.56,35.52.01,71.07.1,106.61.06,25.79-.16,51.61,1.26,77.34.91,16.5,1.35,33.04,2.87,49.52.92,9.89,2.11,19.74,3.04,29.63,1.14,12.21,2.88,24.35,4.86,36.36,2.37,14.29,5.26,28.41,8.02,42.57,4.1,20.99,8.76,41.71,14.25,62.02,6.54,24.17,14,47.8,21.69,71.3,10.89,33.3,22.39,66.13,35.94,97.45,12.78,29.53,27.22,57.49,41.05,86.02,8.51,17.54,18.64,33.28,28.12,49.75,16.98,29.5,34.85,57.93,52.82,86.21,8.94,14.06,18.58,27.22,27.9,40.8,11.75,17.12,22.57,35.56,35.3,51.32,10.18,12.61,20.45,25.05,30.26,38.25v-10.02c-21.22-27.38-43.03-53.86-61.92-84.75-10.52-17.21-22.81-32.15-33.43-49.32-24.52-39.67-49.68-78.66-71.81-121.06-23.31-44.68-45.92-90.27-63.42-140.19-14.23-40.57-28.07-81.45-39.06-124.14-6.93-26.91-12.56-54.3-17.79-81.92-4.04-21.36-6.52-43.1-9.06-64.87-3.87-33.07-4.38-66.44-5.41-99.78-1.74-56.56.31-113.16-1.01-169.71-.64-27.32-1.95-54.58-3.82-81.82-1.6-23.35-4.32-46.39-7.64-69.27-3.88-26.71-8.96-53.01-14.6-79.14-6.29-29.16-13.68-57.61-22.83-85.18-6.35-19.12-15.02-36.05-24.01-52.75-11.06-20.54-23.95-38.55-37.33-56.01-15-19.57-29.83-39.37-45.48-57.91-9.04-10.7-15.77-24.27-21.72-38.56-7.14-17.16-14.98-33.72-21.83-51.13-13.59-34.56-26.86-69.34-36.8-106.42-5.32-19.88-10.24-39.99-13.28-60.83-2.21-15.19-3.22-30.63-3.39-46.21-.09-8.13-.37-16.25-.29-24.39.05-4.74.16-9.45.73-14.15.35-2.87.52-5.8-1.64-7.74-1.99-1.79-1.23-4.74-1.25-7.22-.12-19.21-.16-38.43-.23-57.64,0-.57,0-1.14,0-1.71h-5.55c0,.25,0,.51,0,.76-.05,18.96-.05,37.91-.1,56.87-.01,3.82.61,7.87-2.26,10.64-.87.84-1.03,2.79-.76,4.41,1.47,8.84.59,17.83.83,26.75.46,17.68-.64,35.3-2.83,52.62-2.22,17.54-5.92,34.6-10.11,51.49-7.19,28.96-15.97,56.84-25.92,84.07-12.09,33.08-25.81,64.8-39.61,96.46-5.68,13.03-12.54,24.75-20.93,34.5-13.34,15.51-25.87,32.29-38.53,48.86-15.13,19.81-29.78,40.13-42.71,63.01-18.7,33.1-30.79,70.83-40.32,110.45-5.43,22.56-10.45,45.34-14.46,68.51-2.82,16.31-5.54,32.68-7.81,49.15-2.16,15.71-3.75,31.57-5.23,47.46-1.72,18.55-2.77,37.2-3.45,55.78-1.22,33.36-1.97,66.78-1.83,100.23.24,56.83.67,113.65-2.78,170.38-1.51,24.94-4.39,49.52-7.59,74.04-2.7,20.63-6.92,40.81-11.13,60.91-4.78,22.84-10.57,45.19-16.72,67.42-8.98,32.47-19.71,63.79-30.46,95.05-12.32,35.84-27.05,69.79-43.41,102.36-13.2,26.28-25.7,53.2-40.48,77.88-26.38,44.05-52.31,88.62-81.23,129.49-11.81,16.69-23.05,34.17-34.68,51.12-8.29,12.08-17.83,22.22-26.59,33.58-2.71,3.51-5.39,7.05-8.09,10.58v10.42c3.49-4.8,6.97-9.61,10.6-14.18,14.83-18.62,30.05-36.61,43.25-57.7,18.67-29.82,39.57-56.66,57.77-87.16,26.05-43.66,53.52-85.67,75.82-133.6,8.25-17.74,17.44-34.6,25.27-52.75,13.51-31.31,25.65-63.61,36.58-96.95,13.59-41.44,26.58-83.1,35.78-126.99,6.18-29.47,11.89-59.04,15.43-89.45,3.33-28.59,5.93-57.21,6.48-86.2.48-24.98,1.76-49.91,1.77-74.92.01-52.11-1.06-104.24,1.19-156.31.61-14.17,1.07-28.37,2.07-42.49,1.4-19.87,2.89-39.75,5.82-59.33,2.5-16.7,4.57-33.55,7.48-50.11,4.26-24.18,9.49-48,14.97-71.69,4.61-19.95,10.37-39.27,16.66-58.27,8.09-24.43,19.27-46,31.73-66.15,20.57-33.27,44.15-62.18,67.65-91.14,8.7-10.72,17.03-21.82,23.44-35.45,3.9-8.28,7.46-16.89,11.17-25.35,20.62-47.06,39.85-95.15,53.79-147.09,3.81-14.22,7.71-28.41,10.19-43.27.9-5.39,2.06-10.7,3.1-16.05,2.11,21.36-1.02,42.05-2.6,62.85-.65,8.6-1.09,17.24-2.16,25.84-1.61,12.95-3.55,25.77-5.56,38.58-2.97,18.97-5.19,38.23-9.41,56.73-6.78,29.68-12.79,59.72-21.62,88.43-7.83,25.47-13.55,52.17-22.5,77.02-5.97,16.56-11.02,33.75-17.46,50-4.98,12.57-10.85,24.43-15.14,37.55-9.18,28.02-20.14,54.89-26.61,84.63-2.67,12.29-5.76,24.48-7.34,37.11-2.92,23.3-5.15,46.76-4.98,70.56.19,25.78-.46,51.58,1.34,77.31,1.97,28,3.46,56.08,6.01,83.98,2.78,30.51,5.05,61.1,7.98,91.58,2.3,23.94,4.23,48,5.52,72.14,2.11,39.52.78,78.87-1.8,118.2-1.34,20.41-2.98,40.77-5.15,61.07-2.47,23.18-6.11,45.93-10.4,68.5-2.4,12.66-5.11,25.22-7.94,37.7-3.97,17.48-8.16,34.87-12.29,52.28-4.2,17.66-9.59,34.66-14.64,51.83-7.13,24.21-15.24,47.71-25.31,69.83-15.46,33.96-33.48,65.38-48.96,99.33-7.96,17.47-18.66,31.88-27.99,47.83-17.6,30.1-34.57,60.96-52.66,90.45-22.73,37.07-43.89,75.88-65.18,114.53-21.2,38.49-39.56,79.76-56.47,122.37-11.4,28.73-20.19,58.59-24.71,90.8h5.06c.53-3.17,1.42-6.24,1.92-9.4,2.29-14.34,5.14-28.56,9.48-41.92,9.22-28.37,20.51-55.18,31.98-81.81,22.25-51.66,49.33-98.35,75.88-145.51,18.93-33.63,39-65.98,58.35-99.13,11.33-19.41,22.19-39.36,34.2-57.96,4.76-7.37,9.14-15.17,13.23-23.31,8.81-17.54,16.79-35.88,25.98-53.07,12.87-24.07,25.12-48.75,35.25-75.38,7.56-19.88,13.37-40.87,19.69-61.56,9.66-31.62,16.92-64.39,24.21-97.16,4.51-20.28,8.45-40.78,11.73-61.56,2.47-15.67,4.36-31.46,5.95-47.32,1.23-12.23,2.21-24.52,3.03-36.81,1.22-18.32,2.68-36.65,3.2-55.03.88-31.55,1.37-63.12-1.48-94.6-1.98-21.9-3.08-43.98-5.33-65.83-2.28-22.13-3.84-44.36-5.79-66.53-2.12-23.99-3.83-48.07-5.48-72.15-1.44-20.95-2.85-41.9-3.31-62.89-.72-32.35-.1-64.64,3.53-96.78,2.54-22.46,6.94-44.11,12.66-65.17,6.99-25.7,16.03-50.13,24.96-74.56,6.89-18.84,14.87-36.81,21.65-55.81,14.49-40.6,25.32-83.3,37.44-125.27,4.14-14.35,7.03-29.32,10.38-44.05,2.83-12.46,5.94-24.84,7.83-37.73,1.66-11.3,3.87-22.46,5.37-33.8,1.66-12.65,4.69-24.9,5.52-37.78.1-1.52.25-3.13,1.92-4.27,0,2.84,0,5.34,0,7.83-.08,27.11-.42,54.23-.2,81.34.47,57.9-1.52,115.8.15,173.7.53,18.36-2.95,35.6-9.93,50.89-11.02,24.12-19.87,49.8-27.51,76.22-9.68,33.48-19.51,66.88-28.13,100.97-8.73,34.5-15.33,69.65-17.66,106.27-1.46,22.93-.64,45.8,1.24,68.53,1.29,15.63,3.99,31.01,5.65,46.59,3.04,28.62,8.37,56.56,12.39,84.88,3,21.14,5.39,42.41,8.06,63.61,1.95,15.52,3.17,31.22,5.11,46.74,2.98,23.79,6.49,47.44,9.03,71.37,2.21,20.83,3.87,41.69,4.96,62.66,1.41,27.05,1.78,54.14,1.34,81.26-.21,13.18-1.69,26.2-2.17,39.32-.58,15.52-1.89,30.94-3.13,46.34-1.88,23.23-3.53,46.51-5.62,69.73-2.58,28.72-6.04,57.19-10.02,85.53-3.25,23.15-7.53,46-12.27,68.68-7.03,33.66-16.69,65.61-29.73,95.41-11.55,26.4-21.08,54.15-29.57,82.71-5.25,17.67-9.89,35.66-14.39,53.7-4.19,16.81-7.94,33.86-11.55,50.94-2.87,13.57-5.28,27.34-7.8,41.05-2.99,16.27-5.62,32.65-7.87,49.16-1.9,13.93-3.68,27.89-5.47,41.85-1.57,12.24-3.07,24.51-4.05,36.88h5.18c.15-2.18.39-4.36.67-6.55,2-15.77,3.95-31.55,5.77-47.37,2.03-17.63,4.75-35.07,7.53-52.48,2.37-14.83,5.43-29.43,8.06-44.18,2.85-16.02,6.19-31.85,9.88-47.49,4.63-19.61,9.7-39.03,14.96-58.33,7.39-27.1,15.79-53.57,26.04-78.81,6.17-15.19,13.02-29.83,18.47-45.63,7.81-22.64,14.49-45.91,19.44-70.1,2.78-13.59,5.45-27.25,7.63-41.09,1.66-10.5,3.29-21,4.89-31.52,2.27-14.91,4.12-29.91,5.82-44.94,2.41-21.27,4.27-42.67,6.15-64.05,1.22-13.82,2.12-27.7,3.06-41.57.9-13.34,1.88-26.67,2.78-40.01,1.44-21.47,3-42.95,2.98-64.51-.01-19.71-.94-39.42-1.4-59.13-.23-9.73-1.2-19.38-1.67-29.06-.54-11.06-1.81-21.94-2.87-32.85-1.52-15.61-3.48-31.14-5.42-46.66-1.71-13.71-3.89-27.3-5.41-41.05-2.03-18.43-3.91-36.88-6.38-55.21-1.04-7.74-1.84-15.55-2.75-23.32-1.61-13.73-3.54-27.37-5.72-40.94-1.89-11.77-3.81-23.53-5.49-35.36-1.91-13.38-3.44-26.87-5.37-40.24-2.38-16.49-4.43-33.11-5.42-49.83-1.96-32.91-.79-65.7,4.47-98.02,4.63-28.41,11.1-56.01,18.64-83.11,6.3-22.66,12.56-45.34,19.13-67.85,6.7-22.98,13.58-45.91,22.47-67.41,5.69-13.77,12.27-26.82,15.73-43.47.05-.24.11-.47.16-.71.06.22.12.44.18.66,2.45,8.9,4.23,16.94,7.49,24.05,12.46,27.1,22.08,56.24,30.51,86.18,8.15,28.95,16.78,57.62,24.25,86.94,3.83,15.05,7.6,30.14,10.43,45.61,3.39,18.55,6.07,37.3,7.63,56.43,1.28,15.77,1.66,31.48,1,47.23-.97,23.11-3.76,45.93-6.78,68.65-.89,6.72-1.39,13.54-2.51,20.19-2.03,12-3.55,24.15-5.54,36.16-2.93,17.62-5.57,35.35-7.72,53.23-2.05,17.09-4.24,34.14-6.09,51.28-.98,9.1-1.92,18.21-3.1,27.25-1.83,13.94-3.42,27.94-5.42,41.85-2.23,15.43-3.96,31.01-5.41,46.65-1.64,17.72-3.78,35.34-4.04,53.28-.11,7.62-.62,15.22-.97,22.83-1.21,26.8-1.74,53.6.09,80.4,1.57,23.02,2.89,46.08,4.54,69.09,1.83,25.37,3.5,50.78,6.01,76.02,2.76,27.82,6.03,55.54,10.2,83.05,3.78,24.9,8.16,49.53,13.5,73.86,4.62,21.07,10.63,41.29,17.42,61.11,5.42,15.82,12.42,30.32,18.47,45.61,9.69,24.46,17.98,49.85,25.14,76.02,5.54,20.28,10.81,40.67,15.72,61.28,3.73,15.67,6.97,31.53,10.06,47.44,2.75,14.14,5.57,28.29,7.57,42.73,1.54,11.07,3.46,22.04,5.09,33.08,2.28,15.42,4.08,30.98,6.05,46.49,1.18,9.35,1.66,18.88,3.1,28.16h5.54c-.51-8.76-2.18-17.31-2.97-26.02-.59-6.46-1.21-13.01-2.16-19.45-1.99-13.62-3.77-27.31-5.81-40.92-1.84-12.32-3.88-24.58-5.89-36.84-2.17-13.28-4.81-26.39-7.42-39.51-2.57-12.86-5.12-25.73-8.21-38.36-3.87-15.82-7.93-31.56-11.96-47.3-7.32-28.55-15.98-56.26-26.23-82.94-8.73-22.71-19.24-44.02-26.39-67.99-5.61-18.83-10.87-37.79-14.71-57.53-2.56-13.14-5.16-26.27-7.32-39.55-1.95-12.02-4.14-24-5.59-36.14-1.76-14.76-3.69-29.48-5.4-44.25-2.31-19.99-4.15-40.08-5.6-60.17-1.81-25.09-3.94-50.14-5.36-75.31-1.6-28.28-4.09-56.45-3.04-84.92.66-17.86.78-35.78,1.74-53.6,1.33-24.63,4.1-49.05,6.6-73.5.72-7.01,1.81-13.94,2.85-20.88,2.27-15.16,4.14-30.43,5.81-45.75,1.68-15.31,3.35-30.63,5.2-45.9,1.82-15.01,3.94-29.94,5.77-44.95,1.55-12.68,3.76-25.14,5.72-37.69,1.87-12.05,3.81-24.08,5.42-36.2,1.93-14.45,3.48-29,5.31-43.48,1.67-13.2,3.21-26.42,3.71-39.82,1.23-33.53-.48-66.6-6.16-99.39-4.47-25.79-10.41-50.82-17.01-75.57-6.13-23.01-12.7-45.79-19.37-68.5-8.65-29.45-17.54-58.75-30-85.58-5.75-12.39-9.14-26.16-10.41-41.04-.66-7.7.06-15.22.1-22.82.1-23.16.17-46.32.18-69.49.02-61.22,0-122.45,0-182.12,2.65,12.63,4.24,27.39,6.73,41.84,2.1,12.24,3.97,24.55,5.89,36.84Z"/>
            <path class="cls-6" d="M70.31,1460.55c12.72-25.59,23.23-52.94,33.21-80.74,7.88-21.95,15.1-44.34,21.59-67.17,5.26-18.5,8.93-37.74,12.35-57.1,3.24-18.36,5.87-36.88,8.21-55.47,2.91-23.08,3-46.56,3.66-69.93.51-18.17-1.21-36.25-1.29-54.4,0-.79-.06-1.58-.13-2.36-2.13-24.78-4.77-49.46-6.89-74.25-1.92-22.46-3.63-44.89-4.11-67.53-.55-26.1.21-52.12,2.86-77.92,1.73-16.86,3.15-33.8,5.78-50.51,1.82-11.51,3.45-23.13,5.61-34.49,2.98-15.67,6.57-31.12,10.52-46.39,5.16-19.95,11.13-39.33,19.13-57.39,8.18-18.48,17.79-35.5,26.85-53.08,8.31-16.11,16.65-32.2,26.36-46.71,17.3-25.86,36.65-48.18,57.97-67.15,19.99-17.79,38.8-37.8,56.07-60.7,12.59-16.69,25.54-32.83,39.24-47.71,13.13-14.26,25.48-29.66,35.96-47.95,12.3-21.44,23-44.41,32.99-68.06,7.79-18.44,14.77-37.48,20.66-57.35,4.38-14.75,8.16-29.78,11.94-44.82,4.28-17.04,8.21-34.26,12.19-51.45,3.12-13.47,5.7-27.15,7.61-41.08,1.77-12.87,3.94-25.64,5.61-38.54,1.64-12.66,3.59-25.21,5.75-37.69.15-.87.31-1.74.46-2.62h-5.76c-.05.32-.12.62-.16.94-.93,6.96-1.99,13.88-3.01,20.82-2.7,18.24-5.64,36.41-8.04,54.73-2.34,17.86-6.11,35.12-10.05,52.32-3.3,14.43-6.87,28.75-10.39,43.07-4.38,17.79-9.01,35.44-14.53,52.61-8.52,26.49-19.11,51.31-30.37,75.58-14.5,31.22-31.22,59.55-52.66,81.93-9.22,9.63-18.19,19.84-26.46,31.08-25.07,34.05-52.58,63.51-81.85,89.94-20.75,18.74-38.61,42.51-54.59,68.88-12.61,20.83-23.46,43.66-35.06,65.63-10.79,20.43-19.62,42.33-26.45,65.99-4.7,16.28-8.61,32.92-12.36,49.62-2.81,12.48-5.02,25.26-6.96,38.08-2.21,14.63-4.07,29.36-5.52,44.21-1.99,20.32-3.94,40.65-4.63,61.13-1.15,34.25,1.01,68.33,3.78,102.31.72,8.86,1.52,17.74,2.45,26.59,1.18,11.18,2.53,22.32,3.44,33.55,2.22,27.47,2.93,55.04,2.54,82.7-.32,23.48-1.96,46.74-5.04,69.74-2.28,17-4.89,33.93-8.03,50.7-2.9,15.47-5.89,30.9-10.07,45.74-9.65,34.25-20.95,67.45-33.53,99.72-19.21,49.3-43.09,93.78-70.91,133.98-5.22,7.55-10.59,14.92-16.26,21.82v9.75c4.68-5.76,9.35-11.54,13.83-17.6,21.27-28.75,39.59-61.03,56.48-95.03Z"/>
            <path class="cls-6" d="M43.78,1233.64c5.87-19.8,11.15-39.91,16.7-59.87,3.88-13.97,6.31-28.64,7.02-43.6,1.67-35.58.11-70.97-4.53-106.02-2.8-21.15-5.75-42.27-9.02-63.28-3.24-20.8-5.44-41.84-7.96-62.8-.99-8.25-2.19-16.55-2.54-24.96-.72-17.31-1.96-34.56-.5-51.98.72-8.61,1.61-17.19,2.32-25.79,1.61-19.6,4.39-38.91,7.59-58.05,2.98-17.83,6.37-35.54,10.16-53.1,5.19-24.08,11.09-47.79,18.93-70.32,18.36-52.77,40.68-101.83,68.9-145.38,19.06-29.42,38.62-57.86,61.61-81.35,15.59-15.92,31-32.31,45.12-50.87,22.52-29.58,45.52-58.36,69.73-85.17,16.25-18,31.07-38.15,44.39-60.49,10.37-17.39,20.76-34.76,31.16-52.12,8.13-13.56,16.47-26.88,24.39-40.67,12.78-22.26,22.19-47.5,31.22-72.99,2.93-8.28,6.16-16.36,8.84-24.81h-6.2c-3.09,8.75-6.19,17.49-9.24,26.27-11.07,31.87-24.39,61.57-41.29,88.02-9.68,15.14-18.91,30.88-28.04,46.7-19.61,33.98-40.9,65.47-65.58,92.29-16.89,18.35-33.07,37.98-48.53,58.75-14.24,19.13-29.12,37.23-44.86,53.87-11.26,11.91-22.63,23.63-33.43,36.39-23.27,27.49-42.78,60-62.14,92.72-16.71,28.25-29.84,59.81-42.27,92.02-10.23,26.51-18.61,54.12-25.18,82.89-3.71,16.24-7.04,32.61-10.09,49.1-2.58,13.96-4.99,28.02-6.8,42.21-2.26,17.84-4.12,35.78-5.79,53.77-2.32,24.83-.67,49.39,1.64,73.9,1.55,16.4,3.86,32.65,5.91,48.95,1.66,13.19,3.33,26.38,5.17,39.52,2.56,18.29,5.67,36.44,7.87,54.81,3.16,26.48,4.93,53.2,4.22,80.12-.42,15.77-1.01,31.61-4.43,46.75-5.12,22.72-11.54,44.8-17.89,66.87-10.42,36.27-23.96,70.23-39.66,102.44-.23.47-.45.94-.67,1.42v13.41c3.83-7.63,7.5-15.44,11.12-23.27,12.67-27.4,23.68-56.04,32.65-86.3Z"/>
            <path class="cls-6" d="M35.2,410.7c19.61-45.05,44.29-83.75,75.38-113.77,10.54-10.18,21.01-20.55,31.55-30.73,12.9-12.45,26.67-22.57,41.12-30.95,19.02-11.03,37.27-24.4,55.85-36.77,28.59-19.04,55.82-41.06,78.82-72.42,10.65-14.52,22.07-27.91,31.03-44.77,8-15.05,16.27-29.83,24.22-44.93,6.05-11.48,11.47-23.53,15.95-36.35h-6.01c-6.49,16.98-14.62,32.4-22.94,47.72-13,23.94-25.79,47.91-42.04,67.99-15.95,19.72-31.91,39.18-50.62,53.51-25.93,19.86-52.58,37.66-79.48,54.69-14.21,8.99-28.7,17.17-41.72,29.43-12.97,12.21-25.78,24.73-38.61,37.22-32.27,31.4-58.1,71.4-78.07,118.87C18.69,435.47,8.99,462.45,0,489.94v18.46c1.03-3.31,2.08-6.62,3.16-9.9,9.79-29.91,19.83-59.74,32.04-87.79Z"/>
            <path class="cls-6" d="M802.57,121.96c13.25,16,26.05,32.71,41.07,45.46,28.48,24.17,58.77,43.25,88.89,62.75,15.32,9.92,30.97,18.83,45.03,32.23,10.9,10.39,21.64,21.15,32.59,31.43,28.83,27.07,52.26,61.81,71.66,101.99,16.01,33.17,27.7,69.74,39.9,105.86.45,1.34.89,2.68,1.32,4.03v-18.34c-6.77-20.26-14.13-40.11-21.46-59.98-16.2-43.9-38.14-81.36-64.27-114.03-12.38-15.47-26.39-27.85-39.92-41.12-10.64-10.43-21.19-21.11-32.76-29.5-20.26-14.7-41.59-26.11-61.95-40.56-17.04-12.09-34.4-23.24-50.95-36.68-22.86-18.56-42.04-43.63-60.51-69.69-15.33-21.65-26.91-47.78-40.13-71.94-4.05-7.4-7.1-15.71-10.31-23.88h-6.12c6.35,17.71,14.59,33.6,23.09,49.31,13.85,25.59,27.32,51.49,44.84,72.64Z"/>
            <path class="cls-6" d="M614.66,75.05c2.24,14.9,4.66,29.71,8.02,44.18,4.04,17.45,8.24,34.83,12.43,52.21,3.64,15.14,7.37,30.26,11.83,44.96,8.41,27.76,18.72,54.11,30.47,79.32,10.71,22.99,21.66,45.73,35.6,65.21,8.33,11.65,17.55,21.8,26.72,32.05,12.81,14.31,25,29.63,36.9,45.42,19.29,25.6,40.97,46.69,63.11,66.95,22.74,20.81,42.73,46.19,59.97,75.73,11.44,19.61,21.59,40.64,32.37,60.97,10.28,19.39,18.79,40.17,25.32,62.56,4.17,14.3,7.65,28.95,11.02,43.67,4.41,19.26,7.7,38.87,10.5,58.69,2.22,15.73,3.89,31.58,5.17,47.51,1.56,19.33,3.39,38.61,3.42,58.14.02,15.81-1.1,31.5-1.72,47.25-.94,23.94-3.38,47.62-5.79,71.28-2.39,23.45-4.13,46.96-5.17,70.57-.93,21.03-.5,42.09.91,63.08.61,9.16.46,18.4,1.68,27.49,1.9,14.19,3.47,28.46,5.68,42.58,2.93,18.71,6.18,37.29,10.18,55.6,4.44,20.34,10.6,39.69,16.87,58.98,9.12,28.08,18.86,55.74,30.23,82.16,13.81,32.1,29.61,62.17,47.11,90.45,11.06,17.86,22.85,34.61,35.55,50.03v-9.99c-10.42-13.13-20.33-27-29.59-41.85-18.93-30.39-36-62.67-50.6-97.53-11.35-27.1-21.12-55.36-30.4-83.96-7.05-21.72-13.38-43.88-17.65-67.02-5.01-27.19-9.43-54.57-12.14-82.49-2.26-23.28-2.7-46.66-2.76-70.05-.11-40.64,4.78-80.66,8.5-120.79,1.42-15.4,2.54-30.85,3.27-46.29,1.75-37.11.84-74.12-3.5-110.92-.92-7.76-1.69-15.58-2.51-23.38-1.82-17.44-4.7-34.56-7.9-51.55-2.82-14.96-6.32-29.63-9.96-44.24-5.63-22.59-12.47-44.32-21.65-64.46-9.96-21.85-21.46-42.15-32.3-63.1-19.93-38.49-44.14-70.62-72.45-96.54-21.97-20.11-43.41-41.22-62.46-66.81-14.68-19.72-30.26-37.95-46.2-55.59-7.32-8.1-14.15-16.98-20.48-26.62-12.05-18.33-21.95-38.94-31.54-59.86-12.33-26.88-23.16-54.89-31.47-84.74-6.39-22.94-11.53-46.51-17.37-69.73-6.37-25.32-10.87-51.27-14.45-77.57-2.59-19.08-5.2-38.14-8.48-57h-5.4c.92,6.26,1.82,12.52,2.92,18.71,3.28,18.62,5.41,37.57,8.23,56.33Z"/>
            <path class="cls-6" d="M708.85,118.89c10.78,16.97,21.15,34.45,31.37,52.11,18.02,31.15,37.66,59.98,60.22,84.71,17.45,19.13,34.42,39.12,50.45,60.63,14.55,19.53,29.68,38.08,45.69,55.14,11.85,12.63,23.85,24.97,35.24,38.46,15.99,18.94,29.61,41.12,43.66,62.77,29.23,45.06,51.55,96.47,69.78,151.58,6.84,20.67,11.9,42.36,16.49,64.28,4.27,20.39,7.84,41,11.23,61.7,2.39,14.62,4.01,29.41,5.7,44.18,1.21,10.62,2.1,21.36,2.66,32.09,1.57,29.92-2.01,59.27-5.42,88.6-1.6,13.73-3.56,27.38-5.43,41.05-2.53,18.57-4.95,37.17-7.76,55.66-2.43,15.95-4.33,32.05-5.48,48.22-1.37,19.34-1.91,38.83-1.12,58.33.54,13.4.94,26.83,3.73,39.76,5.6,25.85,12.91,50.82,20.2,75.75,9.87,33.77,22.59,65.45,37.15,95.61,1.96,4.06,3.85,8.18,5.81,12.24v-13.71c-.16-.35-.32-.7-.49-1.04-13.4-27.99-25.42-57.06-35.01-88.13-6.23-20.17-11.49-40.85-17.3-61.24-2.64-9.26-5.07-18.68-6.39-28.44-3.83-28.41-3.21-57.08-1.38-85.68,1.68-26.19,5.62-51.89,9.48-77.59,1.93-12.84,3.41-25.81,5.28-38.66,2.02-13.9,3.48-27.93,5.19-41.9,2.31-18.93,4.16-37.93,4.41-57.15.22-17.37-.84-34.59-2.65-51.83-1.62-15.34-3.31-30.66-5.58-45.79-2.89-19.23-6.33-38.29-10.19-57.2-4.17-20.41-8.84-40.57-14.54-60.2-9.16-31.55-21.15-61.04-33.68-90.09-13.85-32.1-31.17-60.37-48.79-88.33-17.09-27.12-35.66-51.86-56.43-73.32-19.29-19.94-38.1-40.76-55.46-64.09-17.2-23.12-35.21-44.91-53.95-65.53-18.78-20.68-36.05-43.65-51.46-69.33-12.22-20.36-24.01-41.27-36.6-61.17-17.27-27.29-32.12-56.77-43.62-89.62-3.72-10.62-7.56-21.15-11.39-31.7h-5.99c3.39,9.24,6.69,18.55,9.95,27.88,11.47,32.82,25.05,63.66,42.42,90.99Z"/>
          </g>
        </g>
        <g>
          <path class="cls-3" d="M835.47,1462.49c0-17.88-27.78-17.91-27.78,0s27.78,17.91,27.78,0Z"/>
          <path class="cls-3" d="M809.33,1519.73c0-13.17-20.47-13.19-20.47,0,0,13.17,20.47,13.19,20.47,0Z"/>
          <path class="cls-3" d="M874.75,1550.39c0-13.17-20.47-13.19-20.47,0s20.47,13.19,20.47,0Z"/>
          <path class="cls-3" d="M881.76,1609.68c0-16.94-26.32-16.96-26.32,0,0,16.94,26.32,16.97,26.32,0Z"/>
          <path class="cls-3" d="M939,1636.25c0-16.94-26.32-16.96-26.32,0s26.32,16.96,26.32,0Z"/>
          <path class="cls-3" d="M1026.91,1769.14c0-16.94-26.32-16.96-26.32,0s26.32,16.96,26.32,0Z"/>
          <path class="cls-3" d="M944.84,1736.43c0-11.29-17.55-11.31-17.55,0,0,11.29,17.55,11.31,17.55,0Z"/>
          <path class="cls-3" d="M893.73,1681.23c0-11.29-17.55-11.31-17.55,0,0,11.29,17.55,11.31,17.55,0Z"/>
          <path class="cls-3" d="M1045.25,1936.77c0-11.29-17.55-11.31-17.55,0,0,11.29,17.55,11.31,17.55,0Z"/>
          <path class="cls-3" d="M1055.23,1822.29c0-11.29-17.55-11.31-17.55,0s17.55,11.31,17.55,0Z"/>
          <path class="cls-3" d="M977.55,1830.46c0-11.29-17.55-11.31-17.55,0s17.55,11.31,17.55,0Z"/>
          <path class="cls-3" d="M1082.75,2013.43c0-11.29-17.55-11.31-17.55,0s17.55,11.31,17.55,0Z"/>
          <path class="cls-3" d="M769.96,1307.29c0-11.29-17.55-11.31-17.55,0s17.55,11.31,17.55,0Z"/>
          <path class="cls-3" d="M788.36,1362.48c0-11.29-17.55-11.31-17.55,0s17.55,11.31,17.55,0Z"/>
          <path class="cls-3" d="M986.74,1685.32c0-4.7-7.31-4.71-7.31,0s7.31,4.71,7.31,0Z"/>
          <path class="cls-3" d="M811.86,1276.62c0-4.7-7.31-4.71-7.31,0,0,4.71,7.31,4.71,7.31,0Z"/>
          <path class="cls-3" d="M819.11,1579.01c0-4.7-7.31-4.71-7.31,0s7.31,4.71,7.31,0Z"/>
          <path class="cls-7" d="M300.68,1463.69c-.08-17.88,27.7-18.03,27.78-.12.08,17.88-27.7,18.03-27.78.12Z"/>
          <path class="cls-7" d="M327.08,1520.81c-.06-13.17,20.41-13.29,20.47-.09.06,13.17-20.41,13.29-20.47.09Z"/>
          <path class="cls-7" d="M261.8,1551.77c-.06-13.17,20.41-13.29,20.47-.09.06,13.17-20.41,13.28-20.47.09Z"/>
          <path class="cls-7" d="M255.06,1611.08c-.08-16.94,26.24-17.08,26.32-.12.07,16.94-26.25,17.08-26.32.12Z"/>
          <path class="cls-7" d="M197.94,1637.92c-.08-16.94,26.24-17.08,26.32-.12.07,16.93-26.25,17.08-26.32.12Z"/>
          <path class="cls-7" d="M110.63,1771.19c-.08-16.94,26.24-17.08,26.32-.12.08,16.94-26.25,17.08-26.32.12Z"/>
          <path class="cls-7" d="M192.55,1738.12c-.05-11.29,17.5-11.39,17.55-.08.05,11.29-17.5,11.39-17.55.08Z"/>
          <path class="cls-7" d="M243.41,1682.69c-.05-11.29,17.5-11.39,17.55-.08.05,11.29-17.5,11.39-17.55.08Z"/>
          <path class="cls-7" d="M93.04,1938.91c-.05-11.29,17.5-11.39,17.55-.08.05,11.29-17.5,11.39-17.55.08Z"/>
          <path class="cls-7" d="M82.54,1824.47c-.05-11.29,17.5-11.39,17.55-.08.05,11.29-17.5,11.39-17.55.08Z"/>
          <path class="cls-7" d="M160.26,1832.3c-.05-11.29,17.5-11.39,17.55-.08.05,11.29-17.5,11.39-17.55.08Z"/>
          <path class="cls-7" d="M55.88,2015.74c-.05-11.29,17.5-11.39,17.55-.08.05,11.29-17.5,11.39-17.55.08Z"/>
          <path class="cls-7" d="M365.5,1308.19c-.05-11.29,17.5-11.39,17.55-.08.05,11.29-17.5,11.39-17.55.08Z"/>
          <path class="cls-7" d="M347.35,1363.47c-.05-11.29,17.5-11.39,17.55-.08.05,11.29-17.5,11.39-17.55.08Z"/>
          <path class="cls-7" d="M150.42,1687.2c-.02-4.7,7.29-4.74,7.31-.03.02,4.7-7.29,4.74-7.31.03Z"/>
          <path class="cls-7" d="M323.47,1277.72c-.02-4.7,7.29-4.74,7.31-.03.02,4.7-7.29,4.74-7.31.03Z"/>
          <path class="cls-7" d="M317.58,1580.14c-.02-4.7,7.29-4.74,7.31-.03.02,4.7-7.29,4.74-7.31.03Z"/>
        </g>
      </g>
    </g>
  </g>
</svg>