<?xml version="1.0" encoding="UTF-8"?>
<svg id="Layer_2" data-name="Layer 2" xmlns="http://www.w3.org/2000/svg" viewBox="0 0 349.41 363.45">
  <defs>
    <style>
      .cls-1 {
        fill: #477381;
      }

      .cls-2 {
        fill: #fff;
      }

      .cls-3 {
        fill: none;
        stroke: #010101;
        stroke-linecap: round;
        stroke-linejoin: round;
        stroke-width: 1.32px;
      }

      .cls-4 {
        fill: #94a4a4;
      }

      .cls-5 {
        fill: #282525;
      }

      .cls-6 {
        fill: #a7d9c4;
      }

      .cls-7 {
        fill: #080808;
      }

      .cls-8 {
        fill: #e1be31;
      }
    </style>
  </defs>
  <g id="Layer_6" data-name="Layer 6">
    <g>
      <g>
        <path class="cls-7" d="M55.65,74.11c2.04-9.38,2.02-18.64.21-28.13-3.26-16.99,5.92-40.05,27.35-44.98,21.35-4.9,36.27,8.68,32.99,30.39-.88,5.86-2.47,11.61-3.5,17.45-1.86,10.53.95,19.16,10.43,25.09,4.3,2.69,7.55,6.46,9.64,11.13,6.73,15.09,9.21,30.41,2.46,46.22-.18.42-.35.84-.4.95-5.42,10.68-13.2,18.59-20.29,27.02-5.38,6.41-10.78,12.81-15.35,19.85-3.4,5.25-3.18,9.41,1.72,12.69,14.07,9.41,16.37,22.56,12.78,37.77-2.75,11.65-6.3,22.99-13.48,32.84-3.04,4.17-6.73,7.71-11.17,10.27-16.45,9.48-30.02,22.42-43.43,35.6-4.23,4.15-8.69,8.07-13.03,12.1-1.41,1.31-2.85,2.2-4.89,1.3-2-.88-2.52-2.43-2.48-4.42.07-3.36-1.7-5.96-3.54-8.58-5.3-7.52-11.52-14.4-15.63-22.78-7.93-16.18-7.57-32.53-1.72-49.19,2.91-8.29,7.42-15.59,13.01-22.23,16.26-19.31,15.62-34.01,1.35-54.79-4.2-6.11-8.55-12-10.05-19.59-3.86-19.48,5.31-36.66,23.81-43.92,1.81-.71,3.63-1.46,5.5-1.96,10.43-2.74,15.54-10.07,17.72-20.11ZM34.96,100.81c-21.9,8.32-29.04,32.59-15.1,51.44,4.06,5.49,7.93,11.1,10.64,17.38,4.05,9.39,5.94,19.14,2.28,29.06-2.58,6.99-6.63,13.26-11.39,19.02-5.55,6.71-10.08,14-12.73,22.36-3.79,11.96-4.88,23.94-.92,36.16,3.91,12.05,12.25,21.13,19.82,31.43,6.03-17.55,12-34.4,17.61-51.36,10.74-32.51,19.13-65.51,20.03-100,.04-1.46.12-2.92.94-4.22.7-1.11,1.58-1.9,3.01-1.37,1.16.42,1.69,1.23,1.62,2.52-.32,6.17-.25,12.38-.92,18.52-2.32,21.27-6.76,42.17-12.38,62.76-5.77,21.12-13.67,41.58-20.7,62.31-1.85,5.46-4.21,10.79-5.04,17.3,3.19-2.96,5.92-5.36,8.49-7.92,14.42-14.28,29.12-28.22,46.82-38.54,4.9-2.86,8.53-7.16,11.5-11.98,6.32-10.24,9.34-21.64,11.08-33.34,1.48-10-1.1-18.82-9.96-24.92-1.2-.82-2.33-1.76-3.4-2.74-4.73-4.34-5.8-9.42-2.97-15.16,1.34-2.71,2.93-5.34,4.69-7.8,7.85-10.98,17.12-20.81,25.62-31.27,8.11-9.97,11.77-21.32,10-33.97-1.73-12.37-5.03-24.21-17.14-31.02-.52-.29-.93-.78-1.37-1.19-8.41-8.04-9.25-18.01-7.2-28.66.99-5.13,2.42-10.18,3.2-15.34,1.65-11.01-2.21-19.73-10.29-23.18-7.38-3.15-14.8-2.33-21.94.91-14.2,6.45-20.39,22.83-17.84,36.95,1.83,10.11,1.99,19.98-.21,29.97-2.62,11.92-8.63,20.78-21.03,24.18-1.64.44-3.23,1.1-4.82,1.71Z"/>
        <path class="cls-6" d="M19.86,152.25c4.06,5.49,7.93,11.1,10.64,17.38,4.05,9.39,5.94,19.14,2.28,29.06-2.58,6.99-6.63,13.26-11.39,19.02-5.55,6.71-10.08,14-12.73,22.36-3.79,11.96-4.88,23.94-.92,36.16,3.91,12.05,12.25,21.13,19.82,31.43,6.03-17.55,12-34.4,17.61-51.36,10.74-32.51,19.13-65.51,20.03-100,.04-1.46.12-2.92.94-4.22.7-1.11,1.58-1.9,3.01-1.37,1.16.42,1.69,1.23,1.62,2.52-.32,6.17-.25,12.38-.92,18.52-2.32,21.27-6.76,42.17-12.38,62.76-5.77,21.12-13.67,41.58-20.7,62.31-1.85,5.46-4.21,10.79-5.04,17.3,3.19-2.96,5.92-5.36,8.49-7.92,14.42-14.28,29.12-28.22,46.82-38.54,4.9-2.86,8.53-7.16,11.5-11.98,6.32-10.24,9.34-21.64,11.08-33.34,1.48-10-1.1-18.82-9.96-24.92-1.2-.82-2.33-1.76-3.4-2.74-4.73-4.34-5.8-9.42-2.97-15.16,1.34-2.71,2.93-5.34,4.69-7.8,7.85-10.98,17.12-20.81,25.62-31.27,8.11-9.97,11.77-21.32,10-33.97-1.73-12.37-5.03-24.21-17.14-31.02-.52-.29-.93-.78-1.37-1.19-8.41-8.04-9.25-18.01-7.2-28.66.99-5.13,2.42-10.18,3.2-15.34,1.65-11.01-2.21-19.73-10.29-23.18-7.38-3.15-14.8-2.33-21.94.91-14.2,6.45-20.39,22.83-17.84,36.95,1.83,10.11,1.99,19.98-.21,29.97-2.62,11.92-8.63,20.78-21.03,24.18-1.64.45-3.23,1.1-4.82,1.71-21.9,8.32-29.04,32.59-15.1,51.44Z"/>
      </g>
      <g>
        <path class="cls-7" d="M270.87,323.27c9.57-.76,18.74.49,27.91,3.56,16.4,5.5,40.49-.51,48.23-21.09,7.71-20.5-3.76-37.1-25.71-36.76-5.92.09-11.83.9-17.76,1.14-10.68.43-18.87-3.5-23.47-13.69-2.09-4.62-5.39-8.35-9.75-11.04-14.05-8.69-28.91-13.19-45.48-8.62-.44.12-.88.24-.99.27-11.31,3.94-20.19,10.6-29.49,16.5-7.07,4.48-14.13,8.98-21.72,12.55-5.66,2.67-9.75,1.9-12.34-3.4-7.44-15.2-20.17-19.24-35.72-17.72-11.91,1.17-23.63,3.17-34.34,8.97-4.53,2.45-8.54,5.64-11.67,9.69-11.59,15.03-26.23,26.76-41.08,38.28-4.68,3.63-9.15,7.53-13.74,11.29-1.49,1.22-2.56,2.53-1.94,4.67.61,2.1,2.07,2.82,4.05,3.04,3.34.38,5.68,2.48,8.03,4.66,6.75,6.26,12.73,13.35,20.48,18.53,14.97,10.02,31.23,11.85,48.52,8.28,8.6-1.77,16.44-5.27,23.77-9.92,21.31-13.53,35.79-10.93,54.48,5.99,5.5,4.98,10.75,10.08,18.07,12.58,18.79,6.43,37.04-.36,46.71-17.72.95-1.7,1.94-3.4,2.68-5.19,4.11-9.97,12.06-14.06,22.3-14.87ZM241.64,340.21c-11.18,20.59-36.18,24.42-53,8.09-4.9-4.76-9.94-9.35-15.8-12.87-8.76-5.27-18.17-8.45-28.49-6.14-7.27,1.62-14.02,4.79-20.37,8.75-7.39,4.6-15.22,8.12-23.87,9.63-12.36,2.16-24.38,1.64-35.96-3.92-11.42-5.48-19.3-14.96-28.5-23.84,18.2-3.63,35.69-7.29,53.26-10.58,33.65-6.3,67.48-10.2,101.78-6.48,1.45.16,2.92.27,4.3-.36,1.2-.54,2.09-1.31,1.76-2.8-.27-1.2-.99-1.84-2.29-1.94-6.16-.51-12.31-1.41-18.47-1.56-21.39-.54-42.69,1.06-63.86,3.88-21.71,2.89-43.04,7.99-64.52,12.19-5.66,1.11-11.26,2.73-17.82,2.68,3.36-2.76,6.11-5.15,8.98-7.36,16.08-12.38,31.85-25.08,44.45-41.24,3.49-4.48,8.23-7.49,13.41-9.8,10.99-4.89,22.7-6.36,34.52-6.52,10.11-.13,18.51,3.61,23.37,13.2.66,1.3,1.43,2.55,2.26,3.74,3.66,5.27,8.56,7.01,14.63,4.97,2.87-.96,5.68-2.19,8.36-3.61,11.93-6.31,22.91-14.18,34.41-21.21,10.97-6.7,22.7-8.81,35-5.37,12.02,3.37,23.32,8.22,28.45,21.13.22.55.65,1.02,1,1.51,6.85,9.41,16.61,11.57,27.45,10.96,5.21-.29,10.41-1.04,15.63-1.12,11.13-.17,19.26,4.83,21.6,13.3,2.14,7.73.33,14.98-3.84,21.62-8.29,13.21-25.36,17.15-39,12.74-9.78-3.17-19.53-4.64-29.73-3.8-12.16,1-21.75,5.78-26.77,17.6-.66,1.57-1.52,3.05-2.34,4.55Z"/>
        <path class="cls-6" d="M188.64,348.3c-4.9-4.76-9.94-9.35-15.8-12.87-8.76-5.27-18.17-8.45-28.49-6.14-7.27,1.62-14.02,4.79-20.37,8.75-7.39,4.6-15.22,8.12-23.87,9.63-12.36,2.16-24.38,1.64-35.96-3.92-11.42-5.48-19.3-14.96-28.5-23.84,18.2-3.63,35.69-7.29,53.26-10.58,33.65-6.3,67.48-10.2,101.78-6.48,1.45.16,2.92.27,4.3-.36,1.2-.54,2.09-1.31,1.76-2.8-.27-1.2-.99-1.84-2.29-1.94-6.16-.51-12.31-1.41-18.47-1.56-21.39-.54-42.69,1.06-63.86,3.88-21.71,2.89-43.04,7.99-64.52,12.19-5.66,1.11-11.26,2.73-17.82,2.68,3.36-2.76,6.11-5.15,8.98-7.36,16.08-12.38,31.85-25.08,44.45-41.24,3.49-4.48,8.23-7.49,13.41-9.8,10.99-4.89,22.7-6.36,34.52-6.52,10.11-.13,18.51,3.61,23.37,13.2.66,1.3,1.43,2.55,2.26,3.74,3.66,5.27,8.56,7.01,14.63,4.97,2.87-.96,5.68-2.19,8.36-3.61,11.93-6.31,22.91-14.18,34.41-21.21,10.97-6.7,22.7-8.81,35-5.37,12.02,3.37,23.32,8.22,28.45,21.13.22.55.65,1.02,1,1.51,6.85,9.41,16.61,11.57,27.45,10.96,5.21-.29,10.41-1.04,15.63-1.12,11.13-.17,19.26,4.83,21.6,13.3,2.14,7.73.33,14.98-3.84,21.62-8.29,13.21-25.36,17.15-39,12.74-9.78-3.17-19.53-4.64-29.73-3.8-12.16,1-21.75,5.78-26.77,17.6-.66,1.56-1.53,3.05-2.34,4.55-11.18,20.59-36.18,24.43-52.99,8.09Z"/>
      </g>
      <g>
        <g>
          <path class="cls-5" d="M194.8,279.82c-.43-.03-.67.17-.69.6-1.46.46-1.94,2.28-3.53,2.57l-.45.03-.16.42c-.92.59-1.66,1.46-2.77,1.75h-.44s-.18.4-.18.4c-.95.58-1.64,1.65-2.95,1.52l.12-.04c-.92.36-1.51,1.46-2.71,1.2l.11-.03c-1.39.78-2.84,1.38-4.46,1.47l.1-.02c-.55.36-1.18.34-1.8.39h-.05c-8.88,1.76-17.85,2.62-26.89,2.95h-.12c-.57.05-1.13.1-1.7.15h-.08c-.59.1-1.18.14-1.77.12h0c-.61.18-1.22.31-1.85.06h.07c-.62.33-1.25.45-1.88.03h.08c-1.55.63-3.07-.05-4.6-.15h0c-.63.2-1.26.37-1.86-.11h.07c-.99.76-1.83-.4-2.77-.24h-.06c-.62.12-1.25.3-1.81-.17l.08.32-.02-.33c-1,.75-1.83-.39-2.78-.25h-.05c-.62.14-1.25.3-1.83-.13h.07c-.96.72-1.8-.46-2.73-.18h-.14c-.59.05-1.18.06-1.76,0h.04c-.62.24-1.25.36-1.87,0h.07c-.61.46-1.24.59-1.88.05l.09.35-.03-.36c-2.09.71-4.22.27-6.33.26h-.1c-.59.09-1.18.12-1.77.09h.02c-.62.19-1.23.34-1.86.03h.07c-.62.38-1.25.52-1.88.01l.09.32-.02-.33c-1.54.75-3.06,0-4.59-.09h0c-.63.22-1.26.37-1.86-.06h.06c-1.56.62-3.07-.04-4.6-.17h0c-.62.23-1.24.33-1.88.1h.05c-2.18.9-2.67,3.64-4.89,4.49-.49.47-.99.94-1.48,1.41-1.41.63-2.02,2.28-3.54,2.76-.45,0-.71.21-.79.66-1.49.34-1.9,2.28-3.53,2.41l.04-.02c-1.53.11-1.82,2.24-3.48,2.13l.08-.04c-.97.26-1.53,1.25-2.56,1.39l-.41-.03-.17.38c-.94.62-1.66,1.69-3,1.55l.12-.04c-.91.39-1.51,1.48-2.71,1.23l.11-.03c-.91.37-1.5,1.51-2.73,1.15l.15-.04c-.47.55-1.16.44-1.76.6l-.08.04c-1.01-.08-1.58,1.16-2.65.89l.11-.02c-.54.39-1.18.35-1.79.41h-.05c-1.72.65-3.49.83-5.3.62h-.12c-.59.07-1.18.07-1.77,0h.05c-1.02.38-1.8-.61-2.77-.49l-.07-.02c-1.03.21-1.79-.67-2.76-.67h-.04c-.96.22-1.5,1.2-2.49,1.38-1.59,1.24-2.95,2.68-3.89,4.48-4.54,3.78-7.44,8.96-11.39,13.23-1.35,1.45-1.91,3.84-4.42,4.03l.2-.06c-.55.5-1.2.51-1.88.38h.09c-1.06.36-1.84-.56-2.81-.62v-.02c-1.22.28-1.81-.29-1.95-1.46l-.05-.41-.41-.08c-2.08-2.17-.91-4.45-.22-6.71.45-.18.64-.51.59-.99,3.74-6.49,8.96-11.86,13.66-17.59,2.35-2.87,2.94-5.39,1.2-8.54v.02c-.77-1.37-1.48-2.77-1.35-4.42v.1c-.47-.57-.51-1.2-.26-1.88v.09c-.38-.61-.46-1.24-.14-1.9v.11c-.43-.63-.58-1.26-.02-1.91l.02.12c-.86-.99.34-1.87.16-2.82h0c-.12-.66-.32-1.31.22-1.88v.14c-.79-1.11.29-1.94.44-2.9v.11c-.53-1.12.42-1.93.59-2.91v.11c-.48-1.13.42-1.95.67-2.91v.13c-.83-1.63,1.45-2.37,1.1-3.87h0c-.09-1.13.69-2,.95-3.02.4-.16.51-.44.35-.83.04-1.08.8-1.92,1.03-2.94.41-.14.55-.42.41-.83-.02-1.56,1.67-2.36,1.7-3.89.43-.16.6-.46.5-.91.31-2.41,3.03-3.46,3.33-5.88.96-.79,1.76-1.69,1.95-2.98-.06-1.49-.99-2.79-.91-4.31v.06c-.41-.52-.37-1.15-.41-1.76l-.02-.08c-.29-1.5-1.25-2.82-1.13-4.42v.07c-.43-.53-.39-1.16-.39-1.79v-.04c-.64-2.04-1.3-4.08-1.27-6.25v.09c-.54-.55-.56-1.18-.3-1.87v.08c-.4-.57-.43-1.19-.31-1.85v.05c-.27-.57-.3-1.18-.27-1.8v-.03c-.12-.56-.21-1.13-.28-1.71l-.03-.13c-.17-1.51-1.23-2.82-1.04-4.42v.06c-.47-.51-.41-1.14-.44-1.76l-.02-.07c-.03-.96-1.33-1.53-.82-2.65v.06c-.56-.47-.53-1.11-.52-1.75v-.05c-.09-.96-1.36-1.53-.88-2.66v.07c-.54-.48-.51-1.12-.5-1.76v-.04c-.4-1.48-1.26-2.83-1.24-4.42v.06c-.36-.53-.34-1.16-.38-1.76l-.02-.08c-.52-2.06-1.29-4.07-1.18-6.25v.09c-.57-.56-.61-1.19-.24-1.88v.09c-.5-.57-.55-1.2-.23-1.88v.09c-.46-.58-.51-1.21-.22-1.88v.09c-.42-.59-.48-1.22-.2-1.89v.09c-.41-.59-.48-1.22-.19-1.89v.09c-.41-.59-.48-1.22-.18-1.89v.09c-.42-.59-.49-1.22-.18-1.89v.09c-.44-.59-.51-1.22-.19-1.89v.09c-.45-.58-.51-1.22-.21-1.89v.09c-.43-.59-.5-1.22-.2-1.89v.09c-.43-.59-.49-1.22-.21-1.89v.09c-.41-.58-.46-1.21-.23-1.88v.09c-.36-.59-.42-1.22-.21-1.88v.09c-.34-.61-.42-1.23-.16-1.89v.1c-.38-.61-.47-1.24-.12-1.9v.1c-.46-.62-.6-1.25-.05-1.91l.02.12c-.86-.98.36-1.86.13-2.81v-.03c-.08-.64-.26-1.28.18-1.87v.15c-.67-1.1.37-1.92.46-2.9v.1c-.44-1.13.45-1.94.69-2.91l-.02.13c-.73-1.66,1.44-2.41,1.23-3.9l-.02.07c-.27-1.67,1.54-2.5,1.62-4.02.41-.14.56-.43.44-.85,1.48-3.18,3.46-5.95,6.49-7.85l-.03.02c.98-.08,1.57-1.34,2.72-.92l-.15.02c.59-.51,1.22-.57,1.91-.22h-.13c1.01-.63,1.84.48,2.8.32l.06.02c1.63-.14,2.47,1.55,3.97,1.71,1.53,1.77,3.32,3.22,5.39,4.33.97,2.2,3.6,2.83,4.66,4.95.58.59,1.16,1.19,1.74,1.78.26,1.49,2.05,1.86,2.4,3.28.06.48.31.79.77.92.2.98,1.15,1.51,1.43,2.44.03.48.26.79.71.95.23.99,1.26,1.54,1.4,2.57v.44s.39.19.39.19c.57.49.67,1.19.86,1.86-.06.44.12.73.54.88.39.49.44,1.12.68,1.66-.02.48.19.81.63.99.26.98,1.35,1.55,1.28,2.68h0c.19.94,1.31,1.51,1.12,2.63l-.02-.06c.2.53.38,1.06.53,1.61-.13.41,0,.68.41.83.5.54.6,1.22.64,1.91l.04.09c-.02.98,1.25,1.55.86,2.65l-.02-.1c.5.51.45,1.16.45,1.8v.02c.1.56.23,1.12.37,1.67l.06.19c-.23.96,1.21,1.58.56,2.63v-.09c.66.53.66,1.17.32,1.87v-.1c.48.57.53,1.21.26,1.89v-.1c.4.59.46,1.23.22,1.9v-.1c.37.6.44,1.23.19,1.9v-.1c.37.61.45,1.24.15,1.91v-.11c.42.61.5,1.24.14,1.91v-.11c.48.6.57,1.24.15,1.91v-.11c.54.59.62,1.23.16,1.91v-.1c.58.58.66,1.21.18,1.9v-.1c.6.57.67,1.21.19,1.9v-.1c.6.57.67,1.21.19,1.9v-.1c.6.58.68,1.21.17,1.9v-.09c.63.58.72,1.2.15,1.89v-.09c.92,1.44-.21,3,.25,4.47v.22c-.07.55-.05,1.1.06,1.65v.09c0,.6.13,1.19.05,1.79v-.04c.18.63.33,1.27-.01,1.9v-.03c.91-.08-.76,2.89,1.39,1.25,1.6-1.22,2.91-2.76,3.53-4.76l.43-.23v-.48c.1-2.51,3.01-3.49,3.22-5.94.44-.15.62-.45.53-.91.24-2.42,3.04-3.42,3.26-5.85.45-.15.64-.46.56-.93.43-2.47,3.02-3.69,3.55-6.11.67-.37.96-.96,1.05-1.69.34-2.03,2.37-3.13,2.8-5.11.67-.34.96-.93,1.04-1.65.86-3.23,4.22-4.86,5.12-8.05.97-.66,1.55-1.61,1.92-2.7,1.71-3.54,4.14-6.5,7.19-8.96,1.29-.91,2.35-2.02,3.06-3.44,2.61-1.25,3.3-4.52,5.99-5.7.46,0,.72-.24.76-.71,1.95-.5,2.27-3.04,4.31-3.44l.43-.03.13-.42c.91-.61,1.67-1.44,2.74-1.8.43.07.68-.11.75-.54.95-.46,1.6-1.37,2.66-1.64.41.1.64-.06.71-.48.94-.52,1.64-1.46,2.79-1.62h-.02c1.01-.11,1.57-1.11,2.55-1.28l.08-.04c1.04.07,1.57-1.02,2.53-1.14l.07-.04c1.03.06,1.58-1.1,2.61-1.01h-.03c.97-.08,1.56-1.43,2.74-.8l-.13.02c.49-.69,1.16-.66,1.87-.46l-.11.02c.58-.37,1.21-.4,1.87-.32h-.06c.59-.23,1.21-.29,1.84-.22h-.03c.6-.2,1.22-.28,1.85-.16h-.06c.62-.23,1.25-.33,1.88-.06h-.1c.92-.57,1.75.61,2.67.15l.26.05c.59.11,1.2,0,1.79.19.24.37.58.52,1.01.46,1.73.56,3.13,1.5,3.85,3.26l.08.12c-.05,1.01,1.12,1.54,1,2.57v-.04c.14.57.27,1.14.36,1.72l.04.14c.7,2.28.85,4.64.86,7.01v.23c-.08.56-.07,1.11.02,1.67v.06c.05.62.24,1.25-.07,1.86v-.13c.52,1.02-.55,1.85-.35,2.83v.03c.17.97-.81,1.73-.51,2.72l-.03.09c.06.97-.85,1.72-.63,2.73l-.02.05c.06,1.04-.73,1.82-.82,2.82l.02-.1c.48,1.61-1.55,2.35-1.34,3.87l.02-.04c.27,1.6-1.6,2.38-1.52,3.92-.42.21-.59.55-.5,1.02-.08,1.45-1.76,2.19-1.64,3.73-.45.2-.65.54-.6,1.03-.23,1.95-2.41,2.86-2.57,4.85-.42.64-.83,1.28-1.25,1.92-5.01,7.45-10.54,14.49-16.89,20.85-.51.53-1.01,1.06-1.52,1.58-2.26.91-2.8,3.7-5.06,4.61-.49.47-.98.94-1.47,1.41-1.84.8-2.44,3.03-4.33,3.77-.52.51-1.03,1.01-1.55,1.52-2.26.93-2.8,3.74-5.1,4.63-.48.05-.75.31-.82.79-2.37.66-2.68,3.71-5.06,4.34-.45-.02-.67.2-.68.64-1.89.63-2.35,2.96-4.24,3.59-.43.05-.73.28-.89.67-1.41.93-2.84,1.83-2.75,3.82.4.27.85.38,1.34.32h0c.57-.09,1.13-.22,1.68-.38l.18-.05c.98.24,1.6-1.17,2.65-.6l-.13.02c.54-.59,1.19-.6,1.89-.38l-.11.02c.58-.37,1.21-.41,1.87-.31h-.07c.59-.26,1.2-.29,1.83-.25h-.02c.59-.18,1.19-.23,1.8-.22h.01c.59-.12,1.18-.19,1.77-.22h.04c.58-.1,1.17-.16,1.76-.2h.05c.58-.09,1.17-.15,1.75-.19h.05c.58-.09,1.16-.15,1.75-.2h.05c.58-.08,1.16-.15,1.74-.21h.06c.57-.07,1.14-.14,1.72-.22h.09c.57-.04,1.13-.11,1.69-.23l.13-.02c.56,0,1.11-.07,1.65-.21l.17-.02c.55.05,1.08-.02,1.6-.2l.21-.03c.54.07,1.07.02,1.58-.17l.21-.02c.55.06,1.08.02,1.61-.14h.18c.56.01,1.12-.03,1.66-.12h.1c.58-.06,1.17-.09,1.76-.1h0c.61-.15,1.22-.28,1.84-.07h-.08c.64-.29,1.27-.45,1.89.04h-.1c.97-.78,1.83.41,2.77.16h.09c.61-.03,1.23-.24,1.81.13h-.09c1.02-.58,1.84.5,2.8.36h.04c.97-.25,1.71.75,2.69.48l.15.04c.73-.07,1.46-.12,2.09.36l.29.33.42-.12c.94-.11,1.64.9,2.62.59l.16.06c.96-.09,1.69.81,2.67.64l.1.03c1.05-.15,1.82.73,2.82.76.26.4.62.56,1.09.46.67.08,1.36.03,1.95.45l.27.36.44-.08c1.13.02,2.01.75,3.03,1.08.64.33,1.27.66,1.9,1,.99.25,1.83.87,2.81,1.15.63.38,1.27.76,1.9,1.13,2.72.63,4,3.61,6.77,4.15,1.25,1.6,2.78,2.84,4.61,3.72.37,1.46,2.1,1.89,2.51,3.33-.06.42.11.69.51.82.44.55.54,1.2.59,1.87l.02.08c.05.57.12,1.13.23,1.69v.12c-.01.6.12,1.19.02,1.79v-.07c.27,1.12-.65,1.95-.74,2.98-.41.17-.57.47-.48.91-.47,1.8-1.47,3.18-3.24,3.92Z"/>
          <path class="cls-2" d="M48.66,255.62c-2.52-9.47-4.96-18.94-6.46-28.64-.36-2.31-.72-4.68-1.54-6.84-5.34-14.13-6.46-29.03-8.23-43.83-1.03-8.61.83-16.5,4.63-24.07,2.4-4.77,6.03-5.67,10.47-2.64,4.44,3.04,8.2,6.89,11.25,11.24,7.28,10.39,12.78,21.64,14.27,34.44.89,7.61,1.42,15.27,2.1,22.91.65,7.31-1.13,14.39-1.96,21.57-.26,2.25-1.99,5.81,1.23,6.75,3.36.98,3.46-3.12,4.6-5.09,9.99-17.32,19.32-35.04,29.8-52.05,8.56-13.89,19.61-25.71,34.48-33.36,5.4-2.77,10.97-4.51,17.1-4.49,3.04,0,4.56,1.19,5.23,4.18,1.43,6.44.82,12.68-1.08,18.9-4.13,13.49-11.23,25.24-20.89,35.44-10.26,10.84-21.65,20.46-32.85,30.28-6.08,5.32-11.69,11.18-18.26,15.94-1.16.84-2.56,1.91-1.66,3.67.91,1.78,2.53,1.23,3.93.75,3.62-1.25,7.14-2.83,10.81-3.87,22.18-6.28,44.45-9.99,67.08-1.92,6.5,2.32,12.45,5.53,17.76,9.85,5.16,4.2,5.22,7.91.12,12.04-6.05,4.9-12.78,8.32-20.73,9.11-15.25,1.53-30.4,2.9-45.86,1.64-13.95-1.14-28.07-.14-42.12-.09-.71.09-1.07-.22-1.09-.94,3.91-1.73,8.02-2.82,12.19-3.71,13.55-2.92,27.25-5.14,40.98-6.76,13.74-1.63,27.61-1.93,41.42-.05.21.03.42.1.63.13,1.9.27,4.39.84,4.72-1.69.33-2.57-2.34-2.55-4.17-2.84-2.73-.44-5.48-1.03-8.22-1.07-14.48-.2-28.97-.62-43.33,2.07-6.28,1.18-12.64,1.91-18.94,3.03-8.57,1.52-17.15,3-26.04,5.99.49-3.53,1.02-6.54,1.28-9.57.28-3.21-.53-6.34-1.03-9.5-.3-1.91,1.38-3.02,2.4-4.31,16.53-20.89,33.1-41.76,49.64-62.64,1.18-1.49,2.72-2.75,3.26-4.68.24-.86.14-1.66-.57-2.31-.95-.89-2-.76-2.85-.01-.95.83-1.73,1.87-2.54,2.85-17.09,20.71-34.24,41.37-51.2,62.18-2.35,2.88-4.65,4.46-8.49,4.27-4.99-.24-9.42,2.25-14.32,4.17,1.68-16.57-.06-32.7-.97-48.85-.89-15.81-4.09-31.24-9.17-46.23-.71-2.09-.96-6.18-4.45-4.74-2.82,1.16-.56,4.14.19,6.16,4.25,11.47,6.47,23.47,7.92,35.48,1.94,16.06,2.57,32.28,2.53,48.49,0,1.26-.25,2.53-.38,3.79.07.57.03,1.13-.11,1.68.06.38-.02.73-.24,1.04-.09.85-.57,1.3-1.42,1.35-.2-1.04-.4-2.08-.6-3.12-.29-.45-.38-.93-.26-1.45Z"/>
          <path class="cls-8" d="M44.9,262.28c.26,2.11.28,4.28.83,6.3,1.02,3.76-1.53,5.93-3.31,8.5-.64.91-.96,2.02.06,2.85,1.3,1.04,2.42.26,3.27-.75,1.92-2.27,3.69-4.68,5.65-6.93,5.42-6.2,12.08-9.85,20.52-10.07,2.99-.08,4.04,1.11,4.55,3.91,1.79,9.9-2.45,17.81-8.01,25.33-.88,1.19-2.11,2.11-2.99,3.3-.74,1-1.49,2.3-.28,3.41,1.2,1.11,2.72.52,3.3-.56,2.84-5.28,8.16-4.62,12.8-5.62.83-.18,1.69-.07,2.3.7-5.3,7.49-23.08,16.81-31.77,16.64-.64-.01-1.33.06-1.9-.17-6.53-2.59-10.86.14-14.57,5.47-3.03,4.36-6.55,8.39-10,12.44-1.28,1.5-2.18,3.79-5.22,3.45.83-3.27,2.52-5.83,4.49-8.27,3.47-4.31,6.79-8.75,10.38-12.96,2.66-3.12,3.39-6.12,1.16-9.83-2.16-3.59-2.55-7.62-1.96-11.74,1.22-8.47,3.36-16.65,7.67-24.14.49-1.67,1.21-2.81,3.03-1.26Z"/>
          <path class="cls-1" d="M44.9,262.28c-1.31-.3-2.16.51-3.03,1.26.16-.78.17-1.65.54-2.31.36-.65,1.28-1.63,1.65-1.51,1.16.37,1.02,1.54.85,2.56Z"/>
          <path class="cls-4" d="M50.19,263.51c.17.31.33.62.5.94-.26.03-.52.05-.79.08.13-.34.26-.68.39-1.02h-.1Z"/>
        </g>
        <g>
          <path class="cls-3" d="M38.31,143.92s0,0,0,0c0,0,.01,0,.02-.01l-.03.02Z"/>
          <path class="cls-3" d="M105.19,292.62l.08.31-.02-.28s-.04-.02-.05-.03c0,0,0,0-.01,0Z"/>
          <path class="cls-3" d="M116.96,292.23l.08.34-.02-.31s-.04-.02-.06-.03c0,0,0,0,0,0Z"/>
          <path class="cls-3" d="M129.78,292.75l.07.31-.02-.29s-.03-.01-.04-.02c0,0-.01,0-.02,0Z"/>
          <path class="cls-3" d="M183.67,287.11c1.29.11,1.99-.94,2.93-1.52l.18-.4h.44c1.11-.29,1.85-1.17,2.77-1.75l.16-.42.45-.03c1.59-.29,2.06-2.11,3.53-2.57.03-.43.26-.63.69-.6,1.77-.74,2.77-2.12,3.25-3.93-.09-.43.07-.73.48-.91.1-1.03,1.01-1.85.75-2.98v.07c.1-.6-.04-1.19-.02-1.79v-.12c-.12-.56-.19-1.12-.24-1.69l-.02-.08c-.05-.67-.14-1.33-.59-1.87-.4-.13-.58-.4-.51-.82-.4-1.44-2.14-1.87-2.51-3.33-1.83-.88-3.36-2.12-4.61-3.72-2.77-.55-4.05-3.52-6.77-4.15-.63-.38-1.27-.76-1.9-1.13-.98-.27-1.82-.9-2.81-1.15-.64-.33-1.27-.66-1.9-1-1.02-.33-1.9-1.06-3.03-1.08l-.44.08-.27-.36c-.58-.43-1.28-.37-1.95-.45-.47.1-.83-.06-1.09-.46-1-.03-1.77-.9-2.82-.76l-.1-.03c-.98.17-1.71-.73-2.67-.64l-.16-.06c-.99.31-1.68-.69-2.62-.59l-.42.12-.29-.33c-.64-.48-1.36-.43-2.09-.36l-.15-.04c-.97.28-1.72-.73-2.69-.47h-.04c-.95.13-1.75-.9-2.75-.39-.57-.33-1.18-.14-1.77-.1h-.09c-.92.24-1.77-.89-2.71-.19-.6-.45-1.21-.31-1.82-.03-.61-.19-1.21-.07-1.8.08h0c-.59,0-1.17.04-1.75.09h-.1c-.55.1-1.11.14-1.66.12h-.18c-.53.17-1.06.21-1.61.16l-.21.02c-.51.19-1.04.23-1.58.17l-.21.03c-.52.18-1.05.24-1.6.2l-.17.02c-.54.15-1.09.22-1.65.21h-.13c-.56.13-1.12.2-1.69.23h-.09c-.57.09-1.14.17-1.72.22h-.06c-.58.07-1.16.13-1.74.21h-.05c-.59.05-1.17.12-1.75.2h-.05c-.59.05-1.17.11-1.75.19h-.05c-.59.05-1.17.11-1.76.2h-.04c-.6.04-1.19.11-1.77.22h-.01c-.61,0-1.2.04-1.79.22-.61-.04-1.21,0-1.78.24-.63-.09-1.23-.06-1.79.28-.66-.19-1.27-.18-1.78.35-1.01-.46-1.62.86-2.58.63l-.18.05c-.55.16-1.12.28-1.68.38h0c-.49.06-.94-.05-1.34-.32-.09-1.98,1.34-2.89,2.75-3.82.17-.4.47-.62.89-.67,1.9-.62,2.35-2.96,4.24-3.59,0-.45.23-.66.68-.64,2.38-.63,2.69-3.69,5.06-4.34.07-.47.34-.74.82-.79,2.29-.89,2.84-3.7,5.1-4.63.52-.51,1.03-1.01,1.55-1.52,1.89-.74,2.5-2.96,4.33-3.77.49-.47.98-.94,1.47-1.41,2.25-.91,2.8-3.7,5.06-4.61.51-.53,1.01-1.06,1.52-1.58,6.35-6.36,11.88-13.4,16.89-20.85.42-.64.83-1.28,1.25-1.92.16-1.99,2.34-2.9,2.57-4.85-.05-.49.15-.83.6-1.03-.13-1.54,1.56-2.28,1.64-3.73-.09-.47.08-.8.5-1.02-.09-1.54,1.79-2.31,1.52-3.92l-.02.04c-.21-1.52,1.82-2.26,1.34-3.87.13-.95.85-1.72.8-2.72l.02-.05c-.22-1.01.69-1.76.63-2.73l.03-.09c-.3-1,.68-1.75.51-2.72v-.03c-.19-.96.82-1.77.38-2.76.26-.59.1-1.19.05-1.79v-.06c-.08-.55-.09-1.11-.02-1.67v-.23c-.01-2.37-.16-4.72-.86-7.01l-.04-.14c-.09-.58-.22-1.15-.37-1.72v.04c.13-1.03-1.04-1.57-.99-2.57l-.08-.12c-.71-1.76-2.12-2.69-3.85-3.26-.43.06-.77-.09-1.01-.46-.58-.18-1.2-.08-1.79-.19l-.26-.05c-.9.46-1.72-.66-2.62-.16-.62-.24-1.22-.14-1.82.08-.61-.11-1.21-.03-1.79.16-.61-.07-1.21-.01-1.79.22-.63-.08-1.23-.04-1.79.29-.67-.18-1.29-.19-1.77.42-1.12-.51-1.71.75-2.66.84h.03c-1.04-.1-1.58,1.06-2.61,1l-.07.04c-.96.12-1.49,1.2-2.53,1.14l-.08.04c-.98.17-1.55,1.17-2.55,1.29h.02c-1.15.15-1.85,1.08-2.79,1.61-.06.42-.3.57-.71.48-1.06.27-1.72,1.19-2.66,1.64-.07.43-.32.61-.75.54-1.07.36-1.83,1.19-2.74,1.8l-.13.42-.43.03c-2.04.39-2.36,2.94-4.31,3.44-.04.46-.29.7-.76.71-2.69,1.17-3.38,4.44-5.99,5.7-.71,1.42-1.77,2.53-3.06,3.44-3.05,2.46-5.49,5.42-7.19,8.96-.37,1.09-.94,2.04-1.92,2.7-.91,3.19-4.27,4.83-5.12,8.05-.08.72-.37,1.3-1.04,1.65-.43,1.98-2.46,3.08-2.8,5.11-.08.73-.37,1.33-1.05,1.69-.54,2.41-3.12,3.63-3.55,6.11.08.47-.11.78-.56.93-.21,2.44-3.01,3.43-3.26,5.85.09.46-.09.76-.53.91-.21,2.45-3.12,3.43-3.22,5.94v.48s-.42.23-.42.23c-.62,2-1.93,3.54-3.53,4.76-2.13,1.62-.51-1.27-1.38-1.25.32-.62.18-1.24,0-1.87.07-.59-.04-1.17-.05-1.76v-.09c-.11-.55-.13-1.1-.06-1.65v-.22c-.45-1.45.62-2.98-.24-4.4.53-.65.45-1.26-.14-1.82.46-.65.39-1.25-.17-1.8.42-.65.36-1.25-.19-1.8.42-.65.36-1.25-.19-1.8.42-.65.35-1.25-.18-1.8.41-.64.33-1.24-.16-1.8.37-.64.29-1.23-.15-1.8.32-.63.24-1.23-.15-1.8.26-.63.19-1.22-.16-1.8.22-.63.15-1.23-.19-1.8.21-.63.15-1.23-.22-1.79.24-.64.19-1.25-.26-1.79.31-.67.29-1.28-.32-1.78.56-1.02-.8-1.63-.58-2.58l-.06-.19c-.14-.55-.26-1.11-.36-1.67v-.02c0-.62.04-1.25-.42-1.76.32-1.06-.89-1.63-.87-2.59l-.04-.09c-.04-.7-.14-1.37-.64-1.91-.4-.15-.54-.43-.41-.83-.15-.53-.32-1.04-.52-1.55.19-1.12-.93-1.68-1.12-2.64h0c.07-1.12-1.02-1.69-1.28-2.67-.44-.18-.65-.51-.63-.99-.25-.54-.29-1.18-.68-1.66-.42-.14-.6-.43-.54-.88-.19-.66-.29-1.37-.86-1.86l-.39-.19v-.44c-.14-1.04-1.18-1.58-1.4-2.57-.45-.15-.69-.47-.71-.95-.28-.93-1.23-1.46-1.43-2.44-.46-.14-.72-.44-.77-.92-.35-1.43-2.15-1.79-2.4-3.28-.58-.59-1.16-1.19-1.74-1.78-1.06-2.11-3.69-2.75-4.66-4.95-2.06-1.11-3.85-2.56-5.39-4.33-1.5-.16-2.34-1.85-3.97-1.71l-.06-.02c-.94.16-1.75-.88-2.73-.34-.64-.31-1.24-.25-1.79.2-1.09-.32-1.68.85-2.63.94-3.02,1.9-5,4.66-6.47,7.84.12.42-.02.7-.44.84-.08,1.53-1.89,2.35-1.62,4.02l.02-.07c.21,1.48-1.91,2.23-1.25,3.86-.26.92-1.06,1.72-.67,2.79-.14.92-1.04,1.71-.48,2.74-.37.57-.22,1.19-.14,1.8v.03c.22.92-.92,1.79-.18,2.74-.49.62-.37,1.22.06,1.81-.32.63-.23,1.22.12,1.8-.23.62-.16,1.22.16,1.8-.19.63-.13,1.23.21,1.79-.21.64-.15,1.24.23,1.79-.25.64-.19,1.24.21,1.8-.27.64-.21,1.24.2,1.8-.28.64-.21,1.24.21,1.8-.29.64-.23,1.24.19,1.8-.28.63-.22,1.23.18,1.8-.27.63-.2,1.23.18,1.8-.25.63-.19,1.23.19,1.8-.25.63-.19,1.23.2,1.8-.26.64-.2,1.24.22,1.8-.29.64-.24,1.25.23,1.79-.34.66-.29,1.28.26,1.82-.09,2.15.66,4.14,1.18,6.17l.02.08c.04.6.02,1.22.38,1.76,0,1.57.84,2.91,1.23,4.37v.04c0,.63-.02,1.26.5,1.74-.42,1.1.81,1.67.88,2.62v.05c0,.63-.02,1.27.52,1.73-.46,1.1.8,1.67.83,2.62l.02.07c.02.61-.03,1.25.43,1.75-.17,1.58.88,2.87,1.04,4.37l.03.13c.07.57.16,1.14.28,1.71v.03c-.02.61,0,1.2.28,1.77-.12.63-.08,1.24.3,1.79-.24.66-.21,1.28.32,1.82-.02,2.15.63,4.16,1.25,6.18v.04c0,.62-.03,1.25.4,1.77-.09,1.58.85,2.89,1.13,4.37l.02.08c.03.61,0,1.24.41,1.76-.05,1.49.85,2.78.9,4.25-.19,1.3-.98,2.2-1.95,2.98-.3,2.42-3.02,3.47-3.33,5.88.1.45-.07.75-.5.91-.02,1.53-1.72,2.34-1.7,3.89.14.41,0,.69-.41.83-.22,1.02-.98,1.85-1.03,2.94.16.4.04.67-.35.83-.26,1.03-1.04,1.89-.95,3.03h0c.34,1.48-1.87,2.22-1.13,3.82-.28.92-1.1,1.71-.67,2.8-.2.93-1.06,1.72-.59,2.79-.19.91-1.13,1.7-.46,2.74-.48.56-.3,1.19-.18,1.82h0c.18.94-.96,1.79-.21,2.76-.5.61-.37,1.21.03,1.81-.29.63-.21,1.22.14,1.8-.23.65-.18,1.26.28,1.82-.1,1.62.59,2.99,1.36,4.34v-.02c1.73,3.15,1.14,5.68-1.21,8.54-4.7,5.73-9.92,11.1-13.66,17.59.05.48-.15.81-.59.99-.69,2.26-1.86,4.54.22,6.71l.41.08.05.42c.14,1.17.73,1.74,1.96,1.46v.02c.95.06,1.73.95,2.76.63.65.12,1.27.1,1.8-.36,2.36-.29,2.94-2.58,4.26-4,3.96-4.27,6.86-9.45,11.39-13.23.94-1.81,2.31-3.24,3.89-4.48.99-.18,1.53-1.16,2.49-1.38h.04c.98,0,1.74.88,2.76.67l.07.02c.97-.13,1.74.86,2.76.49.58.06,1.16.07,1.73,0h.12c1.81.21,3.59.02,5.3-.61h.05c.6-.07,1.21-.05,1.74-.4,1.04.21,1.61-.98,2.6-.9l.08-.04c.58-.15,1.23-.07,1.7-.55,1.13.27,1.72-.74,2.57-1.13,1.14.21,1.74-.77,2.59-1.19,1.31.12,2.02-.93,2.96-1.55l.17-.38.41.03c1.03-.15,1.59-1.14,2.56-1.39l-.08.04c1.66.1,1.95-2.02,3.48-2.13l-.04.02c1.64-.13,2.04-2.06,3.53-2.41.08-.44.34-.66.79-.66,1.52-.49,2.13-2.13,3.54-2.76.49-.47.99-.94,1.48-1.41,2.22-.85,2.71-3.58,4.87-4.48.63.22,1.24.13,1.84-.1h0c1.51.13,3.01.77,4.55.18.6.41,1.22.27,1.85.06h0c1.51.09,3,.81,4.53.11h0s0,0,.01,0c.02,0,.03-.01.05-.02v.05c.6.44,1.19.32,1.78-.04.61.28,1.21.14,1.82-.05.59.02,1.17,0,1.76-.09h.1c2.09,0,4.21.44,6.27-.25h0s0,0,0,0c.02,0,.04,0,.05-.01v.05c.61.47,1.2.35,1.78-.07.61.33,1.22.21,1.83-.02.58.05,1.15.05,1.73-.02h.14c.92-.27,1.75.86,2.69.2.57.41,1.19.25,1.8.11h.05c.93-.14,1.75.96,2.73.28v-.02s.01,0,.02.01c.01,0,.02-.01.04-.02v.04c.55.42,1.16.26,1.76.13h.06c.93-.16,1.76.96,2.73.26.58.46,1.21.3,1.83.1h0c1.51.1,3.01.76,4.54.16.62.4,1.23.29,1.83-.03.61.23,1.21.1,1.81-.08.59.02,1.18-.02,1.77-.11h.08c.57-.05,1.13-.1,1.7-.14h.12c9.03-.34,18.01-1.2,26.89-2.95h.05c.61-.06,1.23-.04,1.78-.39,1.56-.1,2.97-.67,4.32-1.43,1.14.21,1.73-.78,2.59-1.18Z"/>
        </g>
      </g>
    </g>
  </g>
</svg>