<?xml version="1.0" encoding="UTF-8"?>
<svg id="Layer_2" data-name="Layer 2" xmlns="http://www.w3.org/2000/svg" viewBox="0 0 199.26 227.22">
  <defs>
    <style>
      .cls-1 {
        fill: #477381;
      }

      .cls-2 {
        fill: #fff;
      }

      .cls-3 {
        fill: none;
        stroke: #010101;
        stroke-linecap: round;
        stroke-linejoin: round;
        stroke-width: 1.32px;
      }

      .cls-4 {
        fill: #94a4a4;
      }

      .cls-5 {
        fill: #282525;
      }

      .cls-6 {
        fill: #e1be31;
      }
    </style>
  </defs>
  <g id="Layer_6" data-name="Layer 6">
    <g>
      <g>
        <path class="cls-5" d="M2.71,110.18c.42-.11.58-.37.47-.79,1.24-.9,1.12-2.78,2.53-3.56l.41-.17.02-.45c.69-.85,1.11-1.92,2.08-2.54l.41-.14.04-.43c.71-.85,1.03-2.09,2.32-2.38l-.1.08c.76-.64.97-1.87,2.19-2l-.09.06c1.07-1.18,2.26-2.21,3.77-2.81l-.09.05c.4-.52,1.01-.7,1.58-.94l.04-.03c7.87-4.47,16.11-8.13,24.57-11.31l.11-.05c.52-.22,1.04-.45,1.57-.67l.07-.03c.53-.27,1.07-.5,1.64-.67h0c.52-.37,1.06-.68,1.73-.65l-.06.03c.49-.51,1.04-.83,1.78-.63l-.07.03c1.27-1.1,2.92-.93,4.41-1.32h0c.54-.39,1.08-.75,1.8-.48l-.06.03c.7-1.04,1.86-.21,2.7-.66h.06c.55-.33,1.09-.7,1.77-.43l-.17-.28.12.31c.71-1.03,1.86-.21,2.71-.65h.05c.54-.35,1.08-.7,1.77-.47l-.06.03c.68-.99,1.85-.14,2.64-.7l.14-.04c.54-.25,1.09-.44,1.67-.57h-.03c.52-.41,1.07-.73,1.77-.59l-.07.03c.43-.63.98-.96,1.76-.65l-.19-.3.14.33c1.75-1.33,3.91-1.59,5.92-2.25l.09-.03c.53-.27,1.08-.48,1.65-.64h-.01c.52-.37,1.06-.71,1.75-.62l-.07.03c.47-.56,1.02-.89,1.78-.61l-.18-.27.13.31c1.23-1.2,2.9-.97,4.38-1.37h0c.53-.4,1.08-.74,1.79-.53l-.06.03c1.28-1.09,2.92-.94,4.41-1.3h0c.51-.42,1.07-.71,1.75-.68h-.05c1.78-1.53,1.38-4.28,3.21-5.79.32-.6.64-1.2.96-1.8,1.13-1.04,1.19-2.8,2.48-3.74.43-.14.61-.43.54-.87,1.3-.8,1.08-2.76,2.59-3.4l-.03.03c1.42-.59,1.02-2.7,2.63-3.13l-.06.06c.84-.55,1.06-1.67,1.99-2.13l.4-.1.05-.41c.7-.89,1.04-2.13,2.35-2.42l-.1.08c.74-.66.96-1.88,2.18-2.02l-.09.07c.75-.64.95-1.91,2.22-1.96l-.13.08c.27-.67.96-.78,1.48-1.12l.07-.06c.99-.24,1.13-1.6,2.24-1.69l-.09.05c.39-.54,1-.71,1.57-.96l.05-.03c1.43-1.15,3.05-1.88,4.84-2.26l.12-.04c.54-.25,1.1-.44,1.68-.56l-.05.02c.85-.69,1.9.01,2.78-.42h.07c.91-.53,1.91.07,2.83-.24h.04c.84-.52,1.04-1.63,1.93-2.11,1.11-1.68,1.95-3.47,2.27-5.48,3.11-5.02,4.21-10.85,6.62-16.16.82-1.8.6-4.25,2.91-5.22l-.17.12c.37-.65.98-.87,1.66-.96l-.08.03c.89-.68,1.93-.05,2.87-.3v.02c1.07-.65,1.81-.3,2.32.76l.18.38.41-.05c2.66,1.4,2.27,3.93,2.33,6.29-.37.31-.45.69-.25,1.13-1.5,7.34-4.74,14.08-7.39,21.01-1.32,3.46-1.08,6.04,1.57,8.48v-.02c1.16,1.06,2.27,2.16,2.68,3.76l-.04-.09c.64.39.88.97.85,1.69l-.04-.08c.56.45.84,1.02.74,1.75l-.04-.1c.62.46.96,1.01.64,1.8l-.05-.11c1.13.67.27,1.88.74,2.73h0c.31.59.72,1.14.38,1.86l-.05-.13c1.11.8.35,1.92.51,2.89l-.03-.11c.85.89.2,1.97.35,2.95l-.03-.11c.81.93.21,1.98.27,2.98l-.03-.13c1.29,1.29-.64,2.72.17,4.03h0c.45,1.04-.02,2.11.06,3.17-.33.28-.35.58-.07.9.3,1.04-.16,2.07-.04,3.11-.34.26-.39.57-.12.91.52,1.47-.84,2.77-.38,4.23-.36.29-.43.63-.19,1.02.47,2.39-1.78,4.24-1.3,6.63-.67,1.05-1.13,2.16-.9,3.45.53,1.39,1.82,2.33,2.23,3.8l-.03-.06c.56.36.73.97.95,1.54l.04.07c.75,1.33,2.08,2.28,2.48,3.84l-.03-.06c.58.36.75.97.94,1.57l.02.04c1.24,1.74,2.52,3.46,3.17,5.53l-.04-.08c.69.35.92.94.89,1.67l-.04-.07c.57.41.8.99.89,1.65l-.02-.05c.45.45.67,1.02.84,1.62v.03c.3.5.57,1.01.82,1.53l.07.11c.64,1.38,2.06,2.28,2.38,3.86l-.03-.06c.61.33.76.95.98,1.53l.04.06c.33.9,1.74,1.03,1.62,2.26l-.03-.06c.69.26.86.89,1.05,1.5l.03.04c.37.89,1.76,1.02,1.67,2.25l-.03-.06c.67.28.85.9,1.04,1.51l.02.04c.84,1.28,2.08,2.29,2.57,3.8l-.03-.06c.52.39.69.99.93,1.55l.04.07c1.15,1.79,2.51,3.45,3.1,5.55l-.04-.08c.73.35.97.93.84,1.7l-.04-.08c.67.38.92.96.82,1.71l-.04-.08c.63.4.88.98.82,1.71l-.04-.08c.59.42.85,1,.8,1.72l-.04-.08c.59.43.85,1,.79,1.73l-.04-.08c.59.43.85,1.01.78,1.73l-.04-.09c.6.43.87,1,.78,1.74l-.04-.08c.62.42.88.99.79,1.73l-.04-.08c.62.41.88.99.81,1.72l-.04-.08c.61.42.87.99.8,1.72l-.04-.08c.6.42.86,1,.81,1.72l-.04-.08c.58.42.83,1,.83,1.71l-.04-.08c.54.44.8,1.02.8,1.72l-.04-.08c.52.46.8,1.03.76,1.74l-.04-.09c.56.46.85,1.03.72,1.77l-.04-.1c.65.44.98,1,.66,1.79l-.05-.11c1.12.66.25,1.88.76,2.7v.03c.29.58.66,1.13.43,1.83l-.05-.14c.99.83.26,1.94.48,2.9l-.02-.1c.76.93.17,1.98.26,2.98l-.03-.13c1.22,1.34-.61,2.74.07,4.09v-.07c.79,1.5-.67,2.85-.26,4.33-.35.27-.39.58-.15.94-.4,3.49-1.4,6.74-3.67,9.5l.02-.02c-.91.39-1.07,1.77-2.29,1.74l.13-.07c-.4.67-.98.93-1.74.81l.12-.05c-.76.93-1.89.14-2.75.6h-.06c-1.5.65-2.83-.68-4.31-.36-2.02-1.19-4.17-2-6.48-2.4-1.62-1.78-4.31-1.54-5.98-3.21-.74-.38-1.48-.76-2.22-1.14-.72-1.33-2.54-1.11-3.32-2.35-.2-.44-.55-.65-1.03-.63-.5-.86-1.57-1.07-2.13-1.86-.17-.44-.5-.67-.98-.67-.53-.87-1.69-1.06-2.15-2l-.14-.42-.43-.06c-.69-.29-1.01-.92-1.41-1.49-.08-.44-.35-.66-.79-.66-.53-.34-.77-.92-1.18-1.36-.13-.46-.44-.7-.91-.74-.55-.85-1.77-1.05-2.06-2.14h0c-.49-.83-1.72-1.02-1.9-2.14l.03.05c-.36-.43-.7-.89-1.01-1.35,0-.43-.23-.65-.65-.66-.65-.35-.96-.96-1.21-1.61l-.06-.07c-.29-.94-1.67-1.08-1.66-2.24l.05.09c-.64-.33-.79-.96-.99-1.56v-.02c-.28-.5-.57-.99-.88-1.47l-.12-.16c-.09-.99-1.64-1.12-1.36-2.32l.04.08c-.8-.29-1.01-.9-.91-1.67l.05.09c-.65-.39-.9-.98-.86-1.71l.04.09c-.58-.43-.84-1.01-.82-1.73l.04.09c-.55-.45-.82-1.03-.79-1.74l.04.09c-.55-.46-.83-1.03-.76-1.76l.05.1c-.6-.44-.88-1.02-.75-1.77l.05.1c-.66-.42-.94-.99-.76-1.76l.04.1c-.71-.39-.99-.96-.77-1.76l.04.09c-.75-.36-1.02-.94-.78-1.74l.04.09c-.76-.35-1.03-.93-.79-1.74l.04.09c-.76-.35-1.03-.93-.79-1.74l.04.09c-.76-.36-1.04-.93-.77-1.74l.04.09c-.79-.35-1.08-.91-.75-1.74l.04.08c-1.34-1.07-.77-2.91-1.67-4.15l-.07-.21c-.11-.55-.3-1.06-.59-1.54l-.03-.09c-.2-.56-.51-1.09-.62-1.68v.04c-.35-.54-.7-1.1-.58-1.8l.02.02c-.86.37-.21-2.98-1.73-.74-1.13,1.66-1.88,3.54-1.84,5.64l-.33.35.16.46c.7,2.41-1.75,4.26-1.18,6.65-.37.28-.45.62-.22,1.03.54,2.37-1.8,4.2-1.23,6.58-.38.29-.46.64-.24,1.06.37,2.48-1.69,4.46-1.43,6.92-.52.56-.61,1.22-.46,1.94.32,2.03-1.25,3.72-1.04,5.73-.53.54-.61,1.19-.46,1.9.21,3.33-2.46,5.94-2.31,9.26-.72.93-.96,2.02-.96,3.17-.5,3.9-1.87,7.48-3.99,10.78-.93,1.27-1.59,2.66-1.81,4.23-2.08,2.02-1.7,5.34-3.88,7.3-.44.15-.6.46-.49.91-1.69,1.09-1.19,3.61-3,4.63l-.4.17v.44c-.66.86-1.12,1.89-2.02,2.57-.43.07-.61.32-.54.75-.75.73-1.09,1.81-2.01,2.4-.42.04-.59.26-.52.68-.72.79-1.09,1.9-2.13,2.42h.01c-.92.42-1.14,1.54-2.01,2.02l-.06.07c-1.01.27-1.16,1.46-2.04,1.88l-.06.06c-.99.27-1.14,1.54-2.15,1.79l.03-.02c-.89.39-1.03,1.86-2.34,1.64l.12-.06c-.25.81-.89.99-1.63,1.03l.1-.05c-.43.53-1.02.77-1.67.89l.05-.03c-.49.42-1.05.66-1.67.8h.03c-.51.37-1.06.64-1.7.73l.05-.02c-.52.42-1.07.71-1.77.66l.09-.04c-.69.84-1.85-.02-2.58.71l-.26.04c-.6.08-1.14.38-1.75.39-.35-.27-.71-.31-1.11-.12-1.82.01-3.45-.43-4.68-1.87l-.11-.09c-.27-.97-1.55-1.1-1.76-2.12l.02.04c-.33-.49-.62-1-.9-1.52l-.08-.12c-1.39-1.94-2.27-4.13-3.04-6.37l-.07-.22c-.11-.55-.29-1.08-.55-1.58v-.05c-.26-.57-.64-1.11-.54-1.78l.04.13c-.82-.8-.06-1.93-.57-2.79v-.03c-.48-.87.21-1.9-.39-2.75v-.09c-.37-.9.26-1.9-.27-2.79v-.05c-.38-.96.12-1.96-.11-2.93v.1c-.96-1.37.73-2.72.05-4.09v.05c-.76-1.44.77-2.77.2-4.2.33-.33.39-.71.15-1.12-.39-1.4.98-2.64.37-4.05.37-.33.45-.72.24-1.17-.4-1.92,1.38-3.48.9-5.42.19-.74.38-1.48.58-2.22,2.4-8.65,5.41-17.08,9.42-25.13.31-.66.62-1.32.94-1.98,1.86-1.58,1.49-4.39,3.34-5.97.32-.6.64-1.2.95-1.8,1.49-1.34,1.36-3.64,2.91-4.95.33-.65.66-1.29.98-1.93,1.85-1.6,1.47-4.44,3.37-6,.44-.2.61-.53.53-1.01,2.04-1.37,1.36-4.37,3.42-5.72.43-.13.58-.4.44-.83,1.6-1.2,1.29-3.55,2.89-4.75.39-.19.6-.49.64-.92,1.04-1.32,2.12-2.64,1.4-4.49-.47-.12-.93-.09-1.37.12h0c-.51.27-1,.57-1.48.89l-.15.11c-1.01.09-1.14,1.62-2.33,1.41l.12-.05c-.32.73-.94.94-1.67.96l.1-.05c-.43.54-1.02.78-1.68.89l.06-.03c-.47.44-1.05.67-1.66.82h.02c-.5.35-1.05.59-1.63.78h-.01c-.52.3-1.06.56-1.61.77l-.03.02c-.52.27-1.06.52-1.6.75l-.04.02c-.53.26-1.06.51-1.6.73l-.04.02c-.53.26-1.06.51-1.6.74l-.05.02c-.53.25-1.05.5-1.58.74l-.06.03c-.53.24-1.05.49-1.56.75l-.08.04c-.53.21-1.04.45-1.53.74l-.12.06c-.53.17-1.03.41-1.49.73l-.15.08c-.53.13-1.02.36-1.45.69l-.2.09c-.53.11-1.02.32-1.45.66l-.19.09c-.54.12-1.03.33-1.48.65l-.17.07c-.54.16-1.05.37-1.54.63l-.1.04c-.54.24-1.08.45-1.64.64h0c-.53.34-1.07.65-1.73.65l.07-.03c-.51.48-1.06.83-1.81.56l.09-.04c-.67,1.06-1.86.2-2.67.74l-.09.02c-.57.23-1.09.63-1.76.47l.09-.03c-.79.87-1.9.11-2.77.55h-.04c-.84.56-1.86-.16-2.7.41h-.16c-.67.3-1.34.58-2.1.33l-.38-.22-.36.24c-.86.4-1.84-.33-2.68.27h-.17c-.89.39-1.86-.23-2.74.23h-.1c-.95.47-1.96-.12-2.91.18-.37-.3-.77-.33-1.18-.09-.66.13-1.3.41-1.99.19l-.37-.25-.4.21c-1.08.34-2.14-.07-3.22-.07-.71-.11-1.41-.23-2.12-.34-1.02.08-2.01-.25-3.03-.2-.72-.16-1.44-.32-2.16-.47-2.78.26-4.94-2.16-7.74-1.8-1.69-1.12-3.54-1.81-5.55-2.07-.81-1.26-2.6-1.13-3.43-2.36-.07-.42-.32-.62-.75-.61-.59-.38-.89-.97-1.15-1.59l-.05-.07c-.22-.52-.47-1.03-.75-1.52l-.04-.11c-.17-.57-.49-1.09-.58-1.69l.02.07c-.61-.98,0-2.05-.23-3.06.33-.29.39-.63.17-1.01-.12-1.85.39-3.48,1.83-4.74Z"/>
        <path class="cls-2" d="M148.98,86.84c5.38,8.18,10.71,16.4,15.2,25.12,1.07,2.08,2.16,4.21,3.63,6.01,9.54,11.71,15.32,25.49,21.69,38.96,3.71,7.84,4.44,15.91,3.23,24.3-.77,5.28-3.93,7.29-9.09,5.82-5.17-1.47-9.97-3.94-14.23-7.1-10.2-7.54-18.97-16.48-24.44-28.14-3.25-6.94-6.18-14.03-9.25-21.06-2.93-6.73-3.49-14.01-4.97-21.08-.46-2.22.05-6.14-3.31-6.01-3.49.14-2.3,4.05-2.75,6.28-3.98,19.59-7.23,39.36-11.78,58.81-3.72,15.88-10.45,30.6-22.14,42.57-4.24,4.34-8.98,7.75-14.8,9.68-2.89.96-4.71.32-6.28-2.31-3.39-5.65-4.8-11.77-4.96-18.27-.35-14.1,2.66-27.5,8.59-40.23,6.3-13.53,14.05-26.26,21.57-39.12,4.08-6.97,7.55-14.31,12.27-20.91.83-1.16,1.82-2.62.41-4.01-1.42-1.4-2.79-.37-3.96.53-3.04,2.33-5.87,4.94-9.03,7.09-19.05,12.99-38.99,23.56-63.01,23.07-6.9-.14-13.56-1.3-19.97-3.72-6.23-2.35-7.45-5.84-3.93-11.38,4.18-6.56,9.49-11.94,16.78-15.21,13.98-6.28,27.92-12.38,42.98-16.08,13.59-3.34,26.67-8.76,39.98-13.26.65-.31,1.09-.13,1.33.55-3.16,2.88-6.71,5.21-10.38,7.38-11.93,7.06-24.22,13.5-36.73,19.4-12.52,5.9-25.58,10.58-39.27,13.17-.21.04-.43.04-.63.08-1.89.35-4.43.59-3.94,3.1.5,2.55,3.03,1.68,4.85,1.38,2.73-.45,5.52-.76,8.14-1.59,13.8-4.4,27.68-8.59,40.44-15.69,5.58-3.11,11.38-5.82,17-8.87,7.65-4.16,15.32-8.28,22.81-13.93.66,3.51,1.11,6.53,1.81,9.48.75,3.13,2.51,5.85,3.99,8.68.89,1.72-.35,3.3-.91,4.85-9.06,25.05-18.16,50.09-27.24,75.14-.65,1.79-1.71,3.47-1.61,5.47.04.89.4,1.62,1.27,2.02,1.18.54,2.14.08,2.7-.89.64-1.09,1.05-2.32,1.51-3.51,9.65-25.06,19.37-50.09,28.87-75.2,1.32-3.48,3-5.7,6.7-6.74,4.81-1.35,8.22-5.12,12.26-8.49,3.65,16.25,10.41,31,16.39,46.02,5.85,14.71,13.78,28.33,23.35,40.95,1.33,1.75,2.86,5.56,5.72,3.09,2.31-2-.78-4.1-2.13-5.79-7.66-9.53-13.57-20.21-18.75-31.14-6.93-14.62-12.67-29.8-17.76-45.19-.4-1.2-.57-2.48-.84-3.71-.25-.52-.38-1.06-.43-1.63-.18-.34-.21-.69-.1-1.06-.18-.84.13-1.42.92-1.73.52.92,1.04,1.85,1.56,2.77.42.33.65.76.71,1.3Z"/>
        <path class="cls-6" d="M150.45,79.34c-.91-1.92-1.62-3.97-2.78-5.72-2.16-3.24-.43-6.11.45-9.11.31-1.07.27-2.22-.96-2.68-1.56-.58-2.37.52-2.87,1.75-1.1,2.77-2.02,5.61-3.17,8.36-3.18,7.6-8.34,13.17-16.27,16.05-2.81,1.02-4.19.23-5.55-2.26-4.84-8.83-3.32-17.67-.42-26.56.46-1.4,1.33-2.67,1.79-4.08.39-1.18.68-2.65-.81-3.33-1.49-.67-2.74.36-2.95,1.57-1.02,5.91-6.28,6.97-10.36,9.39-.73.44-1.58.6-2.4.07,2.66-8.78,16.57-23.26,24.86-25.85.61-.19,1.24-.48,1.85-.44,7.02.39,10.26-3.58,12.09-9.8,1.5-5.09,3.56-10.03,5.55-14.97.74-1.82.86-4.28,3.86-4.92.25,3.36-.55,6.33-1.64,9.27-1.92,5.19-3.67,10.45-5.74,15.58-1.53,3.8-1.28,6.88,2.01,9.69,3.19,2.72,4.83,6.42,5.58,10.51,1.53,8.42,2.09,16.86.37,25.33.06,1.74-.25,3.05-2.48,2.15Z"/>
        <path class="cls-1" d="M150.45,79.34c1.34-.13,1.89-1.17,2.48-2.15.09.79.36,1.61.22,2.36-.14.73-.69,1.95-1.08,1.96-1.22.02-1.46-1.14-1.62-2.16Z"/>
        <path class="cls-4" d="M145.04,79.84c-.26-.24-.51-.49-.77-.73.24-.11.48-.21.72-.32-.01.36-.03.73-.04,1.09l.09-.04Z"/>
      </g>
      <g>
        <path class="cls-3" d="M194.19,189.51s0,0,0,0c0,0,0,.01-.01.02l.02-.02Z"/>
        <path class="cls-3" d="M83.65,69.66l-.18-.27.11.26s.04,0,.06.01c0,0,0,0,0,0Z"/>
        <path class="cls-3" d="M72.6,73.76l-.19-.3.12.29s.04,0,.06.01c0,0,0,0,0,0Z"/>
        <path class="cls-3" d="M60.29,77.33l-.16-.27.11.27s.03,0,.04,0c0,0,0,0,.01-.01Z"/>
        <path class="cls-3" d="M10.96,99.75c-1.26.3-1.59,1.52-2.29,2.37l-.04.43-.41.14c-.96.62-1.39,1.69-2.08,2.54l-.02.45-.41.17c-1.42.78-1.29,2.66-2.53,3.56.11.42-.05.68-.47.79-1.44,1.27-1.95,2.89-1.83,4.76.22.38.17.72-.17,1.01.23,1.01-.37,2.08.23,3.06l-.02-.07c.09.6.41,1.12.58,1.69l.04.11c.28.49.53,1,.75,1.52l.05.07c.26.62.56,1.21,1.15,1.59.42,0,.67.19.75.61.84,1.23,2.62,1.1,3.43,2.36,2.01.26,3.86.95,5.55,2.07,2.8-.36,4.96,2.06,7.74,1.8.72.16,1.44.32,2.16.47,1.02-.05,2.01.28,3.03.2.71.11,1.41.23,2.12.34,1.07,0,2.14.41,3.22.07l.4-.21.37.25c.69.22,1.33-.05,1.99-.19.41-.24.81-.21,1.18.09.96-.29,1.97.29,2.91-.17h.1c.88-.47,1.85.15,2.74-.24h.17c.84-.6,1.82.13,2.68-.27l.36-.24.38.22c.75.25,1.43-.03,2.1-.32h.16c.83-.58,1.86.13,2.7-.42h.04c.86-.43,1.95.29,2.73-.52.65.13,1.16-.24,1.71-.47l.09-.02c.79-.53,1.95.27,2.63-.69.71.24,1.24-.09,1.73-.55.64,0,1.17-.31,1.68-.64h0c.55-.2,1.1-.41,1.63-.65l.1-.04c.49-.27,1.01-.48,1.54-.63l.17-.07c.45-.32.94-.53,1.48-.65l.19-.09c.43-.34.92-.55,1.45-.66l.2-.09c.43-.34.92-.56,1.45-.69l.15-.08c.46-.31.96-.55,1.49-.73l.12-.05c.49-.28,1-.53,1.53-.74l.08-.04c.51-.26,1.03-.51,1.56-.75l.06-.03c.53-.24,1.06-.49,1.58-.74l.05-.02c.54-.23,1.07-.48,1.6-.74l.04-.02c.54-.23,1.08-.47,1.6-.73l.04-.02c.54-.23,1.08-.48,1.6-.75l.03-.02c.55-.22,1.09-.47,1.61-.77h.01c.58-.19,1.13-.43,1.62-.78.59-.15,1.15-.38,1.62-.8.63-.11,1.19-.34,1.61-.84.68-.03,1.26-.24,1.58-.9,1.1.12,1.26-1.33,2.25-1.41l.15-.11c.48-.33.97-.62,1.48-.89h0c.45-.21.91-.25,1.37-.12.72,1.85-.36,3.17-1.4,4.49-.03.43-.25.74-.64.92-1.6,1.19-1.29,3.55-2.89,4.75.13.43-.01.7-.44.83-2.06,1.36-1.39,4.35-3.42,5.72.09.47-.09.81-.53,1.01-1.89,1.57-1.52,4.41-3.37,6-.33.65-.66,1.29-.98,1.93-1.56,1.3-1.43,3.6-2.91,4.95-.32.6-.64,1.2-.95,1.8-1.85,1.58-1.48,4.4-3.34,5.98-.31.66-.62,1.32-.94,1.98-4.01,8.05-7.02,16.47-9.42,25.13-.19.74-.38,1.48-.58,2.22.47,1.94-1.3,3.49-.9,5.42.2.45.12.84-.24,1.17.61,1.42-.76,2.66-.37,4.05.23.41.18.79-.15,1.12.57,1.43-.96,2.76-.2,4.2v-.05c.69,1.37-1.01,2.72-.04,4.09.18.94-.26,1.9.11,2.84v.05c.53.89-.1,1.88.27,2.79v.09c.6.85-.09,1.88.39,2.75v.03c.5.85-.21,1.94.53,2.74-.06.64.29,1.16.52,1.71v.05c.27.5.46,1.02.56,1.58l.07.22c.77,2.24,1.65,4.43,3.04,6.37l.08.12c.27.52.57,1.03.9,1.52l-.02-.04c.21,1.02,1.49,1.16,1.76,2.12l.11.09c1.23,1.44,2.87,1.88,4.68,1.87.39-.2.76-.16,1.11.12.61-.01,1.16-.31,1.75-.39l.26-.04c.71-.72,1.84.08,2.53-.68.66.03,1.2-.25,1.7-.65.61-.09,1.16-.35,1.65-.72.6-.13,1.15-.37,1.63-.77.62-.12,1.18-.35,1.6-.84.69-.04,1.29-.23,1.54-.96,1.22.13,1.39-1.26,2.25-1.64l-.03.02c1.01-.25,1.16-1.52,2.15-1.79l.06-.06c.88-.41,1.03-1.61,2.04-1.88l.06-.07c.88-.48,1.1-1.6,2.01-2.03h-.01c1.04-.5,1.41-1.61,2.13-2.4-.07-.41.1-.64.52-.68.92-.59,1.26-1.67,2.01-2.4-.07-.43.11-.68.54-.75.9-.68,1.36-1.71,2.03-2.57v-.44s.4-.17.4-.17c1.81-1.02,1.31-3.53,3-4.63-.11-.45.05-.76.49-.91,2.18-1.96,1.8-5.28,3.88-7.3.23-1.57.88-2.96,1.81-4.23,2.11-3.3,3.49-6.88,3.99-10.78,0-1.15.25-2.23.96-3.17-.15-3.32,2.52-5.93,2.31-9.26-.15-.71-.06-1.35.46-1.9-.21-2.01,1.36-3.7,1.04-5.73-.15-.72-.07-1.38.46-1.94-.26-2.46,1.81-4.44,1.43-6.92-.22-.42-.14-.77.24-1.06-.57-2.38,1.77-4.21,1.23-6.58-.23-.41-.15-.75.22-1.03-.57-2.39,1.88-4.24,1.18-6.65l-.16-.46.33-.35c-.05-2.09.71-3.97,1.84-5.64,1.5-2.21.88,1.05,1.71.75-.11.69.23,1.24.59,1.77.12.58.41,1.1.61,1.65l.03.09c.28.48.47,1,.59,1.54l.07.21c.89,1.23.35,3.03,1.62,4.1-.3.79-.03,1.34.71,1.68-.23.76.03,1.31.73,1.65-.2.75.05,1.3.75,1.64-.2.75.06,1.3.75,1.64-.2.75.06,1.3.74,1.65-.18.74.08,1.28.73,1.66-.15.72.12,1.26.71,1.66-.1.7.16,1.24.71,1.66-.05.68.21,1.22.72,1.66,0,.67.25,1.21.75,1.64,0,.67.24,1.22.77,1.63-.02.69.21,1.24.81,1.62-.08.73.13,1.3.87,1.59-.21,1.14,1.28,1.29,1.37,2.26l.12.16c.31.48.6.97.87,1.46v.02c.21.59.36,1.2.97,1.54.03,1.11,1.36,1.26,1.65,2.18l.06.07c.26.65.57,1.26,1.21,1.61.43.01.64.23.65.66.31.45.63.89.98,1.31.18,1.12,1.41,1.3,1.9,2.15h0c.3,1.08,1.51,1.28,2.06,2.13.48.03.78.28.91.74.41.44.65,1.02,1.18,1.36.45,0,.71.22.79.66.39.57.71,1.21,1.41,1.49l.43.06.14.42c.46.94,1.62,1.13,2.15,2,.48,0,.8.23.98.67.56.79,1.63,1,2.13,1.86.48-.02.82.19,1.03.63.78,1.24,2.6,1.02,3.32,2.35.74.38,1.48.76,2.22,1.14,1.67,1.67,4.37,1.44,5.98,3.21,2.31.4,4.47,1.21,6.48,2.4,1.47-.33,2.81,1.01,4.31.36h.06c.84-.45,1.94.28,2.7-.55.7.09,1.25-.16,1.63-.76,1.13-.04,1.32-1.34,2.2-1.72,2.26-2.76,3.27-6,3.66-9.48-.25-.36-.2-.67.15-.94-.41-1.47,1.05-2.83.26-4.33v.07c-.66-1.34,1.11-2.72-.04-4.06-.04-.96.47-1.96-.25-2.86-.16-.91.44-1.95-.41-2.75.17-.66-.17-1.2-.44-1.75v-.03c-.51-.81.3-1.98-.7-2.65.26-.74-.03-1.27-.63-1.7.1-.69-.17-1.23-.69-1.67.02-.67-.24-1.21-.73-1.66-.02-.66-.26-1.21-.77-1.64,0-.67-.25-1.22-.79-1.63.04-.68-.21-1.23-.77-1.64.05-.69-.2-1.24-.76-1.64.06-.69-.19-1.24-.77-1.64.08-.7-.18-1.24-.75-1.65.07-.69-.19-1.24-.74-1.65.05-.69-.2-1.23-.75-1.65.04-.68-.21-1.23-.75-1.64.04-.68-.21-1.23-.76-1.64.04-.69-.2-1.24-.78-1.63.07-.7-.17-1.26-.78-1.63.11-.74-.13-1.3-.83-1.64-.6-2.06-1.94-3.71-3.07-5.48l-.04-.07c-.23-.56-.41-1.15-.92-1.54-.5-1.48-1.72-2.49-2.55-3.75l-.02-.04c-.19-.6-.37-1.21-1.01-1.49.05-1.18-1.3-1.33-1.66-2.2l-.03-.04c-.19-.6-.37-1.22-1.03-1.48.09-1.19-1.29-1.33-1.62-2.22l-.04-.06c-.21-.58-.37-1.19-.97-1.52-.34-1.55-1.74-2.44-2.37-3.81l-.07-.11c-.25-.52-.52-1.03-.81-1.53v-.03c-.19-.58-.4-1.14-.83-1.59-.09-.64-.32-1.2-.85-1.61.02-.71-.21-1.28-.88-1.62-.66-2.04-1.92-3.74-3.14-5.46l-.02-.04c-.19-.59-.36-1.2-.93-1.56-.41-1.53-1.72-2.47-2.46-3.79l-.04-.07c-.23-.57-.39-1.17-.95-1.54-.42-1.43-1.68-2.37-2.2-3.75-.23-1.29.24-2.39.9-3.45-.48-2.39,1.76-4.25,1.3-6.63-.24-.4-.18-.74.19-1.02-.46-1.46.89-2.76.38-4.23-.26-.35-.22-.65.12-.91-.11-1.04.35-2.07.04-3.11-.28-.32-.25-.62.07-.9-.08-1.06.39-2.12-.06-3.17h0c-.8-1.29,1.07-2.7-.14-3.98-.02-.96.5-1.97-.25-2.86-.11-.94.46-1.97-.33-2.83-.11-.92.53-1.97-.43-2.74.28-.68-.1-1.23-.4-1.78h0c-.46-.83.34-2-.67-2.68.28-.74-.03-1.27-.61-1.71.07-.69-.19-1.23-.71-1.66,0-.69-.23-1.26-.84-1.64-.42-1.56-1.51-2.65-2.66-3.69v.02c-2.63-2.44-2.87-5.02-1.55-8.48,2.65-6.93,5.89-13.67,7.39-21.01-.2-.44-.12-.81.25-1.13-.06-2.36.33-4.89-2.33-6.29l-.41.05-.18-.38c-.51-1.06-1.25-1.41-2.32-.76v-.02c-.93.25-1.94-.35-2.83.28-.65.09-1.24.31-1.6.91-2.15,1.02-1.98,3.38-2.77,5.14-2.4,5.3-3.51,11.14-6.62,16.16-.32,2.01-1.16,3.8-2.27,5.48-.88.48-1.08,1.58-1.93,2.1h-.04c-.92.32-1.92-.27-2.83.25h-.07c-.88.43-1.93-.26-2.77.41-.57.12-1.12.3-1.64.55l-.12.04c-1.79.38-3.41,1.12-4.84,2.26l-.05.03c-.55.25-1.14.42-1.53.92-1.05.13-1.21,1.44-2.18,1.67l-.07.06c-.5.33-1.15.46-1.44,1.06-1.15.11-1.39,1.25-2.08,1.89-1.15.16-1.4,1.28-2.08,1.95-1.28.31-1.62,1.52-2.31,2.4l-.05.41-.4.1c-.93.47-1.15,1.58-1.99,2.13l.06-.06c-1.61.43-1.21,2.54-2.63,3.13l.03-.03c-1.51.64-1.28,2.6-2.59,3.4.07.45-.11.73-.54.87-1.29.94-1.35,2.7-2.48,3.74-.32.6-.64,1.2-.96,1.8-1.83,1.51-1.44,4.25-3.2,5.79-.67-.01-1.21.27-1.71.68h0c-1.48.36-3.1.22-4.37,1.27-.7-.2-1.25.13-1.77.53h0c-1.46.4-3.11.18-4.33,1.33h0s0,0-.02,0c-.01.01-.03.02-.04.03l-.02-.05c-.7-.23-1.23.08-1.67.6-.67-.07-1.2.25-1.71.62-.57.16-1.11.38-1.64.64l-.09.03c-1.99.65-4.13.91-5.87,2.22h0s0,0,0,0c-.01.01-.03.02-.05.03l-.02-.05c-.73-.26-1.25.04-1.66.63-.68-.12-1.22.19-1.73.6-.56.14-1.11.32-1.64.57l-.14.04c-.78.55-1.93-.25-2.61.67-.67-.21-1.21.14-1.74.46h-.05c-.84.44-1.96-.34-2.67.61v.02s0,0-.01,0c0,.01-.02.02-.03.03v-.04c-.67-.22-1.19.12-1.72.43h-.06c-.83.46-1.97-.33-2.67.64-.7-.25-1.24.1-1.77.49h0c-1.46.39-3.09.23-4.36,1.28-.71-.19-1.25.12-1.73.61-.65-.02-1.18.29-1.69.65-.57.17-1.11.39-1.64.67l-.07.03c-.52.22-1.04.45-1.57.67l-.11.05c-8.46,3.18-16.7,6.83-24.57,11.31l-.04.03c-.56.24-1.16.42-1.57.93-1.45.59-2.6,1.58-3.64,2.72-1.15.16-1.4,1.29-2.09,1.94Z"/>
      </g>
    </g>
  </g>
</svg>