<?xml version="1.0" encoding="UTF-8"?>
<svg id="Layer_2" data-name="Layer 2" xmlns="http://www.w3.org/2000/svg" viewBox="0 0 165.05 169.55">
  <defs>
    <style>
      .cls-1 {
        fill: #a7d9c4;
      }

      .cls-2 {
        fill: #080808;
      }
    </style>
  </defs>
  <g id="Layer_6" data-name="Layer 6">
    <g>
      <path class="cls-2" d="M108.28,135.63c4.66,4.74,8.07,10.15,10.51,16.38,4.37,11.14,18.25,21.24,32.6,16.21,14.3-5.01,18.01-18.47,8.07-29.96-2.68-3.1-5.73-5.88-8.49-8.91-4.98-5.47-6.52-11.56-3.17-18.53,1.52-3.16,2.03-6.57,1.53-10.07-1.63-11.31-5.84-21.19-15.63-27.94-.26-.18-.52-.36-.58-.41-7.12-4.25-14.59-6-21.85-8.31-5.51-1.76-11.04-3.51-16.3-5.94-3.93-1.82-5.34-4.33-3.68-8.05,4.75-10.7,1.25-19.24-6.47-26.81-5.91-5.8-12.18-11.12-20.01-14.23-3.31-1.32-6.78-2.03-10.32-1.88-13.12.53-25.84-2.03-38.55-4.78C11.94,1.52,7.89.88,3.86.12,2.55-.12,1.38-.11.52,1.17-.32,2.42-.05,3.52.7,4.67c1.28,1.94,1.21,4.11,1.1,6.33-.32,6.36-1.42,12.68-.73,19.09,1.34,12.39,7.59,21.82,17.16,29.41,4.76,3.77,10.09,6.38,15.81,8.2,16.64,5.29,21.69,14.12,21.02,31.55-.2,5.13-.57,10.18,1.35,15.17,4.94,12.82,16.64,19.48,30.14,16.9,1.32-.25,2.66-.48,3.94-.89,7.11-2.25,12.81.15,17.79,5.22ZM86.32,127.66c-15.88,3.22-29.02-8.34-27.83-24.51.35-4.71.54-9.42-.19-14.09-1.1-6.99-3.59-13.39-9.4-17.84-4.09-3.13-8.77-5.31-13.69-6.92-5.72-1.88-11.07-4.47-15.7-8.38-6.63-5.6-11.7-12.2-13.89-20.81-2.16-8.49-.64-16.88-.01-25.7,10.01,8.04,19.72,15.69,29.26,23.54,18.29,15.05,35.38,31.25,48.64,51.09.56.84,1.15,1.67,2.1,2.12.82.39,1.62.53,2.27-.31.52-.68.53-1.34.02-2.08-2.46-3.49-4.72-7.15-7.38-10.49-9.21-11.58-19.52-22.17-30.42-32.14-11.17-10.23-23.35-19.27-35.12-28.8-3.1-2.51-6.45-4.76-9.33-8.26,2.96.56,5.44.95,7.89,1.49,13.71,3.03,27.45,5.75,41.61,5.25,3.92-.14,7.63,1.04,11.15,2.76,7.48,3.66,13.46,9.21,18.79,15.41,4.56,5.3,6.31,11.41,3.38,18.25-.4.92-.71,1.89-.98,2.86-1.17,4.28.09,7.65,3.86,9.96,1.79,1.09,3.69,2.04,5.63,2.83,8.65,3.52,17.7,5.85,26.53,8.83,8.42,2.84,14.76,8.12,18.39,16.17,3.56,7.87,6,16.02,1.43,24.47-.2.36-.26.8-.36,1.2-1.95,7.81,1.24,13.95,6.38,19.42,2.47,2.63,5.18,5.06,7.53,7.79,5.03,5.83,5.99,12.36,2.54,17.36-3.15,4.57-7.8,6.83-13.17,7.57-10.69,1.47-20.36-5.83-24.08-15.03-2.66-6.59-6.21-12.42-11.19-17.45-5.93-6-12.72-8.97-21.22-6.38-1.12.34-2.29.54-3.45.78Z"/>
      <path class="cls-1" d="M58.49,103.15c.35-4.71.54-9.42-.19-14.09-1.1-6.99-3.59-13.39-9.4-17.84-4.09-3.13-8.77-5.31-13.69-6.92-5.72-1.88-11.07-4.47-15.7-8.38-6.63-5.6-11.7-12.2-13.89-20.81-2.16-8.49-.64-16.88-.01-25.7,10.01,8.04,19.72,15.69,29.26,23.54,18.29,15.05,35.38,31.25,48.64,51.09.56.84,1.15,1.67,2.1,2.12.82.39,1.62.53,2.27-.31.52-.68.53-1.34.02-2.08-2.46-3.49-4.72-7.15-7.38-10.49-9.21-11.58-19.52-22.17-30.42-32.14-11.17-10.23-23.35-19.27-35.12-28.8-3.1-2.51-6.45-4.76-9.33-8.26,2.96.56,5.44.95,7.89,1.49,13.71,3.03,27.45,5.75,41.61,5.25,3.92-.14,7.63,1.04,11.15,2.76,7.48,3.66,13.46,9.21,18.79,15.41,4.56,5.3,6.31,11.41,3.38,18.25-.4.92-.71,1.89-.98,2.86-1.17,4.28.09,7.65,3.86,9.96,1.79,1.09,3.69,2.04,5.63,2.83,8.65,3.52,17.7,5.85,26.53,8.83,8.42,2.84,14.76,8.12,18.39,16.17,3.56,7.87,6,16.02,1.43,24.47-.2.36-.26.8-.36,1.2-1.95,7.81,1.24,13.95,6.38,19.42,2.47,2.63,5.18,5.06,7.53,7.79,5.03,5.83,5.99,12.36,2.54,17.36-3.15,4.57-7.8,6.83-13.17,7.57-10.69,1.47-20.36-5.83-24.08-15.03-2.66-6.59-6.21-12.42-11.19-17.45-5.93-6-12.72-8.97-21.22-6.38-1.12.34-2.29.54-3.45.78-15.88,3.22-29.02-8.34-27.83-24.51Z"/>
    </g>
  </g>
</svg>