<?xml version="1.0" encoding="UTF-8"?>
<svg id="Layer_2" data-name="Layer 2" xmlns="http://www.w3.org/2000/svg" viewBox="0 0 238.14 240.23">
  <defs>
    <style>
      .cls-1 {
        fill: #d77f3d;
      }

      .cls-2 {
        fill: #f7f8f8;
      }

      .cls-3 {
        fill: none;
        stroke: #010101;
        stroke-linecap: round;
        stroke-linejoin: round;
        stroke-width: 1.32px;
      }

      .cls-4 {
        fill: #080808;
      }
    </style>
  </defs>
  <g id="Layer_6" data-name="Layer 6">
    <g>
      <g>
        <path class="cls-4" d="M18.05,183.43c2.33,4.08,6.29,4.82,10.64,4.64,12.4-.52,23.22-5.03,32.85-12.69,1.99-1.58,4.03-3.09,6.21-4.75.16,1.04-.43,1.35-.74,1.77-4.78,6.47-9.15,13.21-12.57,20.48-3.61,7.68-5.45,15.66-2.65,24.05,2.7,8.09,7.97,10.79,15.75,7.46,12-5.12,20.1-14.42,25.8-25.9,2.11-4.24,3.85-8.66,5.76-13,.21.95.1,1.78.03,2.61-.73,8.93-1.54,17.85-.16,26.8,1.24,8.03,4.26,15.13,10.6,20.44,3.53,2.95,7.7,5.2,12.33,3.77,3.76-1.16,7.04-3.56,9.75-6.71,5.95-6.94,7.78-15.23,8.2-23.96.37-7.66-.21-15.32-.97-22.98,1.08,2.07,2.15,4.13,2.94,6.29,3.55,9.8,9.21,18.12,16.95,25.09,4.29,3.85,8.88,7.07,14.59,8.44,5.31,1.27,9.1-.39,11.65-5.28,3.18-6.1,3.37-12.5,1.63-19.02-2.7-10.12-8.51-18.61-14.38-27.05-.67-.96-1.35-1.91-2.02-2.86,3.63,2.15,6.84,4.67,10.17,7.03,9.04,6.42,19.14,9.74,30.23,9.98,5.36.11,9.23-2.43,10.52-6.81,1.07-3.64.87-7.2-1.45-10.29-6.65-8.86-14.24-16.71-24.6-21.25-6.08-2.67-11.9-5.85-17.78-8.93,7.1,1.78,14.14,3.83,21.34,5.15,8.25,1.51,16.52,2.8,24.94,1.23,5.12-.96,9.57-3.01,12.33-7.7,2.04-3.46,2.15-6.9-.11-10.37-2.6-4-6.25-6.43-10.81-7.57-1.95-.49-3.9-.92-5.86-1.38,3.84-1.03,7.67-1.65,10.96-3.71,3.93-2.47,7.32-5.61,7.28-10.68-.03-5.24-3.28-8.59-7.67-10.89-3.87-2.03-8.11-2.54-12.4-2.66-8.78-.24-17.32,1.42-25.8,3.46-4.74,1.14-9.45,2.41-14.17,3.62,5.38-2.94,10.7-5.95,16.3-8.27,10.68-4.44,18.44-12.26,25.44-21.03,3.2-4.01,3.64-8.57,1.15-13.14-2.44-4.49-6.67-5.1-11.26-4.85-12.2.65-22.87,5.14-32.35,12.7-1.98,1.58-4.01,3.1-6.02,4.65.35-1.36,1.06-2.33,1.75-3.33,5.86-8.45,11.67-16.94,14.34-27.07,1.72-6.52,1.47-12.93-1.72-19.02-2.31-4.42-6.06-6.35-10.51-5.43-3.12.64-6.19,1.64-8.81,3.47-9.19,6.43-16.87,14.21-21.36,24.73-1.71,4-3.49,7.97-5.24,11.95-.22-.94-.09-1.77-.02-2.59.7-8.93,1.56-17.85.19-26.8-1.25-8.12-4.28-15.3-10.75-20.62-2.47-2.04-5.26-3.76-8.66-3.95-4.5-.26-8,2.01-11.1,4.81-7.61,6.89-9.88,16.07-10.39,25.81-.4,7.75.17,15.5.95,23.25-.73-1.31-1.4-2.62-1.93-3.99-3.97-10.35-9.28-19.78-17.78-27.2-4.33-3.79-8.84-7.12-14.55-8.52-5.54-1.36-9.19.19-11.87,5.25-3.18,6.01-3.37,12.35-1.7,18.78,2.66,10.23,8.55,18.77,14.47,27.3.66.96,1.36,1.89,2.05,2.84-2.45-1.24-4.51-2.79-6.53-4.39-9.86-7.83-20.96-12.32-33.64-12.65-4.12-.11-7.69.98-9.82,4.78-2.21,3.95-2.38,8.17.23,11.89,5.98,8.52,13.2,15.92,22.61,20.59,6.71,3.33,13.5,6.51,20.14,9.98-.39.24-.74,0-1.13-.1-10.07-2.79-20.16-5.52-30.6-6.56-7.03-.7-14.1-.93-20.67,2.31-4.61,2.28-8,5.79-7.76,11.3.23,5.21,3.83,8.35,8.04,10.73,3.1,1.75,6.67,2.23,10.25,2.9-.56.92-1.31.69-1.91.81-3.45.69-6.97,1.36-9.86,3.45-7.38,5.36-8.9,11.62-3.21,17.95,1.82,2.03,4.14,3.37,6.73,4.21,6.1,1.97,12.35,1.95,18.64,1.28,10.66-1.14,20.96-3.94,31.33-6.67-5.73,3.02-11.41,6.21-17.39,8.78-10.5,4.51-18.17,12.39-24.87,21.31-2.93,3.9-2.89,8.33-.5,12.52ZM88.75,199.48c-5.2,9.61-12.45,17.64-23.05,21.74-5.35,2.07-8,.7-10.2-4.63-1.14-2.75-1.39-5.65-1.57-8.21.34-5.7,1.95-10.71,4.42-15.38,8.06-15.23,18.34-28.76,31.48-40,3.14-2.68,5.73-5.87,8.54-8.87.81-.86,1.33-1.1,2.13-.07.61.79,1.8,1.28.44,2.52-2.3,2.07-4.34,4.42-6.82,6.31-.99.76-1.85,1.73-.89,2.95.93,1.18,2.09.67,3.1-.1,2.54-1.94,4.69-4.29,7.01-6.48.55-.52.85-1.72,2.17-.91,1.12.69,1.11,1.51.88,2.54-1.41,6.28-3.3,12.4-5.32,18.51-3.42,10.31-7.15,20.55-12.3,30.06ZM136.44,206.6c-.22,8.23-1.52,16.38-7.21,23.01-1.69,1.97-3.45,3.83-5.96,4.87-4.57,1.89-8.5.78-11.99-2.37-5.29-4.76-7.62-10.98-8.81-17.83-1.67-9.64-.24-19.18.52-28.76.88-11.11,4.18-21.56,8.33-31.82.8-1.99,1.91-2,3.63-1.85,2.06.18,1.76,1.61,1.87,2.86.13,1.5.16,3.01.21,3.95,0,1.98.05,3.41-.01,4.83-.07,1.5.67,2.23,2.06,2.23,1.39,0,2.18-.72,2.07-2.22-.22-3.02.04-6.03.22-9.03.08-1.23-.03-2.52,1.84-2.61,1.53-.07,2.81-.42,3.54,1.63,2.99,8.4,6.45,16.61,7.57,25.61,1.14,9.15,2.38,18.3,2.13,27.5ZM171.8,179.5c4.96,7.74,10.05,15.41,11.91,24.65,1.04,5.19.43,10.16-2.24,14.77-1.34,2.32-2.89,3.23-5.46,3.25-5.24-.71-9.86-3.56-14.06-7.3-7.43-6.62-12.81-14.53-16.57-23.82-5.23-12.92-10.25-25.86-13.4-39.47-.09-.41-.2-.81-.3-1.21-.22-.97.31-1.49,1.05-2.02.98-.71,1.32.13,1.82.59,2.32,2.17,4.61,4.39,6.96,6.53,1.02.93,2.36,1.8,3.46.34.99-1.31-.17-2.22-1.15-3.1-2.24-2.01-4.37-4.15-6.62-6.16-1.2-1.07-.34-1.6.35-2.33.7-.73,1.14-1.25,2.14-.2,11,11.56,23.39,21.86,32.12,35.48ZM182.57,147.7c3.66,1.81,7.31,3.64,11.04,5.3,9.63,4.29,16.64,11.63,22.95,19.74,2.07,2.66,2.19,5.75.56,8.72-1.56,2.83-4.29,3.15-7.18,3.01-2.59-.13-5.17-.32-7.73-.81-9.43-1.79-17.41-6.43-24.91-12.23-7.3-5.64-14.38-11.48-20.52-18.41-1.77-1.99-3.86-3.71-5.85-5.5-2.38-2.14-4.4-4.56-5.87-7.56,2.93,1.71,5.85,3.45,8.8,5.12,1.09.61,2.43,1.38,3.32-.09.97-1.6-.37-2.37-1.57-3.09-3.57-2.13-7.34-3.93-10.58-6.53.29-.83.86-.79,1.47-.67,12.71,2.42,24.54,7.28,36.07,12.99ZM205.89,122.26c6.18.22,12.31,1.24,18.32,2.8,3.91,1.01,6.96,3.15,8.98,6.69.89,1.57.93,3.1.19,4.78-1.66,3.79-4.76,5.65-8.55,6.69-7.58,2.08-15.11.98-22.65-.27-12.15-2.01-23.78-6.04-35.67-9.07-6.13-1.56-12.13-3.83-18.64-4.03.08-2.52,1.07-3.02,3.2-2.36,2.25.69,4.4,1.53,6.46,2.63,1.06.57,2.16.82,2.8-.47.58-1.17-.02-2.04-1.12-2.68-2.63-1.52-5.42-2.57-8.39-3.18-.6-.12-1.7.18-1.56-1.08.12-1.11,1.02-.65,1.57-.65,18.35.14,36.71-.45,55.06.2ZM213.8,95.72c4.68-.3,9.35.21,13.73,2.12,3.53,1.54,6.31,4.09,6.3,7.99-.01,3.55-2.73,6.06-5.79,7.63-5.31,2.73-11.22,3.23-17.01,3.86-12.1,1.3-24.25.69-36.38.71-7.87.01-15.74.02-23.62-.02-.61,0-1.64.54-1.77-.69-.13-1.25,1.01-.9,1.6-1.04,2.86-.66,5.6-1.59,8.15-3.07,1.16-.67,1.96-1.5,1.3-2.8-.73-1.42-1.97-.97-3.03-.35-1.96,1.14-4.08,1.85-6.24,2.51-2.07.64-3.16.22-3.12-2.18,9.47-1.2,18.47-4.07,27.5-6.66,12.61-3.61,25.21-7.17,38.37-8.01ZM179.48,66.92c9.32-6.61,19.17-11.06,30.72-11.33,2.82-.07,5.44.29,6.92,3.03,1.56,2.88,1.52,5.84-.45,8.51-5.57,7.54-11.94,14.46-20.43,18.57-8.02,3.88-15.77,8.38-24.13,11.54-8.26,3.13-16.36,6.77-25.24,7.96-.62.08-1.41.64-1.7-.29-.23-.71.68-.84,1.1-1.11,3.11-1.95,6.25-3.86,9.42-5.72,1.16-.68,2.34-1.41,1.56-2.89-.81-1.54-2.15-.9-3.27-.27-2.97,1.68-5.91,3.41-9.52,5.5,1.52-2.47,2.74-4.28,4.32-5.76,10.08-9.41,19.34-19.69,30.7-27.75ZM148.89,41.52c5.06-9.87,12.41-17.86,22.78-22.43,6.06-2.67,9.33-.88,11.37,5.46.75,2.34.97,4.74,1.22,7.23-.48,5.94-2.36,11.52-5.24,16.78-8.12,14.81-18.28,28-31.2,38.96-2.96,2.51-5.35,5.54-7.97,8.36-.93,1-1.43.94-2.34,0-.88-.92-1.33-1.49-.14-2.53,2.2-1.93,4.25-4.04,6.44-5.99.99-.88,2.14-1.79,1.14-3.1-1.11-1.46-2.44-.58-3.46.35-2.24,2.02-4.38,4.14-6.62,6.16-.57.51-.86,1.74-2.17.95-1.21-.73-1.16-1.68-.89-2.79,1.37-5.76,2.99-11.44,4.86-17.06,3.45-10.37,7.24-20.63,12.22-30.34ZM101.71,34.54c.16-8.57,1.41-16.95,7.13-24.01,6.29-7.76,14.17-7.77,20.52.02,4.51,5.54,6.09,12.04,6.78,18.81,1.05,10.39-.6,20.67-1.74,30.98-1.01,9.18-4.52,17.55-7.59,26.1-.75,2.08-2.05,1.87-3.69,1.77-1.94-.12-1.65-1.51-1.76-2.69-.13-1.5-.19-3.01-.26-4.1,0-1.75-.1-3.1.02-4.43.15-1.65-.41-2.72-2.11-2.68-1.74.04-2.01,1.23-1.99,2.81.04,3.01-.23,6.01-.28,9.03-.02,1.17-.28,2.02-1.6,1.99-1.27-.03-2.79.93-3.56-1.11-3.51-9.28-7.09-18.49-8.15-28.51-.85-7.99-1.89-15.98-1.74-24ZM69.97,65.62c-5.97-8.57-12.07-17.05-14.92-27.32-.31-1.12-.61-2.26-.81-3.41-.18-1.07-.21-2.16-.3-3.11.21-3.93.77-7.63,2.89-10.89,1.74-2.68,3.71-3.42,6.86-2.7,5.04,1.16,9.17,3.91,12.91,7.35,6.87,6.3,12.13,13.59,15.71,22.34,5.44,13.3,10.64,26.64,13.9,40.66.11.49.18.99.29,1.47.22.98-.57,1.27-1.14,1.73-.8.64-1.18-.08-1.63-.51-2.31-2.18-4.6-4.4-6.94-6.55-1.01-.93-2.31-1.89-3.49-.54-1.23,1.42.12,2.33,1.14,3.25,2.24,2.02,4.36,4.17,6.6,6.19,1.28,1.16.11,1.64-.49,2.31-.56.62-.98,1.31-1.93.27-9.4-10.32-20.58-18.97-28.65-30.55ZM55.87,92.47c-3.58-1.78-7.17-3.56-10.84-5.16-9.75-4.26-16.85-11.61-23.27-19.76-1.41-1.8-2.14-3.94-1.63-6.35.81-3.81,2.88-5.58,6.82-5.6,10.35-.05,19.81,2.99,28.19,8.92,8.94,6.34,17.79,12.85,25,21.25,3.54,4.14,8.28,7.09,11.49,11.56.58.81,1.15,1.62,1.72,2.43-.1.09-.21.17-.31.26-2.81-1.62-5.62-3.26-8.44-4.86-1.23-.69-2.68-1.75-3.67.06-.89,1.63.64,2.31,1.8,3.01,3.14,1.9,6.48,3.47,9.41,5.72.35.27,1.09.33.88.98-.27.8-.94.43-1.49.33-12.59-2.31-24.26-7.15-35.65-12.8ZM32.27,117.81c-6.19-.22-12.32-1.25-18.33-2.8-3.25-.84-6-2.46-8.02-5.23-2.19-2.98-2.25-5.17-.03-8.2,3.19-4.35,7.99-5.23,12.87-5.66,9.91-.88,19.48,1.32,28.96,3.73,11.79,3,23.5,6.31,35.24,9.49,2.35.64,4.74,1.01,7.28,1.05-.03,2.48-1.02,3.05-3.16,2.37-2.16-.69-4.27-1.39-6.24-2.53-1.08-.62-2.31-1.03-3.01.41-.64,1.32.21,2.12,1.36,2.79,2.56,1.48,5.3,2.41,8.17,3.05.6.14,1.71-.18,1.55,1.09-.14,1.09-1.03.64-1.58.63-18.35-.13-36.71.45-55.05-.2ZM92.42,119.86c.06-5.14,1.37-9.86,4.43-14.09,2.51-3.47,5.45-6.54,8.51-9.52,6.63-6.48,20.18-6.31,26.2-.96,5.34,4.75,10.6,9.63,12.86,16.65,2.55,7.91,1.71,15.5-3.19,22.44-2.42,3.43-5.34,6.41-8.33,9.35-6.73,6.6-20.28,6.43-26.41.96-5.26-4.7-10.3-9.58-12.75-16.45-.96-2.7-1.48-5.48-1.33-8.38ZM24.06,144.39c-4.51.27-9.02-.31-13.28-2.07-.08-.03-.15-.07-.23-.1-3.38-1.57-6.13-4-6.23-7.81-.09-3.64,2.68-6.05,5.65-7.73,4.38-2.48,9.4-2.83,14.25-3.61,8.72-1.41,17.54-1.07,26.32-1.14,12.07-.09,24.13.05,36.2.1.34,0,.67-.02,1.01,0,.46.03,1.02-.17,1.16.58.15.82-.33.95-.98,1.07-2.8.53-5.5,1.36-8.01,2.76-1.25.7-2.92,1.3-2.08,3.1.91,1.97,2.39.75,3.6.14,1.79-.9,3.66-1.56,5.57-2.17,2.23-.72,3.29-.15,3.2,2.11-10.62,1.6-20.79,4.85-31.05,7.77-11.51,3.28-23.09,6.28-35.1,7ZM21.55,172.86c5.73-7.63,12.17-14.71,20.92-18.77,8.62-4,16.8-8.91,25.79-12.14,7.53-2.7,14.86-6,22.89-7.05.63-.08,1.38-.68,1.78.11.45.9-.64,1.02-1.07,1.29-3.04,1.91-6.14,3.73-9.22,5.56-1.18.7-2.6,1.45-1.65,3.07.95,1.63,2.35.7,3.51.05,2.89-1.63,5.74-3.32,9.24-5.35-1.53,2.51-2.76,4.32-4.35,5.8-10.09,9.42-19.35,19.7-30.72,27.76-9.25,6.55-19.05,10.98-30.51,11.29-2.91.08-5.59-.25-7.13-3.11-1.57-2.91-1.43-5.88.54-8.5Z"/>
        <path class="cls-1" d="M106.5,144.69c6.13,5.47,19.67,5.64,26.41-.96,2.99-2.93,5.9-5.91,8.33-9.35,4.9-6.94,5.74-14.53,3.19-22.44-2.26-7.02-7.53-11.9-12.86-16.65-6.02-5.35-19.57-5.53-26.2.96-3.05,2.98-5.99,6.05-8.51,9.52-3.06,4.22-4.37,8.95-4.43,14.09-.15,2.89.37,5.68,1.33,8.38,2.44,6.87,7.49,11.75,12.75,16.45Z"/>
        <path class="cls-2" d="M111.6,87.04c.77,2.04,2.29,1.08,3.56,1.11,1.32.03,1.58-.83,1.6-1.99.05-3.01.31-6.02.28-9.03-.02-1.58.25-2.77,1.99-2.81,1.7-.04,2.27,1.03,2.11,2.68-.12,1.33-.02,2.68-.02,4.43.07,1.09.13,2.6.26,4.1.1,1.18-.19,2.57,1.76,2.69,1.63.1,2.94.31,3.69-1.77,3.07-8.55,6.58-16.92,7.59-26.1,1.13-10.31,2.78-20.59,1.74-30.98-.68-6.77-2.27-13.28-6.78-18.81-6.35-7.79-14.23-7.78-20.52-.02-5.72,7.07-6.97,15.45-7.13,24.01-.15,8.02.9,16.01,1.74,24,1.06,10.01,4.64,19.23,8.15,28.51Z"/>
        <path class="cls-2" d="M126.75,153.48c-.73-2.05-2.01-1.7-3.54-1.63-1.88.09-1.77,1.38-1.84,2.61-.19,3.01-.45,6.02-.22,9.03.11,1.5-.68,2.22-2.07,2.22-1.39,0-2.13-.74-2.06-2.23.07-1.42.01-2.85.01-4.83-.05-.94-.08-2.45-.21-3.95-.11-1.25.19-2.68-1.87-2.86-1.72-.15-2.82-.14-3.63,1.85-4.15,10.26-7.45,20.71-8.33,31.82-.76,9.58-2.19,19.12-.52,28.76,1.19,6.86,3.52,13.07,8.81,17.83,3.49,3.15,7.42,4.26,11.99,2.37,2.51-1.04,4.27-2.89,5.96-4.87,5.68-6.63,6.98-14.78,7.21-23.01.25-9.2-.98-18.36-2.12-27.5-1.13-9-4.59-17.21-7.57-25.61Z"/>
        <path class="cls-2" d="M131.81,88.92c-.27,1.12-.31,2.06.89,2.79,1.31.79,1.6-.43,2.17-.95,2.24-2.02,4.38-4.14,6.62-6.16,1.03-.93,2.36-1.81,3.46-.35.99,1.31-.15,2.21-1.14,3.1-2.19,1.95-4.23,4.06-6.44,5.99-1.19,1.04-.74,1.61.14,2.53.91.95,1.41,1.01,2.34,0,2.62-2.82,5.02-5.86,7.97-8.36,12.93-10.96,23.09-24.15,31.2-38.96,2.88-5.26,4.76-10.84,5.24-16.78-.25-2.49-.47-4.89-1.22-7.23-2.04-6.35-5.31-8.13-11.37-5.46-10.37,4.58-17.72,12.57-22.78,22.43-4.98,9.71-8.76,19.97-12.22,30.34-1.88,5.62-3.5,11.3-4.87,17.06Z"/>
        <path class="cls-2" d="M139.68,144.02c-1-1.05-1.44-.53-2.14.2-.69.73-1.55,1.26-.35,2.33,2.25,2.01,4.37,4.15,6.62,6.16.98.88,2.14,1.79,1.15,3.1-1.1,1.46-2.44.59-3.46-.34-2.36-2.14-4.64-4.36-6.96-6.53-.5-.47-.83-1.3-1.82-.59-.74.53-1.27,1.05-1.05,2.02.09.41.2.81.3,1.21,3.15,13.6,8.17,26.55,13.4,39.47,3.77,9.29,9.15,17.2,16.57,23.82,4.2,3.74,8.82,6.59,14.06,7.3,2.56-.01,4.12-.93,5.46-3.25,2.67-4.62,3.28-9.59,2.24-14.77-1.85-9.23-6.95-16.9-11.91-24.65-8.73-13.62-21.12-23.92-32.12-35.48Z"/>
        <path class="cls-2" d="M98.62,96.17c.95,1.05,1.38.35,1.93-.27.6-.67,1.77-1.15.49-2.31-2.24-2.02-4.36-4.16-6.6-6.19-1.03-.93-2.37-1.83-1.14-3.25,1.17-1.35,2.48-.39,3.49.54,2.35,2.15,4.63,4.37,6.94,6.55.45.43.83,1.14,1.63.51.57-.45,1.36-.74,1.14-1.73-.11-.49-.18-.99-.29-1.47-3.26-14.02-8.46-27.36-13.9-40.66-3.58-8.75-8.85-16.04-15.71-22.34-3.74-3.44-7.87-6.2-12.91-7.35-3.15-.72-5.13.02-6.86,2.7-2.12,3.27-2.68,6.97-2.89,10.89.09.94.12,2.04.3,3.11.19,1.15.5,2.28.81,3.41,2.85,10.26,8.96,18.74,14.92,27.32,8.07,11.59,19.25,20.23,28.65,30.55Z"/>
        <path class="cls-2" d="M106.38,150.91c.23-1.03.24-1.86-.88-2.54-1.32-.81-1.61.38-2.17.91-2.31,2.19-4.46,4.55-7.01,6.48-1.01.77-2.17,1.29-3.1.1-.96-1.22-.1-2.19.89-2.95,2.48-1.89,4.52-4.24,6.82-6.31,1.37-1.23.18-1.73-.44-2.52-.8-1.03-1.33-.79-2.13.07-2.8,2.99-5.4,6.18-8.54,8.87-13.14,11.24-23.42,24.77-31.48,40-2.47,4.67-4.07,9.68-4.42,15.38.18,2.56.43,5.46,1.57,8.21,2.2,5.33,4.85,6.7,10.2,4.63,10.6-4.1,17.85-12.13,23.05-21.74,5.15-9.52,8.88-19.75,12.3-30.06,2.03-6.11,3.91-12.24,5.32-18.52Z"/>
        <path class="cls-2" d="M28.14,184.47c11.46-.31,21.26-4.73,30.51-11.29,11.37-8.06,20.64-18.34,30.72-27.76,1.59-1.48,2.82-3.29,4.35-5.8-3.49,2.03-6.35,3.72-9.24,5.35-1.15.65-2.55,1.58-3.51-.05-.95-1.61.48-2.36,1.65-3.07,3.08-1.84,6.18-3.66,9.22-5.56.43-.27,1.52-.39,1.07-1.29-.4-.79-1.15-.2-1.78-.11-8.03,1.06-15.36,4.35-22.89,7.05-8.99,3.23-17.17,8.15-25.79,12.14-8.75,4.06-15.19,11.14-20.92,18.77-1.97,2.62-2.11,5.59-.54,8.5,1.54,2.86,4.22,3.19,7.13,3.11Z"/>
        <path class="cls-2" d="M145.03,135.38c3.23,2.6,7.01,4.4,10.58,6.53,1.2.71,2.54,1.48,1.57,3.09-.89,1.47-2.23.7-3.32.09-2.95-1.67-5.87-3.41-8.8-5.12,1.48,3,3.5,5.42,5.87,7.56,1.99,1.79,4.08,3.51,5.85,5.5,6.15,6.92,13.22,12.76,20.52,18.41,7.51,5.8,15.48,10.44,24.91,12.23,2.55.49,5.13.68,7.73.81,2.89.14,5.62-.18,7.18-3.01,1.64-2.97,1.51-6.06-.56-8.72-6.31-8.11-13.32-15.45-22.95-19.74-3.73-1.66-7.38-3.49-11.04-5.3-11.53-5.71-23.36-10.57-36.07-12.99-.61-.12-1.17-.17-1.47.67Z"/>
        <path class="cls-2" d="M144.45,100.43c3.61-2.09,6.55-3.82,9.52-5.5,1.12-.63,2.46-1.28,3.27.27.78,1.49-.39,2.21-1.56,2.89-3.17,1.86-6.3,3.77-9.42,5.72-.42.27-1.33.4-1.1,1.11.3.93,1.08.37,1.7.29,8.88-1.18,16.98-4.83,25.24-7.96,8.36-3.17,16.11-7.66,24.13-11.54,8.5-4.11,14.86-11.03,20.43-18.57,1.97-2.66,2.01-5.63.45-8.51-1.48-2.74-4.1-3.09-6.92-3.03-11.55.27-21.4,4.72-30.72,11.33-11.37,8.06-20.62,18.34-30.71,27.75-1.58,1.48-2.8,3.29-4.32,5.76Z"/>
        <path class="cls-2" d="M93.01,104.94c.22-.65-.53-.71-.88-.98-2.93-2.25-6.27-3.82-9.41-5.72-1.16-.7-2.68-1.38-1.8-3.01.98-1.81,2.44-.75,3.67-.06,2.83,1.6,5.63,3.24,8.44,4.86.1-.09.21-.17.31-.26-.57-.81-1.14-1.63-1.72-2.43-3.21-4.47-7.95-7.42-11.49-11.56-7.21-8.41-16.05-14.92-25-21.25-8.38-5.94-17.84-8.98-28.19-8.92-3.94.02-6.01,1.78-6.82,5.6-.51,2.41.21,4.55,1.63,6.35,6.41,8.15,13.52,15.5,23.27,19.76,3.66,1.6,7.25,3.39,10.84,5.16,11.39,5.65,23.06,10.49,35.65,12.8.55.1,1.23.47,1.49-.33Z"/>
        <path class="cls-2" d="M87.33,118.01c.55,0,1.45.46,1.58-.63.16-1.26-.95-.95-1.55-1.09-2.87-.65-5.61-1.57-8.17-3.05-1.14-.66-2-1.46-1.36-2.79.7-1.44,1.93-1.04,3.01-.41,1.97,1.14,4.08,1.84,6.24,2.53,2.14.68,3.13.11,3.16-2.37-2.54-.04-4.93-.42-7.28-1.05-11.74-3.17-23.45-6.48-35.24-9.49-9.48-2.41-19.05-4.61-28.96-3.73-4.87.43-9.68,1.31-12.87,5.66-2.22,3.03-2.16,5.21.03,8.2,2.03,2.77,4.77,4.39,8.02,5.23,6.02,1.55,12.15,2.58,18.33,2.8,18.34.65,36.7.07,55.05.2Z"/>
        <path class="cls-2" d="M147.93,110.39c-.04,2.4,1.05,2.82,3.12,2.18,2.16-.67,4.27-1.37,6.24-2.51,1.06-.62,2.3-1.07,3.03.35.67,1.3-.14,2.13-1.3,2.8-2.55,1.49-5.29,2.42-8.15,3.07-.59.14-1.73-.21-1.6,1.04.13,1.22,1.16.68,1.77.69,7.87.04,15.74.03,23.62.02,12.13-.02,24.29.59,36.38-.71,5.8-.62,11.7-1.13,17.01-3.86,3.07-1.58,5.78-4.08,5.79-7.63.01-3.9-2.77-6.46-6.3-7.99-4.39-1.91-9.05-2.42-13.73-2.12-13.16.84-25.76,4.4-38.37,8.01-9.04,2.59-18.04,5.46-27.51,6.66Z"/>
        <path class="cls-2" d="M90.21,129.62c.1-2.26-.96-2.83-3.2-2.11-1.91.61-3.78,1.27-5.57,2.17-1.21.61-2.69,1.84-3.6-.14-.83-1.8.84-2.4,2.08-3.1,2.51-1.4,5.21-2.24,8.01-2.76.65-.12,1.13-.25.98-1.07-.13-.74-.7-.54-1.16-.58-.33-.02-.67,0-1.01,0-12.07-.04-24.13-.19-36.2-.1-8.78.07-17.6-.27-26.32,1.14-4.85.78-9.87,1.13-14.25,3.61-2.97,1.68-5.74,4.09-5.65,7.73.1,3.81,2.84,6.24,6.23,7.81.08.03.15.07.23.1,4.26,1.76,8.77,2.33,13.28,2.07,12-.72,23.58-3.72,35.1-7,10.25-2.92,20.43-6.17,31.05-7.77Z"/>
        <path class="cls-2" d="M150.83,122.06c-.55,0-1.45-.46-1.57.65-.14,1.26.97.96,1.56,1.08,2.97.61,5.76,1.66,8.39,3.18,1.1.64,1.7,1.5,1.12,2.68-.64,1.29-1.74,1.03-2.8.47-2.06-1.1-4.22-1.93-6.46-2.63-2.13-.66-3.11-.16-3.2,2.36,6.51.21,12.51,2.47,18.64,4.03,11.89,3.03,23.52,7.06,35.67,9.07,7.54,1.25,15.07,2.34,22.65.27,3.79-1.04,6.88-2.9,8.55-6.69.74-1.68.7-3.21-.19-4.78-2.02-3.55-5.07-5.68-8.98-6.69-6.01-1.55-12.14-2.58-18.32-2.8-18.34-.65-36.7-.06-55.06-.2Z"/>
      </g>
      <path class="cls-3" d="M121.91,239.12c3.76-1.16,7.04-3.56,9.75-6.71,5.95-6.94,7.78-15.23,8.2-23.96.37-7.66-.21-15.32-.97-22.98,1.08,2.07,2.15,4.13,2.94,6.29,3.55,9.8,9.21,18.12,16.95,25.09,4.29,3.85,8.88,7.07,14.59,8.44,5.31,1.27,9.1-.39,11.65-5.28,3.18-6.1,3.37-12.5,1.63-19.02-2.7-10.12-8.51-18.61-14.38-27.05-.67-.96-1.35-1.91-2.02-2.86,3.63,2.15,6.84,4.67,10.17,7.03,9.04,6.42,19.14,9.74,30.23,9.98,5.36.11,9.23-2.43,10.52-6.81,1.07-3.64.87-7.2-1.45-10.29-6.65-8.86-14.24-16.71-24.6-21.25-6.08-2.67-11.9-5.85-17.78-8.93,7.1,1.78,14.14,3.83,21.34,5.15,8.25,1.51,16.53,2.8,24.94,1.23,5.12-.96,9.57-3.01,12.33-7.7,2.04-3.46,2.15-6.9-.11-10.37-2.6-4-6.25-6.43-10.81-7.57-1.95-.49-3.9-.92-5.86-1.38,3.84-1.03,7.67-1.65,10.96-3.71,3.93-2.47,7.32-5.61,7.28-10.68-.03-5.24-3.28-8.59-7.67-10.89-3.87-2.03-8.11-2.54-12.4-2.66-8.78-.24-17.32,1.42-25.8,3.46-4.74,1.14-9.45,2.41-14.17,3.62,5.38-2.94,10.7-5.95,16.3-8.27,10.68-4.44,18.44-12.26,25.44-21.03,3.2-4.01,3.64-8.57,1.15-13.14-2.44-4.49-6.67-5.1-11.26-4.85-12.2.65-22.87,5.14-32.35,12.7-1.98,1.58-4.01,3.1-6.02,4.65.35-1.36,1.06-2.33,1.75-3.33,5.86-8.45,11.67-16.94,14.34-27.07,1.72-6.52,1.47-12.93-1.72-19.02-2.31-4.42-6.06-6.35-10.51-5.43-3.12.64-6.19,1.64-8.81,3.47-9.19,6.43-16.87,14.21-21.36,24.73-1.71,4-3.49,7.97-5.24,11.95-.22-.94-.08-1.77-.02-2.59.7-8.93,1.56-17.85.19-26.8-1.25-8.12-4.28-15.3-10.75-20.62-2.47-2.04-5.26-3.76-8.66-3.95-4.5-.25-8,2.01-11.1,4.81-7.61,6.89-9.88,16.07-10.39,25.81-.4,7.75.17,15.5.95,23.25-.73-1.31-1.4-2.62-1.93-3.99-3.97-10.35-9.28-19.78-17.78-27.2-4.33-3.79-8.84-7.12-14.55-8.52-5.54-1.36-9.19.19-11.87,5.25-3.18,6.01-3.37,12.35-1.7,18.78,2.66,10.23,8.55,18.77,14.47,27.3.66.96,1.36,1.89,2.05,2.84-2.45-1.24-4.51-2.79-6.53-4.39-9.86-7.83-20.96-12.32-33.64-12.65-4.12-.11-7.7.98-9.82,4.78-2.21,3.95-2.38,8.17.23,11.89,5.98,8.52,13.2,15.92,22.61,20.59,6.71,3.33,13.5,6.51,20.14,9.98-.39.24-.74,0-1.13-.1-10.07-2.79-20.16-5.52-30.6-6.56-7.03-.7-14.1-.93-20.67,2.31-4.61,2.28-8,5.79-7.76,11.3.23,5.21,3.83,8.35,8.04,10.73,3.1,1.75,6.67,2.23,10.25,2.9-.56.92-1.31.69-1.91.81-3.45.69-6.97,1.36-9.86,3.45-7.38,5.36-8.9,11.62-3.21,17.95,1.82,2.03,4.14,3.37,6.73,4.21,6.1,1.97,12.35,1.95,18.64,1.28,10.66-1.14,20.96-3.94,31.33-6.67-5.73,3.02-11.41,6.21-17.39,8.78-10.5,4.51-18.17,12.39-24.87,21.31-2.93,3.9-2.9,8.33-.5,12.52,2.33,4.08,6.29,4.82,10.64,4.64,12.4-.52,23.22-5.03,32.85-12.69,1.99-1.58,4.03-3.09,6.21-4.75.16,1.04-.43,1.35-.74,1.77-4.78,6.47-9.15,13.21-12.57,20.48-3.61,7.68-5.45,15.66-2.65,24.05,2.7,8.09,7.97,10.79,15.75,7.46,12-5.12,20.1-14.42,25.8-25.9,2.11-4.24,3.85-8.66,5.76-13,.21.95.1,1.78.03,2.61-.73,8.93-1.54,17.85-.16,26.8,1.24,8.03,4.26,15.13,10.6,20.44,3.53,2.95,7.71,5.2,12.34,3.77Z"/>
    </g>
  </g>
</svg>