<?xml version="1.0" encoding="UTF-8"?>
<svg id="Layer_2" data-name="Layer 2" xmlns="http://www.w3.org/2000/svg" viewBox="0 0 249.34 288.74">
  <defs>
    <style>
      .cls-1 {
        fill: #0c0d0c;
      }

      .cls-2 {
        fill: #d77f3d;
      }

      .cls-3 {
        fill: #f7f8f8;
      }

      .cls-4 {
        fill: #0d0d0c;
      }

      .cls-5 {
        fill: none;
        stroke: #010101;
        stroke-linecap: round;
        stroke-linejoin: round;
        stroke-width: 1.32px;
      }

      .cls-6 {
        fill: #a7d9c4;
      }

      .cls-7 {
        fill: #080808;
      }
    </style>
  </defs>
  <g id="Layer_6" data-name="Layer 6">
    <g>
      <path class="cls-7" d="M193.49,250.91c.97,4.77.89,9.46-.09,14.26-1.77,8.59,2.72,20.35,13.55,22.99,10.79,2.64,18.45-4.14,16.94-15.17-.41-2.98-1.17-5.9-1.65-8.87-.87-5.35.62-9.71,5.46-12.65,2.2-1.33,3.87-3.22,4.96-5.58,3.52-7.6,4.88-15.35,1.57-23.41-.09-.21-.17-.43-.19-.48-2.67-5.45-6.56-9.51-10.09-13.84-2.68-3.29-5.38-6.57-7.64-10.17-1.69-2.69-1.55-4.79.96-6.42,7.2-4.67,8.46-11.32,6.75-19.05-1.31-5.92-3.03-11.7-6.6-16.74-1.51-2.13-3.36-3.96-5.59-5.28-8.27-4.92-15.06-11.58-21.76-18.35-2.11-2.14-4.35-4.15-6.52-6.23-.71-.67-1.43-1.13-2.47-.69-1.02.43-1.29,1.22-1.29,2.22,0,1.7-.9,3.01-1.86,4.32-2.74,3.78-5.94,7.22-8.08,11.43-4.13,8.15-4.07,16.44-1.22,24.92,1.42,4.22,3.65,7.95,6.44,11.36,8.11,9.9,7.68,17.35.3,27.78-2.17,3.07-4.42,6.02-5.23,9.86-2.09,9.85,2.43,18.62,11.76,22.43.91.37,1.83.77,2.78,1.03,5.27,1.46,7.81,5.21,8.84,10.32ZM183.19,237.23c-11.04-4.37-14.49-16.72-7.29-26.18,2.1-2.75,4.1-5.57,5.52-8.73,2.12-4.73,3.15-9.66,1.36-14.71-1.26-3.56-3.27-6.77-5.64-9.72-2.76-3.44-5.01-7.17-6.3-11.43-1.84-6.09-2.31-12.17-.21-18.34,2.07-6.08,6.36-10.62,10.27-15.79,2.93,8.94,5.84,17.52,8.56,26.16,5.22,16.55,9.24,33.34,9.45,50.83,0,.74.04,1.48.44,2.14.35.57.79.97,1.52.72.59-.21.86-.61.84-1.27-.12-3.13-.04-6.28-.34-9.39-1.03-10.8-3.13-21.42-5.83-31.9-2.77-10.75-6.64-21.17-10.06-31.73-.9-2.78-2.06-5.5-2.43-8.81,1.6,1.53,2.96,2.76,4.25,4.07,7.21,7.34,14.56,14.51,23.46,19.87,2.47,1.48,4.27,3.69,5.75,6.16,3.13,5.24,4.58,11.04,5.38,16.98.68,5.08-.69,9.53-5.23,12.56-.61.41-1.19.87-1.74,1.37-2.43,2.16-3.01,4.73-1.61,7.66.66,1.39,1.45,2.73,2.32,3.99,3.9,5.62,8.53,10.67,12.76,16.03,4.04,5.11,5.82,10.89,4.83,17.29-.96,6.26-2.72,12.24-8.91,15.6-.26.14-.48.39-.7.6-4.32,4.02-4.81,9.07-3.85,14.48.46,2.61,1.16,5.18,1.51,7.8.76,5.59-1.26,9.99-5.38,11.68-3.76,1.55-7.52,1.08-11.11-.62-7.15-3.37-10.18-11.72-8.78-18.86,1-5.11,1.15-10.11.1-15.19-1.24-6.06-4.23-10.6-10.49-12.4-.83-.24-1.63-.58-2.43-.9Z"/>
      <path class="cls-6" d="M175.9,211.05c2.1-2.75,4.1-5.57,5.52-8.73,2.12-4.73,3.15-9.66,1.36-14.71-1.26-3.56-3.27-6.77-5.64-9.72-2.76-3.44-5.01-7.17-6.3-11.43-1.84-6.09-2.31-12.17-.21-18.34,2.07-6.08,6.36-10.62,10.27-15.79,2.93,8.94,5.84,17.52,8.56,26.16,5.22,16.55,9.24,33.34,9.45,50.83,0,.74.04,1.48.44,2.14.35.57.79.97,1.52.72.59-.21.86-.61.84-1.27-.12-3.13-.04-6.28-.34-9.39-1.03-10.8-3.13-21.42-5.83-31.9-2.77-10.75-6.64-21.17-10.06-31.73-.9-2.78-2.06-5.5-2.43-8.81,1.6,1.53,2.96,2.76,4.25,4.07,7.21,7.34,14.56,14.51,23.46,19.87,2.47,1.48,4.27,3.69,5.75,6.16,3.13,5.24,4.58,11.04,5.38,16.98.68,5.08-.69,9.53-5.23,12.56-.61.41-1.19.87-1.74,1.37-2.43,2.16-3.01,4.73-1.61,7.66.66,1.39,1.45,2.73,2.32,3.99,3.9,5.62,8.53,10.67,12.76,16.03,4.04,5.11,5.82,10.89,4.83,17.29-.96,6.26-2.72,12.24-8.91,15.6-.26.14-.48.39-.7.6-4.32,4.02-4.81,9.07-3.85,14.48.46,2.61,1.16,5.18,1.51,7.8.76,5.59-1.26,9.99-5.38,11.68-3.76,1.55-7.52,1.08-11.11-.62-7.15-3.37-10.18-11.72-8.78-18.86,1-5.11,1.15-10.11.1-15.19-1.24-6.06-4.23-10.6-10.49-12.4-.83-.24-1.63-.58-2.43-.9-11.04-4.37-14.49-16.73-7.29-26.18Z"/>
    </g>
    <g>
      <path class="cls-7" d="M38.73,78.44c.74-8.06,4.83-14.52,10.48-19.98,4.48-4.32,10.17-6.52,16.16-7.96,2.57-.62,5.14-1.24,7.87-1.49-.3-.39-.57-.35-.83-.38-3.82-.43-7.64-.42-11.48-.36-2.71.04-4.61,1.2-6.21,3.23-4.32,5.49-9.86,9.56-15.63,13.36-3.36,2.21-7.28,2.92-11.05,4.03-7.77,2.28-15.18,1.52-22.25-2.47-4.55-2.56-6.8-7.98-5.35-13.03.86-2.99,2.53-5.52,4.42-7.97,4.09-5.32,9.25-9.03,15.81-10.52,5.97-1.36,11.96-1.13,17.87.53,6.16,1.73,12.21,3.76,17.67,7.22.78.5,1.61.78,2.59.73,1.48-.07,2.96,0,4.44.03,1.9.05,3.81.15,5.91.23-.48-.25-.76-.41-1.05-.54-7.22-3.06-13.56-7.41-18.86-13.18-3.77-4.1-7.07-8.52-8.73-13.98-1.63-5.35.6-12.53,7.57-14.82,8.22-2.71,15.37-.29,21.74,4.84,3.73,3.01,5.66,7.35,7.24,11.81,1.65,4.65,2.08,9.56,3.08,14.36.98,4.69,2.61,9.06,5.69,12.81.38.46.78.71,1.41.76,2.4.18,4.73.72,7.07,1.25,4.58,1.05,9.09,2.31,13.93,3.9-2.21-2.24-3.96-4.34-5.74-6.41-4.06-4.72-7.38-9.84-9.18-15.86-1.81-6.06-.52-11.71,2.92-16.71,2.59-3.77,6.87-4.4,11.1-3.6,7.89,1.5,13.17,6.3,16.1,13.71,2.6,6.59,3.6,13.48,3.57,20.55-.02,5.95,1.65,11.38,5.09,16.24.35.5.72.95,1.35,1.18,3.72,1.38,7.03,3.52,10.38,5.58,2.6,1.6,5.01,3.46,7.42,5.37-.15-.26-.3-.51-.45-.77-3.02-5.15-5.52-10.55-7.25-16.26-1.7-5.58-2.06-11.21-.04-16.85,1.72-4.81,4.93-7.71,10.09-8.33,3.26-.39,6.26.49,9.11,1.89,5.4,2.66,9.11,7.04,11.66,12.34,3.1,6.43,3.78,13.33,2.79,20.34-.73,5.17-2.54,9.98-5.81,14.15-1.61,2.04-3.19,4.11-4.78,6.15,3.76,3.53,6.65,7.68,9.29,11.99,1.15,1.87,1.82,3.99,1.65,6.25-.16,2.18-1.67,3.74-3.99,4.23-1.63.34-2.75-.33-3.91-2.37-.99-1.75-1.95-3.51-2.92-5.27-.23-.43-.44-.77-1.06-.78-2.03-.02-4,.07-5.87,1.02-1.64.83-3.24,1.71-4.81,2.66-5.48,3.33-10.48,7.45-16.27,10.25-8.06,3.9-16.26,4.6-24.38.13-3.55-1.96-5.62-4.99-5.82-9.19-.15-3.01.51-5.79,1.87-8.45,2.84-5.56,6.99-9.61,13.03-11.59,9.15-3,18.25-2.34,27.3.39,2.13.64,4.18,1.5,6.52,2.36-1.05-1.41-2-2.54-3.12-3.51-5.46-4.71-11.24-8.98-17.22-13.02-4.1-2.76-7.52-2.02-11.14.45-1.01.69-2,1.43-3.07,1.99-3.36,1.77-5.94,4.4-8.27,7.31-3.44,4.3-6.77,8.7-11.03,12.23-5.82,4.82-12.3,7.07-19.66,3.84-5.85-2.56-9.21-7.49-6.81-14.55,1.07-3.13,2.47-6.07,4.34-8.79,3.17-4.62,7.14-8.42,12.37-10.53,4.86-1.96,10-2.81,15.28-2.55.94.05,1.88.09,2.82.13-2.06-.6-4.02-1.44-6.06-2-2.52-.69-5.06-1.32-7.61-1.89-1.69-.38-3.34-.98-5.13-.9-4.3.21-7.15,2.66-9.47,6-1.85,2.67-3.22,5.61-4.9,8.37-2.59,4.26-5.42,8.37-8.01,12.62-3.94,6.48-9.77,10.33-16.88,12.45-2.12.63-4.29.77-6.43-.07-5.84-2.28-9.07-7.6-8.46-14.35ZM47.82,91.03c1.55.64,3.19.58,4.77.14,6.9-1.93,12.56-5.55,16.34-11.83,2.83-4.72,6.1-9.18,8.84-13.96,1.57-2.73,2.95-5.56,4.85-8.1,3.14-4.2,7.91-7.05,14.78-5.1,3.57,1.01,7.16,2.01,10.81,2.65,3.82.67,7.43,1.95,11.08,3.13,2.1.68,4.09,1.73,6.12,2.64.58.26,1.13.64.8,1.4-.34.8-.95.62-1.65.42-9.61-2.79-19.29-3.7-29-.56-5.28,1.71-9.14,5.36-12.38,9.7-2.27,3.03-3.96,6.39-4.84,10.11-1.06,4.46.51,7.78,4.37,10.25,6.5,4.15,14.5,1.47,18.78-2.17,4.05-3.44,7.42-7.48,10.68-11.64,2.67-3.42,5.61-6.56,9.52-8.65,1.92-1.03,3.57-2.52,5.6-3.39.48-.21.97-.41,1.46-.59,2.55-.9,4.76-.95,7.37.63,6.57,3.99,12.65,8.59,18.51,13.51,2.25,1.89,3.93,4.32,6.05,6.34.65.62.46,1.24.03,1.88-.51.76-1.12.45-1.74.19-4.18-1.78-8.37-3.59-12.84-4.51-7.78-1.59-15.58-1.95-23.1,1.06-6.82,2.73-11.26,7.77-12.54,15.12-.9,5.2,1.4,8.99,6.19,11.18,4.96,2.26,10.05,2.31,15.26,1.17,5.49-1.2,9.96-4.4,14.5-7.42,4.15-2.76,8.24-5.59,12.74-7.77,1.49-.72,3.05-1.04,4.69-1.09.72-.02,1.44.06,2.16-.32.73-.38,1.21.23,1.55.82,1.19,2.09,2.34,4.2,3.56,6.27.5.85.84,2.04,2.31,1.58,1.5-.46,2.28-1.43,2.21-2.98-.08-1.79-.65-3.45-1.59-4.95-2.02-3.22-4.21-6.32-6.73-9.17-.87-.98-1.8-1.9-2.93-2.59-.63-.39-.92-1.06-.26-1.49,2.07-1.38,3.2-3.54,4.68-5.4,8.28-10.43,8.66-21.89,3.83-33.7-2.13-5.21-5.96-9.33-11.25-11.8-3.6-1.68-7.26-2.13-11.03-.54-1.73.73-2.97,1.95-3.87,3.56-2.43,4.35-2.89,8.99-2.17,13.84.8,5.36,3.04,10.21,5.28,15.06,2.63,5.72,6.33,10.75,10.23,15.65.37.47.97.88.49,1.58-.45.66-.99.12-1.52.1-.91-.03-1.45-.48-1.93-1.14-5.79-8-13.49-13.72-22.41-17.59-3.9-1.69-5.31-4.77-6.89-8.01-1.98-4.05-2.5-8.43-2.5-12.9,0-6.58-1.03-12.98-3.47-19.12-2.55-6.39-7.08-10.59-13.81-12.31-3.84-.98-8.5.14-10.16,2.81-2.82,4.53-4.17,9.44-2.58,14.77,1.26,4.22,3.15,8.15,5.88,11.64,2.28,2.92,4.61,5.81,7.13,8.53,1.55,1.68,3.17,3.23,5.35,4.08.64.25,1.22.67,1.7,1.2.52.56.82,1.16.36,1.88-.46.71-1.18.56-1.77.32-.89-.35-1.7-.89-2.56-1.3-4.64-2.22-9.59-3.48-14.55-4.71-3.47-.86-6.93-1.75-10.52-2-.66-.05-1.04-.49-1.46-.98-3.8-4.49-5.59-9.82-6.64-15.49-.79-4.25-1.26-8.58-2.74-12.69-1.62-4.5-3.62-8.85-7.58-11.71-5.74-4.14-12.04-6.09-19.14-3.65-5.72,1.97-7.59,7.86-6.26,12.37,1.37,4.65,4.14,8.44,7.19,12.07,3.52,4.19,7.81,7.48,12.34,10.48,1.01.67,2.16,1.14,3.25,1.7,3.08,1.78,6.45,2.93,9.69,4.35,1.15.5,2.51.35,3.59,1.13.42.3.82.55.64,1.13-.2.61-.68.8-1.26.62-5.52-1.65-11.23-1.23-16.87-1.58-1.48-.09-2.94-.4-4.45-.47-1.01-.05-1.94-1.09-2.95-1.6-7.73-3.93-15.75-6.96-24.54-7.19-9.31-.25-16.96,3.16-22.62,10.71-1.15,1.54-2.42,2.99-3.2,4.78-2.69,6.18-.8,11.84,6.1,14.65,5.83,2.38,11.75,2.85,17.83,1.11,1.56-.45,3.12-.88,4.69-1.29,2.69-.7,5.2-1.81,7.5-3.38,4.84-3.3,9.5-6.82,13.32-11.31.91-1.07,2.04-2,2.48-3.47.2-.67.99-.9,1.71-1.07,2.94-.69,5.91-.35,8.87-.37,4.6-.04,9.15.58,13.66,1.29,1.49.23,2.95.94,4.52,1.06.45.03.8.39.79.91-.01.45-.31.71-.73.82-.38.1-.79.29-1.15.22-3.11-.62-6.16.1-9.24.35-3.96.32-7.77,1.28-11.52,2.49-11.03,3.54-17.74,11.22-20.88,22.19-.64,2.24-.64,4.58-.22,6.89.75,4.14,3.18,6.92,7.01,8.5Z"/>
      <path class="cls-6" d="M40.81,82.53c-.42-2.31-.42-4.64.22-6.89,3.14-10.97,9.85-18.65,20.88-22.19,3.75-1.2,7.56-2.17,11.52-2.49,3.08-.25,6.13-.96,9.24-.35.35.07.77-.12,1.15-.22.41-.11.71-.37.73-.82.02-.52-.34-.87-.79-.91-1.58-.12-3.03-.83-4.52-1.06-4.52-.71-9.07-1.32-13.66-1.29-2.96.02-5.93-.32-8.87.37-.72.17-1.51.4-1.71,1.07-.44,1.47-1.57,2.4-2.48,3.47-3.81,4.5-8.47,8.02-13.32,11.31-2.3,1.57-4.81,2.68-7.5,3.38-1.57.41-3.13.84-4.69,1.29-6.08,1.74-11.99,1.27-17.83-1.11-6.89-2.82-8.78-8.47-6.1-14.65.78-1.79,2.04-3.25,3.2-4.78,5.66-7.55,13.3-10.96,22.62-10.71,8.8.24,16.81,3.27,24.54,7.19,1.01.51,1.94,1.56,2.95,1.6,1.51.07,2.97.38,4.45.47,5.64.34,11.35-.07,16.87,1.58.58.17,1.06-.01,1.26-.62.19-.58-.22-.83-.64-1.13-1.08-.78-2.44-.63-3.59-1.13-3.24-1.42-6.61-2.57-9.69-4.35-1.09-.56-2.24-1.03-3.25-1.7-4.52-3.01-8.81-6.29-12.34-10.48-3.05-3.63-5.82-7.42-7.19-12.07-1.33-4.51.54-10.4,6.26-12.37,7.09-2.44,13.4-.5,19.14,3.65,3.96,2.86,5.96,7.21,7.58,11.71,1.48,4.11,1.95,8.43,2.74,12.69,1.05,5.67,2.84,11,6.64,15.49.42.49.8.94,1.46.98,3.59.25,7.05,1.14,10.52,2,4.96,1.23,9.91,2.49,14.55,4.71.86.41,1.68.95,2.56,1.3.59.23,1.32.39,1.77-.32.46-.72.15-1.32-.36-1.88-.48-.53-1.06-.95-1.7-1.2-2.18-.85-3.8-2.41-5.35-4.08-2.52-2.72-4.85-5.61-7.13-8.53-2.73-3.49-4.61-7.42-5.88-11.64-1.6-5.33-.24-10.24,2.58-14.77,1.67-2.68,6.32-3.79,10.16-2.81,6.73,1.72,11.26,5.92,13.81,12.31,2.44,6.13,3.47,12.54,3.47,19.12,0,4.47.52,8.85,2.5,12.9,1.58,3.23,2.99,6.31,6.89,8.01,8.92,3.87,16.62,9.59,22.41,17.59.48.66,1.02,1.1,1.93,1.14.52.02,1.07.56,1.52-.1.47-.7-.12-1.11-.49-1.58-3.9-4.89-7.59-9.93-10.23-15.65-2.24-4.85-4.48-9.7-5.28-15.06-.72-4.85-.26-9.49,2.17-13.84.9-1.62,2.15-2.83,3.87-3.56,3.77-1.6,7.42-1.15,11.03.54,5.29,2.47,9.11,6.59,11.25,11.8,4.83,11.81,4.46,23.27-3.83,33.7-1.48,1.86-2.61,4.02-4.68,5.4-.65.43-.37,1.1.26,1.49,1.13.7,2.06,1.61,2.93,2.59,2.52,2.85,4.71,5.96,6.73,9.17.94,1.5,1.51,3.16,1.59,4.95.07,1.55-.71,2.52-2.21,2.98-1.47.45-1.81-.73-2.31-1.58-1.22-2.07-2.37-4.18-3.56-6.27-.34-.6-.82-1.21-1.55-.82-.72.38-1.44.3-2.16.32-1.64.05-3.2.37-4.69,1.09-4.5,2.18-8.59,5.01-12.74,7.77-4.54,3.02-9.01,6.22-14.5,7.42-5.21,1.14-10.3,1.09-15.26-1.17-4.79-2.19-7.09-5.98-6.19-11.18,1.28-7.36,5.71-12.39,12.54-15.12,7.52-3.01,15.32-2.66,23.1-1.06,4.48.92,8.66,2.73,12.84,4.51.61.26,1.22.57,1.74-.19.43-.64.62-1.26-.03-1.88-2.12-2.01-3.8-4.45-6.05-6.34-5.87-4.92-11.94-9.52-18.51-13.51-2.6-1.58-4.82-1.54-7.37-.63-.49.17-.98.38-1.46.59-2.02.87-3.68,2.36-5.6,3.39-3.91,2.09-6.85,5.23-9.52,8.65-3.26,4.16-6.63,8.2-10.68,11.64-4.28,3.64-12.28,6.32-18.78,2.17-3.86-2.46-5.43-5.79-4.37-10.25.88-3.72,2.58-7.08,4.84-10.11,3.24-4.33,7.1-7.99,12.38-9.7,9.71-3.14,19.39-2.23,29,.56.7.2,1.31.38,1.65-.42.33-.76-.22-1.14-.8-1.4-2.03-.91-4.01-1.95-6.12-2.64-3.65-1.18-7.26-2.46-11.08-3.13-3.65-.65-7.24-1.64-10.81-2.65-6.87-1.95-11.63.9-14.78,5.1-1.9,2.54-3.28,5.37-4.85,8.1-2.75,4.78-6.01,9.23-8.84,13.96-3.78,6.29-9.44,9.91-16.34,11.83-1.58.44-3.22.5-4.77-.14-3.84-1.58-6.26-4.36-7.01-8.5ZM53.11,44.78c-5.66-.33-11.26.21-16.83,1.15-5.57.94-11.08,2.13-16.53,3.62-.63.17-1.19.38-1.27,1.12-.04.38.17.66.29.72.63.28,1,.12,1.38.01,6.88-1.9,13.86-3.35,20.94-4.27,3.95-.51,7.91-.74,11.89-.46.67.05,1.44.12,1.54-.77.12-1-.73-1.08-1.42-1.12ZM80.41,43.66c.37-.53.18-1.01-.28-1.38-1.86-1.46-3.3-3.37-5.12-4.86-6.07-4.99-10.96-10.97-14.93-17.73-.86-1.47-1.75-2.92-2.78-4.29-.68-.91-1.26-1.89-1.5-3.03-.12-.56-.42-1.01-1.09-.88-.72.14-.83.71-.72,1.32.17.96.52,1.88,1.09,2.65,2.35,3.16,4.18,6.65,6.39,9.9,3.31,4.87,7.22,9.17,11.71,12.95,1.87,1.58,3.35,3.56,5.33,5.02.21.16.4.34.55.47.53.27,1,.33,1.34-.16ZM127.3,59.69c.61-.65.09-1.2-.36-1.7-4.32-4.86-8.72-9.64-12.35-15.06-3.65-5.46-6.53-11.28-7.89-17.75-.3-1.44-.31-2.95-.46-4.43-.05-.52-.25-.95-.8-1.07-.45-.1-.75.14-1.01.64,0,.36-.01.84,0,1.31.12,5.16,1.96,9.83,4.08,14.41,3.26,7.05,8.05,13.04,13.15,18.82,1.32,1.5,2.66,3,4,4.48.46.51,1,1.02,1.64.33ZM163.58,81.84c.58-.24.6-.76.42-1.33-.82-2.49-1.51-5.04-2.45-7.48-2.96-7.65-4.54-15.6-5.46-23.7-.23-2.03-.64-4.06-.38-6.13.06-.5-.12-.89-.61-1.02-.56-.16-.91.17-1.12.66-.31.61-.29,1.27-.23,1.92.82,9.79,2.41,19.42,5.94,28.66.84,2.2,1.48,4.48,2.22,6.73.11.33.19.68.33.99.26.57.71.96,1.35.7ZM163.08,91.3c-1.76-.45-3.85-.71-5.93-.75-6.67-.15-12.87,1.7-18.71,4.79-2.51,1.33-4.94,2.8-6.95,4.85-.15.16-.34.29-.46.46-.45.63-1.15,1.35-.28,2.04.79.63,1.19-.25,1.66-.74,2.58-2.69,5.76-4.52,9.11-6.04,5.23-2.37,10.69-3.85,16.51-3.42,1.56.11,3.12.24,4.65.66.53.15,1.09.17,1.32-.48.21-.59-.09-1.01-.9-1.38ZM124,64.1c-2.01.44-4.01.9-6,1.39-9.42,2.31-17.18,7.29-23.51,14.59-.14.16-.28.33-.36.42-.36.66-.35,1.21.22,1.59.47.32.87.13,1.23-.32,6.65-8.04,15.13-13.02,25.36-15.06,1.11-.22,2.21-.53,3.32-.77.61-.13,1.15-.31,1.03-1.07-.12-.7-.66-.92-1.28-.78ZM60.11,72.65c.97-1.35,1.8-2.78,2.83-4.09,5.76-7.3,13.14-12.27,21.85-15.36.71-.25,1.42-.58,1.1-1.45-.31-.83-1.08-.55-1.7-.34-8.56,3.03-15.92,7.82-21.77,14.83-1.2,1.44-2.36,2.92-3.31,4.55-.16.31-.33.62-.48.93-.23.49-.45,1,.17,1.37.59.35.97.03,1.31-.45Z"/>
      <path class="cls-4" d="M121.66,54.88c-5.09-5.78-9.89-11.77-13.15-18.82-2.12-4.58-3.96-9.26-4.08-14.41-.01-.48,0-.95,0-1.31.26-.51.56-.74,1.01-.64.56.12.75.55.8,1.07.15,1.48.16,2.98.46,4.43,1.36,6.47,4.24,12.29,7.89,17.75,3.62,5.42,8.03,10.21,12.35,15.06.45.5.97,1.05.36,1.7-.64.69-1.18.17-1.64-.33-1.34-1.49-2.68-2.98-4-4.48Z"/>
      <path class="cls-4" d="M73.19,38.32c-4.49-3.79-8.4-8.09-11.71-12.95-2.21-3.25-4.04-6.74-6.39-9.9-.58-.77-.92-1.69-1.09-2.65-.11-.61,0-1.18.72-1.32.66-.13.97.32,1.09.88.24,1.14.82,2.12,1.5,3.03,1.02,1.37,1.91,2.82,2.78,4.29,3.97,6.75,8.85,12.73,14.93,17.73,1.82,1.49,3.26,3.4,5.12,4.86.46.36.65.85.28,1.38-.34.49-.81.43-1.34.16-.15-.13-.34-.31-.55-.47-1.97-1.46-3.46-3.44-5.33-5.02Z"/>
      <path class="cls-4" d="M161.9,80.15c-.73-2.24-1.38-4.52-2.22-6.73-3.53-9.24-5.12-18.87-5.94-28.66-.05-.65-.08-1.31.23-1.92.21-.49.56-.82,1.12-.66.49.14.67.52.61,1.02-.26,2.06.15,4.1.38,6.13.92,8.1,2.5,16.06,5.46,23.7.95,2.44,1.63,4.99,2.45,7.48.19.57.16,1.09-.42,1.33-.64.27-1.09-.12-1.35-.7-.14-.32-.22-.66-.33-.99Z"/>
      <path class="cls-1" d="M125.28,64.88c.12.76-.43.94-1.03,1.07-1.11.24-2.2.54-3.32.77-10.22,2.04-18.7,7.02-25.36,15.06-.37.44-.76.63-1.23.32-.57-.38-.58-.93-.22-1.59.08-.09.22-.26.36-.42,6.32-7.3,14.09-12.28,23.51-14.59,1.99-.49,3.99-.95,6-1.39.62-.14,1.17.08,1.28.78Z"/>
      <path class="cls-4" d="M54.54,45.9c-.11.89-.87.82-1.54.77-3.98-.28-7.94-.05-11.89.46-7.08.92-14.06,2.37-20.94,4.27-.38.1-.75.27-1.38-.01-.12-.06-.34-.34-.29-.72.08-.74.64-.94,1.27-1.12,5.45-1.5,10.96-2.68,16.53-3.62,5.57-.94,11.17-1.49,16.83-1.15.69.04,1.54.12,1.42,1.12Z"/>
      <path class="cls-1" d="M163.98,92.68c-.22.64-.79.62-1.32.48-1.52-.42-3.09-.55-4.65-.66-5.82-.43-11.28,1.05-16.51,3.42-3.35,1.51-6.53,3.35-9.11,6.04-.47.49-.87,1.36-1.66.74-.87-.69-.17-1.41.28-2.04.13-.17.31-.31.46-.46,2.01-2.05,4.44-3.52,6.95-4.85,5.84-3.09,12.04-4.95,18.71-4.79,2.08.05,4.17.3,5.93.75.81.37,1.11.78.9,1.38Z"/>
      <path class="cls-4" d="M58.63,71.72c.15-.32.32-.62.48-.93.95-1.63,2.11-3.1,3.31-4.55,5.85-7.01,13.21-11.8,21.77-14.83.62-.22,1.39-.49,1.7.34.32.87-.39,1.2-1.1,1.45-8.71,3.09-16.09,8.06-21.85,15.36-1.03,1.31-1.86,2.74-2.83,4.09-.34.47-.72.79-1.31.44-.62-.37-.4-.88-.17-1.37Z"/>
    </g>
    <g>
      <g>
        <path class="cls-7" d="M106.29,153.5c1.51,2.65,4.08,3.13,6.9,3.01,8.04-.34,15.07-3.26,21.32-8.24,1.29-1.03,2.62-2,4.03-3.08.1.68-.28.88-.48,1.15-3.1,4.2-5.94,8.57-8.16,13.29-2.34,4.98-3.53,10.16-1.72,15.61,1.75,5.25,5.17,7,10.22,4.84,7.79-3.32,13.04-9.35,16.74-16.81,1.37-2.75,2.5-5.62,3.74-8.44.14.62.07,1.15.02,1.69-.48,5.79-1,11.58-.1,17.39.81,5.21,2.76,9.82,6.88,13.27,2.29,1.92,5,3.38,8,2.45,2.44-.75,4.57-2.31,6.33-4.36,3.86-4.5,5.05-9.89,5.32-15.55.24-4.97-.14-9.94-.63-14.91.7,1.34,1.4,2.68,1.9,4.08,2.3,6.36,5.97,11.76,11,16.28,2.78,2.5,5.76,4.59,9.47,5.48,3.44.83,5.91-.25,7.56-3.42,2.06-3.96,2.19-8.11,1.06-12.34-1.75-6.57-5.52-12.07-9.33-17.55-.43-.62-.88-1.24-1.31-1.86,2.36,1.4,4.44,3.03,6.6,4.56,5.87,4.16,12.42,6.32,19.61,6.47,3.48.07,5.99-1.58,6.83-4.42.69-2.36.56-4.67-.94-6.67-4.32-5.75-9.24-10.84-15.96-13.79-3.95-1.73-7.72-3.8-11.54-5.8,4.61,1.16,9.17,2.49,13.85,3.34,5.35.98,10.72,1.82,16.18.8,3.32-.62,6.21-1.95,8-5,1.33-2.25,1.4-4.48-.07-6.73-1.69-2.59-4.05-4.17-7.02-4.91-1.26-.32-2.53-.6-3.8-.9,2.49-.67,4.98-1.07,7.11-2.41,2.55-1.6,4.75-3.64,4.73-6.93-.02-3.4-2.13-5.57-4.98-7.07-2.51-1.31-5.26-1.65-8.04-1.72-5.7-.15-11.24.92-16.74,2.24-3.08.74-6.13,1.56-9.19,2.35,3.49-1.91,6.94-3.86,10.58-5.37,6.93-2.88,11.97-7.96,16.51-13.65,2.08-2.6,2.36-5.56.75-8.53-1.58-2.91-4.33-3.31-7.31-3.15-7.92.42-14.84,3.33-20.99,8.24-1.29,1.03-2.61,2.01-3.91,3.02.23-.88.69-1.51,1.13-2.16,3.8-5.49,7.58-10.99,9.31-17.57,1.11-4.23.95-8.39-1.12-12.34-1.5-2.87-3.93-4.12-6.82-3.52-2.03.42-4.02,1.06-5.72,2.25-5.97,4.17-10.95,9.22-13.86,16.05-1.11,2.59-2.26,5.17-3.4,7.75-.14-.61-.06-1.15-.01-1.68.46-5.79,1.01-11.58.12-17.39-.81-5.27-2.78-9.93-6.97-13.38-1.61-1.32-3.41-2.44-5.62-2.56-2.92-.17-5.19,1.3-7.2,3.12-4.94,4.47-6.41,10.43-6.74,16.75-.26,5.03.11,10.06.62,15.09-.48-.85-.91-1.7-1.25-2.59-2.57-6.72-6.02-12.83-11.54-17.65-2.81-2.46-5.74-4.62-9.44-5.53-3.59-.88-5.96.12-7.7,3.41-2.06,3.9-2.19,8.01-1.1,12.19,1.73,6.64,5.55,12.18,9.39,17.71.43.62.88,1.23,1.33,1.84-1.59-.8-2.93-1.81-4.24-2.85-6.4-5.08-13.6-8-21.83-8.21-2.68-.07-4.99.64-6.37,3.1-1.43,2.56-1.54,5.3.15,7.71,3.88,5.53,8.57,10.33,14.67,13.36,4.35,2.16,8.76,4.22,13.07,6.48-.26.15-.48,0-.74-.07-6.53-1.81-13.08-3.58-19.86-4.26-4.56-.45-9.15-.6-13.42,1.5-2.99,1.48-5.19,3.76-5.04,7.33.15,3.38,2.49,5.42,5.22,6.96,2.01,1.14,4.33,1.44,6.65,1.88-.36.59-.85.45-1.24.52-2.24.45-4.52.88-6.4,2.24-4.79,3.48-5.78,7.54-2.08,11.65,1.18,1.32,2.68,2.19,4.37,2.73,3.96,1.28,8.01,1.27,12.09.83,6.92-.74,13.6-2.55,20.33-4.33-3.72,1.96-7.4,4.03-11.29,5.7-6.82,2.92-11.79,8.04-16.14,13.83-1.9,2.53-1.88,5.4-.32,8.12ZM152.17,163.92c-3.38,6.24-8.08,11.45-14.96,14.11-3.47,1.34-5.19.46-6.62-3-.74-1.79-.9-3.67-1.02-5.33.22-3.7,1.26-6.95,2.87-9.98,5.23-9.88,11.9-18.66,20.43-25.95,2.04-1.74,3.72-3.81,5.54-5.75.52-.56.86-.71,1.38-.04.4.51,1.17.83.28,1.63-1.49,1.34-2.82,2.87-4.43,4.09-.64.49-1.2,1.12-.58,1.91.61.77,1.36.43,2.01-.07,1.65-1.26,3.05-2.79,4.55-4.21.36-.34.55-1.11,1.41-.59.73.45.72.98.57,1.65-.92,4.07-2.14,8.05-3.45,12.01-2.22,6.69-4.64,13.33-7.98,19.51ZM183.12,168.54c-.14,5.34-.99,10.63-4.68,14.93-1.1,1.28-2.24,2.48-3.87,3.16-2.97,1.23-5.52.5-7.78-1.54-3.43-3.09-4.94-7.12-5.72-11.57-1.08-6.26-.15-12.45.34-18.66.57-7.21,2.71-13.99,5.4-20.65.52-1.29,1.24-1.3,2.35-1.2,1.34.12,1.14,1.05,1.21,1.86.08.97.11,1.95.14,2.56,0,1.29.03,2.21,0,3.13-.05.97.44,1.45,1.34,1.45.9,0,1.41-.47,1.34-1.44-.15-1.96.02-3.91.14-5.86.05-.8-.02-1.64,1.2-1.69.99-.05,1.82-.28,2.29,1.06,1.94,5.45,4.18,10.78,4.91,16.62.74,5.94,1.54,11.88,1.38,17.85ZM206.06,150.95c3.22,5.02,6.52,10,7.73,15.99.68,3.37.28,6.59-1.45,9.59-.87,1.5-1.88,2.1-3.54,2.11-3.4-.46-6.4-2.31-9.12-4.74-4.82-4.3-8.31-9.43-10.76-15.46-3.4-8.38-6.65-16.78-8.7-25.61-.06-.26-.13-.52-.19-.79-.14-.63.2-.97.68-1.31.64-.46.86.08,1.18.38,1.51,1.41,2.99,2.85,4.52,4.24.66.6,1.53,1.17,2.25.22.64-.85-.11-1.44-.75-2.01-1.46-1.31-2.84-2.7-4.29-4-.78-.7-.22-1.04.23-1.51.45-.47.74-.81,1.39-.13,7.14,7.5,15.18,14.18,20.84,23.03ZM213.05,130.32c2.37,1.18,4.75,2.36,7.16,3.44,6.25,2.78,10.8,7.55,14.89,12.81,1.34,1.73,1.42,3.73.36,5.66-1.01,1.83-2.78,2.04-4.66,1.95-1.68-.08-3.36-.21-5.01-.52-6.12-1.16-11.29-4.17-16.17-7.94-4.74-3.66-9.33-7.45-13.32-11.95-1.15-1.29-2.51-2.41-3.8-3.57-1.54-1.39-2.85-2.96-3.81-4.9,1.9,1.11,3.79,2.24,5.71,3.32.71.4,1.58.9,2.15-.06.63-1.04-.24-1.54-1.02-2-2.32-1.38-4.77-2.55-6.86-4.24.19-.54.56-.51.95-.43,8.25,1.57,15.93,4.73,23.41,8.43ZM228.19,113.81c4.01.14,7.99.81,11.89,1.81,2.54.66,4.52,2.04,5.83,4.34.58,1.02.6,2.01.12,3.1-1.08,2.46-3.09,3.67-5.55,4.34-4.92,1.35-9.81.64-14.7-.17-7.88-1.3-15.43-3.92-23.15-5.89-3.98-1.02-7.87-2.48-12.1-2.62.05-1.63.69-1.96,2.08-1.53,1.46.45,2.86.99,4.19,1.71.69.37,1.4.53,1.82-.3.38-.76-.01-1.32-.72-1.74-1.71-.99-3.52-1.67-5.45-2.07-.39-.08-1.1.12-1.02-.7.08-.72.66-.42,1.02-.42,11.91.09,23.82-.29,35.73.13ZM233.32,96.58c3.04-.19,6.07.13,8.91,1.37,2.29,1,4.1,2.66,4.09,5.19,0,2.3-1.77,3.93-3.76,4.95-3.44,1.77-7.28,2.1-11.04,2.5-7.85.85-15.74.45-23.61.46-5.11,0-10.22.01-15.33-.01-.4,0-1.06.35-1.15-.45-.09-.81.65-.59,1.04-.67,1.86-.43,3.63-1.03,5.29-1.99.75-.44,1.27-.97.84-1.82-.47-.92-1.28-.63-1.97-.23-1.27.74-2.65,1.2-4.05,1.63-1.35.42-2.05.14-2.03-1.41,6.14-.78,11.98-2.64,17.85-4.32,8.18-2.34,16.36-4.65,24.9-5.2ZM211.05,77.9c6.05-4.29,12.44-7.18,19.94-7.35,1.83-.04,3.53.19,4.49,1.97,1.01,1.87.99,3.79-.29,5.52-3.62,4.89-7.75,9.38-13.26,12.05-5.21,2.52-10.24,5.44-15.66,7.49-5.36,2.03-10.62,4.4-16.38,5.16-.4.05-.91.42-1.1-.19-.15-.46.44-.55.71-.72,2.02-1.26,4.05-2.5,6.11-3.71.75-.44,1.52-.91,1.01-1.88-.53-1-1.39-.58-2.12-.17-1.93,1.09-3.84,2.21-6.18,3.57.99-1.6,1.78-2.78,2.8-3.74,6.54-6.11,12.55-12.78,19.93-18.01ZM191.2,61.42c3.29-6.4,8.06-11.59,14.78-14.56,3.93-1.73,6.05-.57,7.38,3.54.49,1.52.63,3.08.79,4.69-.31,3.85-1.53,7.48-3.4,10.89-5.27,9.61-11.86,18.17-20.25,25.28-1.92,1.63-3.47,3.59-5.17,5.43-.6.65-.93.61-1.52,0-.57-.59-.86-.97-.09-1.64,1.43-1.25,2.76-2.62,4.18-3.89.64-.57,1.39-1.16.74-2.01-.72-.94-1.58-.37-2.25.23-1.45,1.31-2.84,2.69-4.3,4-.37.33-.56,1.13-1.41.62-.78-.48-.75-1.09-.58-1.81.89-3.74,1.94-7.42,3.16-11.07,2.24-6.73,4.7-13.39,7.93-19.69ZM160.58,56.88c.1-5.56.92-11,4.63-15.58,4.08-5.04,9.2-5.04,13.32.01,2.93,3.59,3.95,7.81,4.4,12.21.68,6.75-.39,13.42-1.13,20.1-.66,5.96-2.94,11.39-4.93,16.94-.49,1.35-1.33,1.22-2.39,1.15-1.26-.08-1.07-.98-1.14-1.75-.09-.97-.13-1.95-.17-2.66,0-1.14-.06-2.01.02-2.87.1-1.07-.27-1.76-1.37-1.74-1.13.03-1.3.8-1.29,1.82.03,1.95-.15,3.9-.18,5.86-.01.76-.18,1.31-1.04,1.29-.82-.02-1.81.61-2.31-.72-2.28-6.02-4.6-12-5.29-18.5-.55-5.19-1.23-10.37-1.13-15.58ZM139.98,77.05c-3.87-5.56-7.83-11.07-9.68-17.73-.2-.73-.4-1.46-.53-2.21-.12-.69-.14-1.4-.19-2.02.14-2.55.5-4.95,1.88-7.07,1.13-1.74,2.41-2.22,4.45-1.75,3.27.75,5.95,2.54,8.38,4.77,4.46,4.09,7.87,8.82,10.2,14.5,3.53,8.63,6.9,17.29,9.02,26.39.07.32.12.64.19.96.14.64-.37.83-.74,1.12-.52.41-.76-.05-1.06-.33-1.5-1.42-2.98-2.86-4.51-4.25-.66-.6-1.5-1.23-2.26-.35-.8.92.08,1.51.74,2.11,1.45,1.31,2.83,2.7,4.28,4.01.83.75.07,1.07-.32,1.5-.36.4-.64.85-1.25.17-6.1-6.7-13.36-12.31-18.59-19.83ZM130.83,94.48c-2.33-1.15-4.65-2.31-7.03-3.35-6.33-2.77-10.94-7.53-15.1-12.82-.92-1.17-1.39-2.55-1.06-4.12.53-2.48,1.87-3.62,4.43-3.63,6.72-.03,12.85,1.94,18.29,5.79,5.8,4.11,11.55,8.34,16.22,13.79,2.3,2.68,5.37,4.6,7.46,7.5.38.52.74,1.05,1.12,1.58-.07.06-.14.11-.2.17-1.82-1.05-3.65-2.11-5.48-3.15-.8-.45-1.74-1.13-2.38.04-.58,1.06.42,1.5,1.17,1.95,2.04,1.23,4.21,2.25,6.1,3.71.23.17.71.21.57.64-.17.52-.61.28-.97.21-8.17-1.5-15.74-4.64-23.13-8.3ZM115.52,110.92c-4.01-.14-7.99-.81-11.9-1.82-2.11-.54-3.89-1.6-5.21-3.39-1.42-1.94-1.46-3.35-.02-5.32,2.07-2.82,5.19-3.39,8.35-3.67,6.43-.57,12.64.85,18.79,2.42,7.65,1.95,15.25,4.1,22.87,6.16,1.53.41,3.08.65,4.73.68-.02,1.61-.66,1.98-2.05,1.54-1.4-.45-2.77-.9-4.05-1.64-.7-.4-1.5-.67-1.95.27-.42.86.14,1.38.88,1.81,1.66.96,3.44,1.56,5.3,1.98.39.09,1.11-.11,1.01.71-.09.71-.67.41-1.03.41-11.91-.08-23.82.29-35.72-.13ZM154.55,112.25c.04-3.33.89-6.4,2.88-9.14,1.63-2.25,3.54-4.24,5.52-6.18,4.3-4.21,13.1-4.1,17-.62,3.46,3.08,6.88,6.25,8.35,10.8,1.65,5.13,1.11,10.06-2.07,14.56-1.57,2.23-3.46,4.16-5.4,6.06-4.37,4.29-13.16,4.17-17.14.62-3.41-3.05-6.69-6.22-8.27-10.68-.62-1.75-.96-3.56-.86-5.44ZM110.19,128.17c-2.93.17-5.85-.2-8.62-1.34-.05-.02-.1-.04-.15-.07-2.2-1.02-3.98-2.59-4.04-5.07-.06-2.36,1.74-3.93,3.67-5.02,2.84-1.61,6.1-1.83,9.25-2.34,5.66-.91,11.38-.69,17.08-.74,7.83-.06,15.66.03,23.49.06.22,0,.44-.01.65,0,.3.02.66-.11.75.37.1.53-.21.62-.64.7-1.82.34-3.57.88-5.2,1.79-.81.45-1.89.84-1.35,2.01.59,1.28,1.55.49,2.34.09,1.16-.59,2.38-1.01,3.62-1.41,1.45-.47,2.14-.1,2.07,1.37-6.89,1.04-13.49,3.15-20.15,5.04-7.47,2.13-14.99,4.08-22.78,4.54ZM108.56,146.64c3.72-4.95,7.9-9.54,13.57-12.18,5.59-2.59,10.9-5.78,16.73-7.88,4.88-1.76,9.64-3.89,14.85-4.58.41-.05.9-.44,1.16.07.29.58-.41.66-.69.84-1.97,1.24-3.98,2.42-5.98,3.61-.76.46-1.69.94-1.07,1.99.62,1.06,1.53.45,2.27.03,1.87-1.06,3.73-2.16,5.99-3.47-.99,1.63-1.79,2.8-2.82,3.76-6.54,6.11-12.55,12.78-19.94,18.01-6,4.25-12.36,7.12-19.8,7.32-1.89.05-3.63-.16-4.63-2.02-1.02-1.89-.93-3.82.35-5.52Z"/>
        <path class="cls-2" d="M163.69,128.37c3.98,3.55,12.77,3.66,17.14-.62,1.94-1.9,3.83-3.84,5.4-6.06,3.18-4.5,3.73-9.43,2.07-14.56-1.47-4.56-4.89-7.72-8.35-10.8-3.91-3.47-12.7-3.59-17,.62-1.98,1.94-3.89,3.93-5.52,6.18-1.99,2.74-2.84,5.81-2.88,9.14-.1,1.88.24,3.69.86,5.44,1.59,4.46,4.86,7.63,8.27,10.68Z"/>
        <path class="cls-3" d="M167,90.96c.5,1.32,1.49.7,2.31.72.85.02,1.02-.54,1.04-1.29.03-1.95.2-3.91.18-5.86-.01-1.02.16-1.8,1.29-1.82,1.1-.03,1.47.67,1.37,1.74-.08.86-.02,1.74-.02,2.87.04.71.08,1.69.17,2.66.07.77-.12,1.67,1.14,1.75,1.06.07,1.91.2,2.39-1.15,1.99-5.55,4.27-10.98,4.93-16.94.74-6.69,1.81-13.36,1.13-20.1-.44-4.4-1.47-8.62-4.4-12.21-4.12-5.06-9.24-5.05-13.32-.01-3.71,4.59-4.53,10.02-4.63,15.58-.1,5.2.58,10.39,1.13,15.57.69,6.5,3.01,12.48,5.29,18.5Z"/>
        <path class="cls-3" d="M176.83,134.07c-.47-1.33-1.3-1.1-2.29-1.06-1.22.06-1.15.9-1.2,1.69-.12,1.95-.29,3.9-.14,5.86.07.97-.44,1.44-1.34,1.44-.9,0-1.38-.48-1.34-1.45.04-.92,0-1.85,0-3.13-.03-.61-.05-1.59-.14-2.56-.07-.81.12-1.74-1.21-1.86-1.12-.1-1.83-.09-2.35,1.2-2.69,6.66-4.83,13.44-5.4,20.65-.49,6.22-1.42,12.41-.34,18.66.77,4.45,2.29,8.48,5.72,11.57,2.27,2.04,4.82,2.76,7.78,1.54,1.63-.67,2.77-1.88,3.87-3.16,3.69-4.3,4.53-9.59,4.68-14.93.16-5.97-.64-11.91-1.38-17.85-.73-5.84-2.98-11.16-4.91-16.62Z"/>
        <path class="cls-3" d="M180.11,92.17c-.17.73-.2,1.34.58,1.81.85.51,1.04-.28,1.41-.62,1.45-1.31,2.84-2.69,4.3-4,.67-.6,1.53-1.17,2.25-.23.64.85-.1,1.44-.74,2.01-1.42,1.26-2.75,2.63-4.18,3.89-.77.68-.48,1.05.09,1.64.59.61.91.66,1.52,0,1.7-1.83,3.25-3.8,5.17-5.43,8.39-7.11,14.98-15.67,20.25-25.28,1.87-3.41,3.09-7.03,3.4-10.89-.16-1.62-.3-3.17-.79-4.69-1.32-4.12-3.45-5.28-7.38-3.54-6.73,2.97-11.5,8.15-14.78,14.56-3.23,6.3-5.69,12.96-7.93,19.69-1.22,3.65-2.27,7.33-3.16,11.07Z"/>
        <path class="cls-3" d="M185.22,127.93c-.65-.68-.94-.35-1.39.13-.45.47-1.01.82-.23,1.51,1.46,1.3,2.84,2.69,4.29,4,.64.57,1.39,1.16.75,2.01-.72.95-1.58.38-2.25-.22-1.53-1.39-3.01-2.83-4.52-4.24-.32-.3-.54-.84-1.18-.38-.48.35-.83.68-.68,1.31.06.26.13.52.19.79,2.05,8.83,5.3,17.23,8.7,25.61,2.44,6.03,5.93,11.16,10.76,15.46,2.72,2.43,5.72,4.28,9.12,4.74,1.66,0,2.67-.6,3.54-2.11,1.73-3,2.13-6.22,1.45-9.59-1.2-5.99-4.51-10.97-7.73-15.99-5.67-8.84-13.7-15.52-20.84-23.03Z"/>
        <path class="cls-3" d="M158.57,96.88c.62.68.89.23,1.25-.17.39-.43,1.15-.75.32-1.5-1.45-1.31-2.83-2.7-4.28-4.01-.67-.6-1.54-1.19-.74-2.11.76-.88,1.61-.25,2.26.35,1.52,1.4,3.01,2.83,4.51,4.25.29.28.54.74,1.06.33.37-.29.89-.48.74-1.12-.07-.32-.12-.64-.19-.96-2.12-9.1-5.49-17.76-9.02-26.39-2.33-5.68-5.74-10.41-10.2-14.5-2.43-2.23-5.1-4.02-8.38-4.77-2.05-.47-3.33.01-4.45,1.75-1.38,2.12-1.74,4.52-1.88,7.07.06.61.08,1.32.19,2.02.13.75.32,1.48.53,2.21,1.85,6.66,5.81,12.16,9.68,17.73,5.23,7.52,12.49,13.13,18.59,19.83Z"/>
        <path class="cls-3" d="M163.61,132.4c.15-.67.15-1.2-.57-1.65-.86-.53-1.05.25-1.41.59-1.5,1.42-2.9,2.95-4.55,4.21-.66.5-1.41.83-2.01.07-.62-.79-.07-1.42.58-1.91,1.61-1.23,2.93-2.75,4.43-4.09.89-.8.12-1.12-.28-1.63-.52-.67-.86-.51-1.38.04-1.82,1.94-3.5,4.01-5.54,5.75-8.53,7.29-15.2,16.07-20.43,25.95-1.6,3.03-2.64,6.28-2.87,9.98.11,1.66.28,3.54,1.02,5.33,1.43,3.46,3.15,4.35,6.62,3,6.88-2.66,11.58-7.87,14.96-14.11,3.34-6.18,5.76-12.82,7.98-19.51,1.32-3.97,2.54-7.94,3.45-12.02Z"/>
        <path class="cls-3" d="M112.84,154.18c7.44-.2,13.79-3.07,19.8-7.32,7.38-5.23,13.39-11.9,19.94-18.01,1.03-.96,1.83-2.14,2.82-3.76-2.27,1.32-4.12,2.41-5.99,3.47-.75.42-1.66,1.02-2.27-.03-.62-1.05.31-1.53,1.07-1.99,2-1.19,4.01-2.37,5.98-3.61.28-.18.99-.25.69-.84-.26-.51-.75-.13-1.16-.07-5.21.69-9.97,2.82-14.85,4.58-5.83,2.1-11.14,5.29-16.73,7.88-5.68,2.63-9.86,7.23-13.57,12.18-1.28,1.7-1.37,3.63-.35,5.52,1,1.86,2.74,2.07,4.63,2.02Z"/>
        <path class="cls-3" d="M188.69,122.32c2.1,1.69,4.55,2.86,6.86,4.24.78.46,1.65.96,1.02,2-.58.95-1.45.46-2.15.06-1.92-1.08-3.81-2.21-5.71-3.32.96,1.95,2.27,3.52,3.81,4.9,1.29,1.16,2.65,2.28,3.8,3.57,3.99,4.49,8.58,8.28,13.32,11.95,4.87,3.76,10.05,6.77,16.17,7.94,1.66.32,3.33.44,5.01.52,1.88.09,3.65-.12,4.66-1.95,1.06-1.93.98-3.93-.36-5.66-4.1-5.26-8.64-10.03-14.89-12.81-2.42-1.08-4.79-2.26-7.16-3.44-7.48-3.7-15.16-6.86-23.41-8.43-.4-.08-.76-.11-.95.43Z"/>
        <path class="cls-3" d="M188.32,99.64c2.34-1.36,4.25-2.48,6.18-3.57.72-.41,1.59-.83,2.12.17.51.96-.26,1.43-1.01,1.88-2.05,1.21-4.09,2.45-6.11,3.71-.28.17-.86.26-.71.72.19.6.7.24,1.1.19,5.76-.77,11.02-3.13,16.38-5.16,5.42-2.05,10.45-4.97,15.66-7.49,5.51-2.67,9.64-7.16,13.26-12.05,1.28-1.73,1.3-3.65.29-5.52-.96-1.78-2.66-2.01-4.49-1.97-7.49.17-13.89,3.06-19.94,7.35-7.38,5.23-13.38,11.9-19.93,18.01-1.03.96-1.82,2.14-2.8,3.74Z"/>
        <path class="cls-3" d="M154.93,102.57c.14-.42-.34-.46-.57-.64-1.9-1.46-4.07-2.48-6.1-3.71-.75-.45-1.74-.9-1.17-1.95.64-1.17,1.58-.49,2.38-.04,1.83,1.04,3.65,2.1,5.48,3.15.07-.06.14-.11.2-.17-.37-.53-.74-1.06-1.12-1.58-2.08-2.9-5.16-4.82-7.46-7.5-4.68-5.46-10.42-9.68-16.22-13.79-5.44-3.85-11.58-5.82-18.29-5.79-2.56.01-3.9,1.16-4.43,3.63-.33,1.56.14,2.95,1.06,4.12,4.16,5.29,8.77,10.06,15.1,12.82,2.38,1.04,4.71,2.2,7.03,3.35,7.39,3.67,14.97,6.81,23.13,8.3.36.07.8.3.97-.21Z"/>
        <path class="cls-3" d="M151.25,111.05c.36,0,.94.3,1.03-.41.1-.82-.61-.62-1.01-.71-1.86-.42-3.64-1.02-5.3-1.98-.74-.43-1.3-.95-.88-1.81.45-.94,1.25-.67,1.95-.27,1.28.74,2.65,1.2,4.05,1.64,1.39.44,2.03.07,2.05-1.54-1.65-.03-3.2-.27-4.73-.68-7.62-2.06-15.22-4.21-22.87-6.16-6.15-1.57-12.36-2.99-18.79-2.42-3.16.28-6.28.85-8.35,3.67-1.44,1.97-1.4,3.38.02,5.32,1.31,1.8,3.09,2.85,5.21,3.39,3.9,1.01,7.88,1.68,11.9,1.82,11.9.42,23.81.04,35.72.13Z"/>
        <path class="cls-3" d="M190.57,106.1c-.03,1.56.68,1.83,2.03,1.41,1.4-.43,2.77-.89,4.05-1.63.69-.4,1.49-.69,1.97.23.43.84-.09,1.38-.84,1.82-1.66.96-3.43,1.57-5.29,1.99-.38.09-1.13-.14-1.04.67.08.79.75.44,1.15.45,5.11.03,10.22.02,15.33.01,7.87-.01,15.76.39,23.61-.46,3.76-.4,7.6-.73,11.04-2.5,1.99-1.02,3.75-2.65,3.76-4.95,0-2.53-1.8-4.19-4.09-5.19-2.85-1.24-5.87-1.57-8.91-1.37-8.54.54-16.72,2.85-24.9,5.2-5.87,1.68-11.71,3.54-17.85,4.32Z"/>
        <path class="cls-3" d="M153.12,118.59c.06-1.47-.62-1.83-2.07-1.37-1.24.4-2.45.82-3.62,1.41-.79.4-1.74,1.19-2.34-.09-.54-1.17.54-1.56,1.35-2.01,1.63-.91,3.38-1.45,5.2-1.79.42-.08.73-.16.64-.7-.09-.48-.45-.35-.75-.37-.22-.02-.43,0-.65,0-7.83-.03-15.66-.12-23.49-.06-5.7.04-11.42-.17-17.08.74-3.15.51-6.4.73-9.25,2.34-1.93,1.09-3.73,2.65-3.67,5.02.06,2.47,1.85,4.05,4.04,5.07.05.02.1.05.15.07,2.76,1.14,5.69,1.52,8.62,1.34,7.79-.46,15.3-2.41,22.78-4.54,6.65-1.89,13.26-4,20.15-5.04Z"/>
        <path class="cls-3" d="M192.46,113.68c-.36,0-.94-.3-1.02.42-.09.82.63.62,1.02.7,1.93.4,3.74,1.08,5.45,2.07.71.41,1.1.98.72,1.74-.41.84-1.13.67-1.82.3-1.34-.71-2.74-1.26-4.19-1.71-1.38-.43-2.02-.1-2.08,1.53,4.23.13,8.12,1.6,12.1,2.62,7.71,1.97,15.26,4.58,23.15,5.89,4.89.81,9.78,1.52,14.7.17,2.46-.67,4.47-1.88,5.55-4.34.48-1.09.46-2.08-.12-3.1-1.31-2.3-3.29-3.69-5.83-4.34-3.9-1.01-7.88-1.67-11.89-1.81-11.9-.42-23.82-.04-35.73-.13Z"/>
      </g>
      <path class="cls-5" d="M173.69,189.64c2.44-.75,4.57-2.31,6.32-4.36,3.86-4.5,5.05-9.89,5.32-15.55.24-4.97-.14-9.94-.63-14.91.7,1.34,1.4,2.68,1.9,4.08,2.3,6.36,5.97,11.76,11,16.28,2.78,2.5,5.76,4.59,9.47,5.48,3.44.83,5.91-.25,7.56-3.42,2.06-3.96,2.19-8.11,1.06-12.34-1.75-6.57-5.52-12.07-9.33-17.55-.43-.62-.88-1.24-1.31-1.86,2.36,1.4,4.44,3.03,6.6,4.56,5.87,4.16,12.42,6.32,19.61,6.47,3.48.07,5.99-1.58,6.83-4.42.69-2.36.56-4.67-.94-6.67-4.32-5.75-9.24-10.84-15.96-13.79-3.95-1.73-7.72-3.8-11.54-5.8,4.61,1.16,9.17,2.49,13.85,3.34,5.35.98,10.72,1.82,16.18.8,3.33-.62,6.21-1.95,8-5,1.33-2.25,1.4-4.48-.07-6.73-1.69-2.59-4.05-4.17-7.02-4.91-1.26-.32-2.53-.6-3.8-.9,2.49-.67,4.98-1.07,7.11-2.41,2.55-1.6,4.75-3.64,4.73-6.93-.02-3.4-2.13-5.57-4.98-7.07-2.51-1.31-5.26-1.65-8.04-1.72-5.7-.15-11.24.92-16.74,2.24-3.08.74-6.13,1.56-9.19,2.35,3.49-1.91,6.94-3.86,10.58-5.37,6.93-2.88,11.97-7.96,16.51-13.65,2.08-2.6,2.36-5.56.75-8.53-1.58-2.91-4.33-3.31-7.31-3.15-7.92.42-14.84,3.33-20.99,8.24-1.29,1.03-2.61,2.01-3.91,3.02.23-.88.69-1.51,1.13-2.16,3.8-5.49,7.58-10.99,9.31-17.57,1.11-4.23.95-8.39-1.12-12.34-1.5-2.87-3.93-4.12-6.82-3.52-2.03.42-4.02,1.06-5.72,2.25-5.97,4.17-10.95,9.22-13.86,16.05-1.11,2.59-2.26,5.17-3.4,7.75-.14-.61-.05-1.15-.01-1.68.46-5.79,1.01-11.58.12-17.39-.81-5.27-2.78-9.93-6.97-13.38-1.61-1.32-3.41-2.44-5.62-2.56-2.92-.16-5.19,1.3-7.2,3.12-4.94,4.47-6.41,10.43-6.74,16.75-.26,5.03.11,10.06.62,15.09-.48-.85-.91-1.7-1.25-2.59-2.57-6.72-6.02-12.83-11.54-17.65-2.81-2.46-5.74-4.62-9.44-5.53-3.59-.88-5.96.12-7.7,3.41-2.06,3.9-2.19,8.01-1.1,12.19,1.73,6.64,5.55,12.18,9.39,17.71.43.62.88,1.23,1.33,1.84-1.59-.8-2.93-1.81-4.24-2.85-6.4-5.08-13.6-8-21.83-8.21-2.68-.07-4.99.64-6.37,3.1-1.43,2.56-1.54,5.3.15,7.71,3.88,5.53,8.57,10.33,14.67,13.36,4.35,2.16,8.76,4.22,13.07,6.48-.26.15-.48,0-.74-.07-6.53-1.81-13.08-3.58-19.86-4.26-4.56-.45-9.15-.6-13.42,1.5-2.99,1.48-5.19,3.76-5.04,7.33.15,3.38,2.49,5.42,5.22,6.96,2.01,1.14,4.33,1.44,6.65,1.89-.36.59-.85.45-1.24.52-2.24.45-4.52.88-6.4,2.24-4.79,3.48-5.78,7.54-2.08,11.65,1.18,1.32,2.68,2.19,4.37,2.73,3.96,1.28,8.01,1.27,12.09.83,6.92-.74,13.6-2.55,20.33-4.33-3.72,1.96-7.4,4.03-11.29,5.7-6.82,2.92-11.79,8.04-16.14,13.83-1.9,2.53-1.88,5.41-.33,8.13,1.51,2.65,4.08,3.13,6.9,3.01,8.04-.34,15.07-3.26,21.32-8.24,1.29-1.03,2.62-2,4.03-3.08.1.68-.28.88-.48,1.15-3.1,4.2-5.94,8.57-8.16,13.29-2.34,4.98-3.53,10.16-1.72,15.61,1.75,5.25,5.17,7,10.22,4.84,7.79-3.32,13.04-9.35,16.74-16.81,1.37-2.75,2.5-5.62,3.74-8.44.14.62.07,1.15.02,1.69-.48,5.79-1,11.58-.1,17.39.81,5.21,2.76,9.82,6.88,13.27,2.29,1.91,5,3.37,8.01,2.44Z"/>
    </g>
  </g>
</svg>