<?xml version="1.0" encoding="UTF-8"?>
<svg id="Layer_2" data-name="Layer 2" xmlns="http://www.w3.org/2000/svg" viewBox="0 0 155.73 286.02">
  <defs>
    <style>
      .cls-1 {
        fill: #477381;
      }

      .cls-2 {
        fill: #0c0d0c;
      }

      .cls-3 {
        fill: #fff;
      }

      .cls-4 {
        fill: #0d0d0c;
      }

      .cls-5 {
        fill: none;
        stroke: #010101;
        stroke-linecap: round;
        stroke-linejoin: round;
        stroke-width: 1.32px;
      }

      .cls-6 {
        fill: #94a4a4;
      }

      .cls-7 {
        fill: #282525;
      }

      .cls-8 {
        fill: #a7d9c4;
      }

      .cls-9 {
        fill: #080808;
      }

      .cls-10 {
        fill: #e1be31;
      }
    </style>
  </defs>
  <g id="Layer_6" data-name="Layer 6">
    <g>
      <path class="cls-9" d="M138.83,52.05c-5.96-5.48-13.33-7.52-21.18-7.76-6.22-.19-11.92,2.01-17.32,4.96-2.32,1.27-4.64,2.53-6.83,4.18-.03-.49.18-.64.36-.84,2.54-2.89,5.38-5.45,8.26-7.98,2.03-1.79,4.22-2.21,6.77-1.78,6.88,1.16,13.73.46,20.55-.61,3.97-.62,7.36-2.72,10.89-4.44,7.29-3.53,12.26-9.08,14.83-16.77,1.65-4.96-.32-10.48-4.79-13.24-2.65-1.64-5.59-2.39-8.63-2.94-6.6-1.2-12.92-.47-18.78,2.83-5.33,3-9.62,7.2-12.88,12.4-3.4,5.42-6.52,10.99-8.24,17.22-.25.89-.67,1.66-1.43,2.28-1.14.94-2.2,1.98-3.26,3.01-1.37,1.32-2.72,2.67-4.22,4.14.19-.5.28-.82.42-1.11,3.3-7.12,5.06-14.6,5.12-22.43.04-5.57-.49-11.06-2.92-16.22-2.39-5.06-8.86-8.87-15.57-5.89-7.91,3.52-11.58,10.11-12.85,18.2-.75,4.74.74,9.25,2.57,13.62,1.9,4.56,4.88,8.48,7.37,12.7,2.43,4.13,4.15,8.47,4.39,13.31.03.59-.1,1.05-.53,1.51-1.65,1.74-3.03,3.71-4.4,5.68-2.68,3.85-5.18,7.82-7.7,12.25.14-3.14.01-5.87-.06-8.61-.16-6.22-1.14-12.25-3.86-17.92-2.73-5.7-7.48-9.02-13.38-10.42-4.46-1.05-8.04,1.35-10.64,4.79-4.84,6.41-5.52,13.51-2.71,20.97,2.5,6.63,6.39,12.41,11.15,17.62,4.01,4.39,6.42,9.54,7.14,15.45.07.61.1,1.19-.21,1.78-1.83,3.52-2.84,7.33-3.94,11.11-.85,2.94-1.38,5.93-1.89,8.96-.06-.29-.12-.58-.18-.87-1.23-5.84-3-11.52-5.55-16.92-2.49-5.28-6-9.69-11.29-12.51-4.51-2.41-8.83-2.4-13.07.6-2.68,1.9-4.31,4.56-5.48,7.52-2.21,5.59-2.02,11.33-.35,16.97,2.02,6.85,6.16,12.41,11.6,16.94,4.01,3.34,8.59,5.69,13.81,6.58,2.56.44,5.12.9,7.67,1.35-.42,5.14.23,10.16,1.17,15.13.41,2.16,1.33,4.18,2.98,5.74,1.58,1.51,3.75,1.65,5.8.45,1.44-.84,1.82-2.09,1.3-4.38-.45-1.96-.91-3.91-1.38-5.87-.11-.47-.19-.87.26-1.29,1.49-1.37,3.01-2.64,5.03-3.19,1.77-.48,3.55-.91,5.35-1.26,6.3-1.21,12.76-1.53,18.93-3.34,8.59-2.53,15.14-7.52,18.14-16.28,1.31-3.83.8-7.47-1.87-10.72-1.91-2.33-4.27-3.95-7.06-5.01-5.84-2.21-11.63-2.42-17.44.17-8.8,3.92-15.09,10.53-19.96,18.63-1.14,1.9-2.09,3.92-3.25,6.12-.16-1.75-.23-3.23-.05-4.69.88-7.16,2.29-14.2,4.01-21.21,1.18-4.8,4.22-6.55,8.55-7.16,1.21-.17,2.44-.28,3.62-.59,3.68-.94,7.36-.73,11.04-.14,5.43.87,10.86,1.9,16.38,1.65,7.55-.34,13.86-3.03,17.14-10.36,2.61-5.83,1.79-11.74-4.73-15.35-2.9-1.61-5.91-2.84-9.12-3.6-5.46-1.3-10.95-1.44-16.24.51-4.92,1.81-9.3,4.64-13.03,8.38-.67.67-1.34,1.33-2,1.99,1.12-1.83,2.01-3.77,3.15-5.56,1.4-2.21,2.87-4.38,4.37-6.52,1-1.42,1.82-2.98,3.19-4.11,3.33-2.73,7.08-2.84,11.04-1.91,3.16.74,6.16,1.99,9.26,2.91,4.78,1.41,9.63,2.56,14.41,3.97,7.27,2.15,14.17,1.09,20.87-2.11,2-.96,3.7-2.31,4.72-4.37,2.79-5.61,1.62-11.72-3.37-16.31ZM140.55,67.49c-.72,1.51-1.97,2.58-3.44,3.31-6.4,3.21-13.03,4.33-20.05,2.21-5.27-1.59-10.68-2.7-15.93-4.4-2.99-.97-5.92-2.13-9.03-2.74-5.15-1-10.59.09-14.37,6.15-1.96,3.15-3.96,6.3-6.22,9.22-2.37,3.06-4.19,6.44-6.1,9.76-1.1,1.92-1.86,4.03-2.76,6.06-.26.59-.41,1.23.35,1.58.8.36,1.12-.18,1.51-.8,5.25-8.52,11.8-15.7,21.11-19.89,5.06-2.28,10.37-2.17,15.68-1.13,3.72.73,7.23,2.07,10.38,4.24,3.78,2.59,4.85,6.1,3.65,10.53-2.03,7.44-9.76,10.83-15.37,11.01-5.31.17-10.52-.55-15.73-1.45-4.28-.74-8.56-1.09-12.86-.01-2.11.53-4.34.53-6.42,1.25-.5.17-.99.34-1.48.55-2.49,1.04-4.16,2.5-5.03,5.42-2.18,7.37-3.6,14.86-4.64,22.44-.4,2.91-.01,5.84-.23,8.76-.07.89.49,1.22,1.24,1.41.89.22,1.13-.42,1.41-1.03,1.9-4.13,3.78-8.28,6.48-11.97,4.69-6.41,10.23-11.91,17.83-14.73,6.89-2.56,13.56-1.81,19.45,2.78,4.16,3.24,5,7.6,2.92,12.44-2.15,5.01-5.89,8.46-10.52,11.12-4.87,2.8-10.34,3.43-15.72,4.24-4.93.74-9.86,1.39-14.66,2.8-1.58.46-2.96,1.27-4.21,2.34-.55.47-1.03,1.01-1.82,1.21-.8.21-.74.99-.6,1.65.52,2.35,1.09,4.68,1.58,7.04.2.97.75,2.07-.65,2.72-1.42.66-2.65.47-3.64-.72-1.14-1.38-1.84-3-2.15-4.74-.66-3.74-1.13-7.51-1.18-11.32-.02-1.31.06-2.61.43-3.89.2-.71-.03-1.4-.81-1.28-2.46.37-4.75-.47-7.1-.85-13.14-2.16-21.12-10.4-25.47-22.39-1.92-5.29-1.85-10.91.41-16.29,1.54-3.67,3.94-6.45,7.81-7.8,1.77-.62,3.51-.55,5.26.04,4.72,1.59,8.18,4.72,10.9,8.8,3.01,4.51,4.6,9.61,6.21,14.7,1.89,6.01,2.54,12.22,2.94,18.46.04.6-.12,1.3.7,1.5.77.19.81-.58,1.19-.95.65-.63.75-1.33.66-2.14-1.08-9.82.77-19.22,4.78-28.08,1.75-3.88.73-7.11-.27-10.56-1.25-4.33-3.81-7.93-6.81-11.24-4.42-4.88-7.96-10.31-10.27-16.5-2.41-6.45-1.87-12.6,1.96-18.4,2.19-3.31,6.38-5.61,9.42-4.74,5.13,1.46,9.43,4.19,11.83,9.21,1.9,3.98,3.14,8.15,3.47,12.57.27,3.7.49,7.4.44,11.11-.03,2.28-.18,4.52-1.22,6.62-.31.62-.45,1.32-.45,2.03,0,.77.17,1.41.99,1.64.82.22,1.25-.38,1.53-.95.42-.86.66-1.8,1.03-2.68,1.95-4.76,4.77-9.02,7.61-13.26,1.99-2.97,3.96-5.95,6.44-8.55.46-.48.44-1.07.42-1.71-.2-5.88-2.45-11.03-5.48-15.93-2.27-3.68-4.83-7.2-6.49-11.24-1.83-4.42-3.26-8.99-2.25-13.77,1.47-6.92,4.83-12.6,11.72-15.56,5.56-2.38,10.9.72,12.94,4.96,2.11,4.36,2.6,9.03,2.78,13.77.21,5.47-.77,10.79-2.1,16.05-.3,1.18-.84,2.3-1.27,3.44-1.09,3.39-2.81,6.5-4.26,9.73-.51,1.14-1.62,1.95-1.9,3.25-.11.5-.24.96.29,1.27.56.32,1.04.13,1.35-.38,2.98-4.93,7.49-8.46,11.44-12.5,1.04-1.06,1.91-2.27,2.98-3.34.71-.71.7-2.11,1.11-3.17,3.09-8.1,6.99-15.73,13.35-21.82,6.73-6.44,14.68-9.05,23.95-7.26,1.89.36,3.8.59,5.58,1.4,6.15,2.78,8.54,8.23,5.33,14.95-2.72,5.68-6.79,10.01-12.46,12.8-1.45.72-2.9,1.45-4.34,2.2-2.47,1.29-5.07,2.15-7.83,2.53-5.8.81-11.62,1.34-17.46.57-1.39-.18-2.85-.11-4.16-.91-.6-.36-1.34,0-1.98.35-2.64,1.46-4.61,3.71-6.82,5.68-3.43,3.06-6.39,6.57-9.26,10.13-.95,1.17-1.55,2.68-2.64,3.82-.31.33-.33.83.03,1.2.31.32.71.32,1.09.12.35-.18.78-.32.99-.61,1.89-2.55,4.63-4.07,7.08-5.95,3.15-2.42,6.62-4.27,10.2-5.9,10.55-4.79,20.68-3.61,30.38,2.41,1.98,1.23,3.55,2.96,4.79,4.96,2.23,3.57,2.3,7.26.51,11.01Z"/>
      <path class="cls-8" d="M140.04,56.48c-1.24-1.99-2.8-3.72-4.79-4.96-9.7-6.02-19.83-7.2-30.38-2.41-3.58,1.63-7.05,3.47-10.2,5.9-2.45,1.88-5.19,3.4-7.08,5.95-.22.29-.65.43-.99.61-.38.2-.78.2-1.09-.12-.36-.37-.34-.87-.03-1.2,1.09-1.15,1.69-2.65,2.64-3.82,2.87-3.56,5.83-7.07,9.26-10.13,2.21-1.97,4.18-4.23,6.82-5.68.65-.36,1.38-.72,1.98-.35,1.31.79,2.77.72,4.16.91,5.84.77,11.66.24,17.46-.57,2.76-.39,5.36-1.24,7.83-2.53,1.44-.75,2.88-1.48,4.34-2.2,5.67-2.79,9.74-7.12,12.46-12.8,3.21-6.72.82-12.17-5.33-14.95-1.78-.8-3.69-1.03-5.58-1.4-9.26-1.79-17.22.82-23.95,7.26-6.36,6.08-10.26,13.72-13.35,21.82-.4,1.06-.4,2.46-1.11,3.17-1.07,1.07-1.94,2.28-2.98,3.34-3.95,4.04-8.45,7.57-11.44,12.5-.31.51-.79.7-1.35.38-.53-.31-.4-.76-.29-1.27.28-1.31,1.39-2.11,1.9-3.25,1.45-3.23,3.17-6.34,4.26-9.73.43-1.15.97-2.26,1.27-3.44,1.33-5.26,2.3-10.58,2.1-16.05-.18-4.74-.67-9.41-2.78-13.77-2.04-4.23-7.38-7.34-12.94-4.96-6.89,2.95-10.26,8.63-11.72,15.56-1.01,4.78.42,9.34,2.25,13.77,1.67,4.04,4.22,7.56,6.49,11.24,3.03,4.91,5.29,10.06,5.48,15.93.02.64.04,1.23-.42,1.71-2.49,2.6-4.45,5.58-6.44,8.55-2.85,4.24-5.67,8.5-7.61,13.26-.36.89-.6,1.83-1.03,2.68-.28.57-.71,1.18-1.53.95-.82-.22-1-.87-.99-1.64,0-.72.15-1.42.45-2.03,1.05-2.1,1.2-4.33,1.22-6.62.04-3.71-.17-7.41-.44-11.11-.33-4.42-1.57-8.6-3.47-12.57-2.4-5.02-6.7-7.75-11.83-9.21-3.03-.86-7.23,1.44-9.42,4.74-3.83,5.79-4.37,11.95-1.96,18.4,2.31,6.19,5.85,11.62,10.27,16.5,3,3.31,5.56,6.91,6.81,11.24,1,3.45,2.03,6.68.27,10.56-4,8.86-5.86,18.27-4.78,28.08.09.81-.01,1.5-.66,2.14-.38.37-.42,1.13-1.19.95-.82-.2-.66-.9-.7-1.5-.4-6.25-1.04-12.45-2.94-18.46-1.6-5.1-3.19-10.19-6.21-14.7-2.72-4.08-6.18-7.21-10.9-8.8-1.76-.59-3.49-.66-5.26-.04-3.87,1.35-6.27,4.14-7.81,7.8-2.26,5.38-2.33,11-.41,16.29,4.35,11.99,12.33,20.23,25.47,22.39,2.35.39,4.63,1.22,7.1.85.78-.12,1.01.57.81,1.28-.36,1.27-.44,2.58-.43,3.89.05,3.81.51,7.58,1.18,11.32.31,1.74,1.01,3.36,2.15,4.74.99,1.19,2.22,1.39,3.64.72,1.39-.65.85-1.76.65-2.72-.49-2.35-1.05-4.69-1.58-7.04-.15-.67-.2-1.45.6-1.65.79-.21,1.27-.74,1.82-1.21,1.25-1.07,2.62-1.87,4.21-2.34,4.8-1.41,9.73-2.06,14.66-2.8,5.39-.81,10.85-1.45,15.72-4.24,4.63-2.65,8.36-6.11,10.52-11.12,2.08-4.84,1.24-9.19-2.92-12.44-5.89-4.59-12.56-5.34-19.45-2.78-7.59,2.82-13.13,8.33-17.83,14.73-2.7,3.69-4.58,7.84-6.48,11.97-.28.6-.52,1.25-1.41,1.03-.75-.18-1.31-.51-1.24-1.41.22-2.92-.17-5.85.23-8.76,1.04-7.58,2.45-15.07,4.64-22.44.87-2.92,2.54-4.37,5.03-5.42.48-.2.98-.38,1.48-.55,2.08-.72,4.31-.72,6.42-1.25,4.3-1.08,8.59-.72,12.86.01,5.21.9,10.42,1.62,15.73,1.45,5.61-.18,13.34-3.57,15.37-11.01,1.21-4.42.13-7.94-3.65-10.53-3.15-2.16-6.66-3.51-10.38-4.24-5.31-1.04-10.63-1.15-15.68,1.13-9.31,4.2-15.86,11.37-21.11,19.89-.38.62-.71,1.16-1.51.8-.75-.35-.6-.99-.35-1.58.89-2.03,1.66-4.14,2.76-6.06,1.91-3.33,3.73-6.7,6.1-9.76,2.27-2.93,4.26-6.08,6.22-9.22,3.78-6.06,9.22-7.15,14.37-6.15,3.11.6,6.04,1.77,9.03,2.74,5.25,1.7,10.65,2.8,15.93,4.4,7.02,2.12,13.65,1,20.05-2.21,1.47-.74,2.72-1.8,3.44-3.31,1.78-3.75,1.71-7.44-.51-11.01ZM105.56,36.78c3.97-4.05,8.48-7.41,13.24-10.45,4.76-3.04,9.64-5.87,14.68-8.42.58-.3,1.13-.52,1.69-.03.29.26.31.61.26.73-.28.63-.66.76-1.01.94-6.37,3.22-12.52,6.83-18.38,10.9-3.27,2.27-6.36,4.76-9.12,7.65-.47.49-.98,1.06-1.66.47-.76-.66-.18-1.29.3-1.79ZM84.59,54.29c-.63-.14-.82-.63-.72-1.21.4-2.33.18-4.71.53-7.04,1.14-7.78.74-15.49-.85-23.16-.35-1.67-.66-3.34-.82-5.04-.11-1.14-.34-2.24-.92-3.25-.29-.49-.37-1.03.21-1.38.63-.38,1.1-.03,1.43.49.52.83.88,1.74.97,2.7.38,3.92,1.37,7.73,1.91,11.63.82,5.83.81,11.64.03,17.46-.33,2.42-.09,4.89-.57,7.3-.05.26-.07.52-.09.72-.21.56-.52.92-1.1.79ZM60.63,97.67c-.89-.07-.87-.83-.88-1.5-.06-6.5-.02-13-.97-19.45-.96-6.49-2.74-12.74-6.08-18.45-.75-1.27-1.75-2.4-2.63-3.59-.31-.42-.45-.87-.12-1.33.27-.37.65-.4,1.18-.2.25.27.57.61.89.97,3.38,3.9,5.15,8.6,6.66,13.42,2.32,7.41,2.8,15.07,2.9,22.77.03,2,.04,4.01.05,6.01,0,.68-.05,1.43-.99,1.35ZM48.63,138.45c-.59.21-.96-.16-1.2-.71-1.06-2.4-2.27-4.74-3.21-7.19-2.94-7.65-7.12-14.6-11.88-21.22-1.19-1.66-2.26-3.44-3.84-4.79-.38-.33-.51-.74-.24-1.16.31-.5.78-.49,1.27-.27.64.24,1.07.75,1.47,1.27,5.97,7.8,11.26,16.01,14.86,25.22.86,2.2,1.91,4.32,2.88,6.47.14.32.32.63.42.96.19.6.12,1.19-.53,1.42ZM55.36,145.12c1-1.52,2.38-3.11,3.89-4.54,4.84-4.6,10.68-7.38,17.08-9.02,2.75-.7,5.54-1.24,8.41-1.08.22.01.44-.01.65.03.76.16,1.76.22,1.58,1.32-.17.99-1.05.62-1.73.57-3.72-.26-7.31.52-10.8,1.64-5.47,1.76-10.5,4.33-14.53,8.56-1.08,1.13-2.15,2.28-3,3.61-.3.46-.7.86-1.3.53-.55-.3-.61-.81-.26-1.63ZM66.03,98.71c1.78-1.02,3.57-2.03,5.38-3,8.53-4.62,17.63-6.14,27.22-4.98.22.03.43.06.55.07.71.25,1.07.66.91,1.32-.14.55-.56.68-1.13.59-10.33-1.49-19.96.52-28.9,5.88-.97.58-1.99,1.09-2.97,1.66-.54.31-1.06.55-1.48-.1-.39-.6-.13-1.13.43-1.44ZM119.1,62.13c-1.62-.35-3.2-.85-4.84-1.13-9.17-1.54-17.98-.26-26.5,3.3-.7.29-1.44.52-1.79-.33-.33-.82.43-1.14,1.03-1.39,8.38-3.51,17.05-4.9,26.09-3.64,1.86.26,3.71.57,5.51,1.14.33.12.66.24.98.37.5.21,1.01.44.79,1.13-.2.65-.7.67-1.27.55Z"/>
      <path class="cls-4" d="M61.57,90.31c-.11-7.7-.58-15.36-2.9-22.77-1.51-4.81-3.28-9.52-6.66-13.42-.31-.36-.64-.7-.89-.97-.53-.2-.91-.17-1.18.2-.33.46-.19.91.12,1.33.88,1.19,1.89,2.32,2.63,3.59,3.34,5.71,5.12,11.95,6.08,18.45.95,6.45.91,12.95.97,19.45,0,.67-.01,1.42.88,1.5.94.08.99-.67.99-1.35,0-2-.02-4.01-.05-6.01Z"/>
      <path class="cls-4" d="M86.35,45.49c.78-5.82.79-11.64-.03-17.46-.55-3.89-1.53-7.71-1.91-11.63-.09-.96-.45-1.87-.97-2.7-.33-.53-.8-.87-1.43-.49-.58.35-.5.89-.21,1.38.59,1.01.82,2.12.92,3.25.16,1.7.47,3.37.82,5.04,1.59,7.67,1.99,15.38.85,23.16-.34,2.32-.13,4.71-.53,7.04-.1.58.09,1.07.72,1.21.58.13.89-.23,1.1-.79.03-.2.04-.46.09-.72.48-2.41.25-4.87.57-7.3Z"/>
      <path class="cls-4" d="M48.74,136.07c-.96-2.16-2.02-4.28-2.88-6.47-3.59-9.21-8.88-17.42-14.86-25.22-.4-.52-.82-1.02-1.47-1.27-.49-.22-.96-.23-1.27.27-.27.43-.14.84.24,1.16,1.58,1.36,2.64,3.13,3.84,4.79,4.76,6.62,8.94,13.57,11.88,21.22.94,2.44,2.14,4.79,3.21,7.19.24.55.61.92,1.2.71.65-.23.72-.82.53-1.42-.11-.33-.28-.64-.42-.96Z"/>
      <path class="cls-2" d="M65.61,100.15c.42.64.95.41,1.48.1.98-.57,2-1.08,2.97-1.66,8.94-5.36,18.57-7.37,28.9-5.88.57.08.99-.04,1.13-.59.16-.66-.2-1.08-.91-1.32-.12-.02-.33-.05-.55-.07-9.59-1.16-18.69.36-27.22,4.98-1.8.98-3.6,1.98-5.38,3-.55.32-.81.84-.43,1.44Z"/>
      <path class="cls-4" d="M105.26,38.57c.68.59,1.19.02,1.66-.47,2.76-2.88,5.85-5.37,9.12-7.65,5.86-4.08,12.01-7.69,18.38-10.9.35-.18.74-.31,1.01-.94.05-.12.02-.47-.26-.73-.56-.49-1.11-.27-1.69.03-5.04,2.55-9.92,5.38-14.68,8.42-4.76,3.04-9.27,6.4-13.24,10.45-.48.49-1.06,1.13-.3,1.79Z"/>
      <path class="cls-2" d="M55.61,146.75c.6.33,1-.07,1.3-.53.85-1.33,1.92-2.48,3-3.61,4.02-4.23,9.06-6.8,14.53-8.56,3.5-1.13,7.08-1.91,10.8-1.64.68.05,1.56.42,1.73-.57.18-1.09-.82-1.16-1.58-1.32-.21-.04-.43-.02-.65-.03-2.87-.17-5.66.37-8.41,1.08-6.41,1.64-12.24,4.42-17.08,9.02-1.51,1.44-2.89,3.03-3.89,4.54-.35.82-.29,1.33.26,1.63Z"/>
      <path class="cls-4" d="M119.57,60.45c-.32-.13-.65-.25-.98-.37-1.8-.57-3.65-.88-5.51-1.14-9.04-1.26-17.72.13-26.09,3.64-.6.25-1.36.57-1.03,1.39.35.86,1.09.62,1.79.33,8.53-3.56,17.33-4.84,26.5-3.3,1.64.28,3.22.78,4.84,1.13.57.12,1.07.1,1.27-.55.21-.69-.29-.92-.79-1.13Z"/>
    </g>
    <g>
      <g>
        <path class="cls-7" d="M121.74,120.82c-.23.11-.29.28-.18.51-.61.67-.32,1.74-1.05,2.35l-.22.15.04.26c-.3.57-.42,1.24-.91,1.71l-.22.13.03.26c-.31.58-.36,1.33-1.07,1.64l.05-.06c-.36.46-.35,1.19-1.04,1.41l.05-.05c-.48.81-1.05,1.54-1.86,2.06l.04-.04c-.17.35-.5.52-.81.73l-.02.02c-4.03,3.5-8.38,6.57-12.91,9.39l-.06.04c-.28.19-.55.38-.83.57l-.04.03c-.27.22-.56.41-.87.58h0c-.26.27-.53.51-.93.57l.03-.02c-.22.35-.5.6-.95.57l.04-.03c-.61.78-1.58.88-2.4,1.27h0c-.26.29-.54.56-.98.49l.03-.02c-.28.69-1.05.34-1.49.7h-.03c-.28.26-.55.54-.98.46l.13.14-.11-.17c-.29.68-1.05.34-1.5.69h-.03c-.28.27-.55.54-.97.48l.03-.02c-.28.65-1.05.3-1.45.71l-.08.04c-.28.2-.58.38-.9.53h.02c-.25.29-.53.54-.96.54l.04-.03c-.18.42-.46.67-.95.58l.15.15-.12-.18c-.86.98-2.08,1.37-3.17,1.99l-.05.03c-.28.21-.57.4-.88.56h0c-.26.28-.53.53-.94.56l.04-.02c-.21.38-.49.63-.96.56l.14.14-.11-.16c-.57.84-1.57.9-2.38,1.3h0c-.26.29-.54.55-.97.51l.03-.02c-.61.78-1.58.88-2.4,1.26h0c-.25.3-.54.53-.93.6h.03c-.85,1.09-.3,2.63-1.19,3.72-.12.38-.23.77-.35,1.15-.54.74-.37,1.76-1,2.45-.23.13-.3.32-.21.57-.66.61-.3,1.72-1.1,2.27v-.02c-.74.5-.27,1.68-1.15,2.11l.03-.04c-.42.41-.42,1.09-.9,1.46l-.22.11.02.24c-.3.6-.35,1.35-1.08,1.67l.05-.06c-.35.47-.34,1.2-1.03,1.42l.04-.05c-.36.46-.33,1.21-1.06,1.39l.06-.06c-.08.42-.46.56-.73.82l-.03.04c-.54.25-.47,1.06-1.1,1.23l.05-.04c-.16.36-.5.53-.8.74l-.02.02c-.69.83-1.55,1.44-2.54,1.87l-.06.04c-.28.21-.58.38-.91.52l.03-.02c-.41.49-1.1.21-1.56.56h-.04c-.47.42-1.11.19-1.61.48h-.02c-.43.4-.42,1.07-.87,1.45-.45,1.1-.73,2.24-.68,3.44-1.22,3.26-1.18,6.77-1.96,10.12-.26,1.14.15,2.53-1.08,3.36l.09-.09c-.14.42-.47.61-.85.75l.04-.03c-.44.5-1.11.25-1.62.51h0c-.54.49-1.01.37-1.43-.19l-.15-.2-.23.08c-1.7-.5-1.77-2.01-2.08-3.37.17-.22.18-.45.01-.68.02-4.42,1.11-8.7,1.84-13.02.36-2.16-.07-3.62-1.89-4.73h.01c-.8-.47-1.57-.97-1.99-1.86l.03.05c-.41-.15-.62-.46-.69-.88l.03.04c-.38-.2-.61-.5-.63-.93l.04.05c-.41-.19-.67-.47-.58-.97l.04.06c-.73-.26-.37-1.06-.74-1.49h0c-.25-.3-.55-.58-.44-1.03l.05.07c-.73-.33-.42-1.07-.63-1.61l.03.06c-.59-.42-.35-1.12-.55-1.66l.03.06c-.58-.44-.35-1.12-.5-1.69l.03.07c-.9-.6.05-1.65-.56-2.31h0c-.38-.55-.23-1.23-.4-1.83.16-.2.14-.37-.06-.53-.3-.57-.15-1.22-.33-1.81.17-.19.16-.37-.03-.54-.47-.79.17-1.7-.27-2.49.18-.21.17-.41,0-.61-.55-1.33.54-2.66-.02-3.99.26-.69.41-1.38.12-2.1-.47-.75-1.32-1.14-1.73-1.94l.02.03c-.37-.14-.53-.48-.73-.78l-.03-.03c-.59-.68-1.47-1.08-1.88-1.93l.03.03c-.38-.14-.55-.48-.73-.8l-.02-.02c-.92-.86-1.86-1.71-2.48-2.84l.03.04c-.44-.12-.64-.44-.71-.86l.03.04c-.37-.17-.58-.48-.71-.85l.02.02c-.31-.21-.5-.51-.67-.84h-.01c-.23-.27-.44-.53-.64-.81l-.05-.06c-.53-.73-1.46-1.08-1.83-1.96l.02.03c-.39-.12-.55-.46-.75-.77l-.03-.03c-.3-.48-1.13-.39-1.2-1.12l.02.03c-.43-.07-.6-.41-.78-.75l-.02-.02c-.32-.47-1.14-.39-1.22-1.11l.02.03c-.42-.08-.6-.42-.78-.75l-.02-.02c-.63-.64-1.47-1.08-1.93-1.9l.02.03c-.35-.16-.52-.49-.72-.79l-.03-.04c-.87-.9-1.85-1.71-2.44-2.85l.03.04c-.46-.12-.67-.43-.68-.89l.03.04c-.43-.14-.64-.45-.67-.89l.03.04c-.41-.16-.62-.47-.67-.9l.03.04c-.39-.18-.61-.48-.66-.91l.03.04c-.39-.18-.61-.48-.66-.91l.03.04c-.39-.18-.61-.48-.65-.91l.03.04c-.39-.18-.62-.48-.65-.92l.03.04c-.4-.17-.63-.47-.65-.91l.03.04c-.41-.16-.62-.47-.67-.9l.03.04c-.4-.17-.62-.47-.66-.91l.03.04c-.4-.17-.61-.48-.66-.9l.03.04c-.39-.18-.6-.48-.68-.89l.03.04c-.36-.19-.58-.5-.66-.9l.03.04c-.36-.21-.58-.51-.64-.92l.03.05c-.38-.2-.61-.5-.62-.94l.04.05c-.42-.18-.68-.46-.59-.96l.04.06c-.73-.25-.36-1.06-.75-1.48v-.02c-.24-.3-.52-.58-.47-1.01l.04.08c-.67-.36-.38-1.09-.61-1.62l.02.06c-.55-.45-.33-1.13-.49-1.69l.03.07c-.86-.64.03-1.66-.51-2.36v.04c-.62-.77.07-1.73-.34-2.54.17-.19.16-.38-.02-.56-.17-2.06.03-4.06,1.03-5.92v.02c.47-.33.4-1.15,1.12-1.27l-.07.05c.15-.43.46-.65.91-.67l-.06.04c.33-.62,1.08-.3,1.52-.66h.03c.79-.56,1.72.06,2.53-.3,1.3.46,2.65.68,4.03.64,1.14.84,2.67.39,3.84,1.17.47.13.94.27,1.42.4.57.69,1.6.35,2.19.98.17.23.39.31.67.25.39.44,1.03.44,1.45.83.15.24.37.33.64.28.41.44,1.1.42,1.47.91l.13.22.26-.02c.43.08.69.42.99.7.1.24.28.34.54.29.34.13.55.44.84.65.13.25.33.36.61.32.42.43,1.14.4,1.44,1h0c.38.43,1.12.39,1.35,1.02l-.03-.03c.26.21.51.43.74.67.05.25.21.35.45.31.42.13.67.45.89.79l.04.03c.28.51,1.09.43,1.22,1.11l-.04-.05c.41.11.57.46.76.79h0c.21.27.44.51.67.76l.09.08c.17.56,1.08.46,1.06,1.19l-.03-.04c.49.07.69.4.72.86l-.04-.05c.42.15.63.46.69.89l-.04-.05c.38.18.6.49.68.9l-.04-.05c.37.2.59.5.66.92l-.04-.05c.37.2.6.5.64.93l-.04-.05c.4.19.63.49.64.94l-.04-.05c.43.16.66.46.64.93l-.04-.05c.45.14.68.44.65.93l-.04-.05c.47.12.7.43.66.92l-.04-.05c.48.12.7.42.66.91l-.04-.05c.48.11.7.42.66.91l-.04-.05c.48.12.71.42.65.92l-.03-.04c.5.11.73.4.64.92l-.03-.04c.9.46.78,1.59,1.45,2.21l.06.11c.13.3.3.58.52.83l.03.05c.18.3.42.57.55.9v-.02c.26.27.53.55.54.97h-.01c.45-.32.47,1.69,1.09.22.46-1.09.68-2.27.41-3.47l.15-.24-.14-.25c-.68-1.31.52-2.67-.09-3.99.18-.2.19-.41,0-.62-.59-1.31.56-2.64-.05-3.95.19-.21.19-.42.02-.64-.5-1.39.46-2.78.03-4.17.24-.38.21-.78.04-1.17-.42-1.14.29-2.3-.06-3.44.24-.37.22-.76.05-1.15-.51-1.9.74-3.73.26-5.63.31-.62.32-1.28.19-1.94-.16-2.31.22-4.54,1.06-6.7.39-.84.61-1.72.56-2.66.97-1.41.37-3.29,1.4-4.67.24-.14.3-.33.18-.58.85-.83.27-2.23,1.2-3.02l.21-.14-.05-.25c.29-.58.43-1.23.88-1.72.24-.09.31-.25.23-.49.35-.51.42-1.17.88-1.62.24-.07.31-.22.22-.45.33-.54.41-1.23.95-1.65h0c.48-.35.48-1.02.93-1.4l.03-.04c.55-.27.5-.98.96-1.32l.03-.04c.54-.27.48-1.03,1.04-1.28v.02c.45-.33.37-1.2,1.15-1.22l-.06.05c.05-.5.4-.68.82-.78l-.05.04c.19-.36.5-.56.86-.71l-.03.02c.23-.3.53-.51.88-.66h-.02c.25-.27.54-.49.9-.61l-.03.02c.25-.3.54-.54.95-.59l-.05.03c.3-.57,1.08-.2,1.41-.71l.15-.05c.34-.12.62-.35.97-.43.23.12.45.1.65-.06,1.05-.22,2.05-.15,2.93.54l.08.04c.27.53,1.02.46,1.27,1.03l-.02-.02c.25.25.48.5.69.77l.06.06c1.03.96,1.79,2.13,2.5,3.34l.06.12c.13.31.29.59.5.85v.03c.22.3.5.57.52.97l-.04-.07c.57.37.26,1.11.65,1.55v.02c.38.45.1,1.12.55,1.55v.05c.33.48.08,1.13.49,1.58v.03c.34.51.16,1.15.41,1.69l-.02-.06c.72.68-.11,1.66.45,2.37v-.03c.6.74-.13,1.69.37,2.45-.15.23-.14.46.04.67.38.76-.26,1.64.25,2.39-.17.23-.17.47,0,.71.45,1.07-.4,2.17.1,3.24-.03.45-.05.9-.08,1.35-.38,5.29-1.15,10.51-2.54,15.63-.1.42-.21.84-.31,1.26-.89,1.13-.35,2.71-1.24,3.84-.11.38-.23.77-.34,1.15-.7.95-.36,2.27-1.11,3.2-.12.41-.23.82-.35,1.23-.89,1.14-.34,2.74-1.25,3.87-.23.17-.29.38-.19.64-1.02,1.03-.28,2.68-1.32,3.71-.23.12-.29.3-.16.53-.79.88-.33,2.2-1.12,3.08-.2.15-.29.35-.26.61-.45.89-.92,1.77-.29,2.76.29.02.55-.05.78-.23h0c.26-.21.52-.44.75-.69l.07-.08c.57-.17.47-1.07,1.18-1.09l-.06.05c.1-.46.43-.65.86-.75l-.05.04c.19-.36.5-.57.87-.71l-.03.02c.22-.31.53-.51.86-.67h0c.25-.26.54-.46.86-.64h0c.27-.23.55-.45.84-.64h.02c.27-.23.55-.43.84-.63l.02-.02c.27-.21.55-.42.84-.61l.02-.02c.27-.21.55-.42.84-.61l.03-.02c.27-.21.55-.41.83-.61l.03-.02c.28-.2.55-.4.82-.61l.04-.03c.28-.18.55-.38.8-.6l.06-.05c.29-.16.55-.36.78-.59l.08-.06c.29-.14.55-.32.76-.57l.1-.08c.3-.12.55-.3.76-.55l.1-.07c.3-.13.56-.31.78-.55l.09-.06c.29-.15.57-.33.82-.55l.05-.03c.28-.2.57-.39.87-.56h0c.27-.26.54-.5.93-.58l-.04.03c.24-.34.52-.61.98-.54l-.05.03c.26-.69,1.06-.33,1.46-.74l.05-.02c.3-.2.56-.49.96-.47l-.05.03c.35-.6,1.09-.28,1.54-.64h.02c.42-.42,1.1-.13,1.51-.56l.09-.02c.35-.25.71-.49,1.18-.43l.24.08.18-.18c.45-.33,1.1-.02,1.52-.47l.1-.02c.47-.33,1.1-.08,1.56-.45h.06c.49-.39,1.15-.17,1.67-.45.25.13.48.1.7-.08.37-.15.71-.39,1.13-.34l.24.1.2-.17c.59-.32,1.25-.2,1.87-.33.42-.02.84-.03,1.27-.05.58-.17,1.19-.09,1.78-.24.44,0,.87.02,1.31.02,1.58-.47,3.11.68,4.69.14,1.11.45,2.26.64,3.45.55.62.64,1.63.35,2.26.97.09.23.26.32.5.27.39.15.63.46.85.79l.04.04c.19.28.39.54.61.8l.04.06c.17.31.41.58.53.91l-.02-.04c.46.5.24,1.19.49,1.74-.16.21-.15.41.02.6.29,1.06.18,2.06-.51,2.96Z"/>
        <path class="cls-3" d="M39.77,151.25c-4.06-4.11-8.09-8.25-11.7-12.78-.86-1.08-1.74-2.19-2.79-3.06-6.88-5.68-11.81-12.98-17.06-20.04-3.05-4.11-4.41-8.7-4.68-13.69-.17-3.14,1.43-4.67,4.59-4.42,3.16.26,6.22,1.13,9.06,2.46,6.78,3.19,12.89,7.34,17.4,13.46,2.69,3.64,5.2,7.41,7.79,11.12,2.47,3.56,3.64,7.7,5.32,11.62.52,1.23.68,3.56,2.61,3.1,2.01-.48.86-2.61.86-3.95.04-11.8-.37-23.62.01-35.4.31-9.62,2.51-18.92,7.89-27.2,1.95-3,4.3-5.53,7.45-7.31,1.56-.89,2.69-.73,3.9.61,2.62,2.88,4.14,6.26,4.99,10,1.84,8.12,1.64,16.22-.31,24.28-2.08,8.56-5.09,16.83-7.96,25.14-1.55,4.51-2.72,9.15-4.68,13.52-.35.77-.75,1.73.22,2.37.98.64,1.66-.11,2.23-.77,1.49-1.7,2.83-3.54,4.4-5.15,9.52-9.72,19.84-18.15,33.8-20.65,4.01-.72,8-.82,11.99-.16,3.88.64,4.99,2.52,3.59,6.13-1.66,4.28-4.11,8.01-7.95,10.74-7.37,5.25-14.73,10.39-23.01,14.28-7.48,3.51-14.42,8.16-21.6,12.3-.34.26-.62.2-.83-.16,1.5-2.03,3.28-3.79,5.16-5.47,6.09-5.47,12.45-10.62,19.01-15.48,6.56-4.86,13.58-9.08,21.21-12.17.12-.05.24-.07.36-.12,1.05-.42,2.49-.86,1.92-2.25-.58-1.42-1.95-.62-2.97-.23-1.53.57-3.11,1.08-4.52,1.86-7.48,4.14-15.03,8.17-21.59,13.76-2.87,2.44-5.92,4.69-8.81,7.1-3.94,3.29-7.91,6.56-11.59,10.7-.79-1.95-1.4-3.65-2.15-5.28-.8-1.73-2.13-3.09-3.31-4.56-.71-.89-.18-1.95-.03-2.91,2.34-15.55,4.72-31.09,7.07-46.64.17-1.11.59-2.2.3-3.35-.13-.51-.42-.89-.97-1.02-.75-.18-1.25.2-1.46.83-.24.71-.34,1.47-.47,2.21-2.69,15.62-5.42,31.23-8.01,46.86-.36,2.17-1.08,3.65-3.1,4.68-2.63,1.34-4.16,3.91-6.11,6.33-3.99-8.98-9.61-16.74-14.81-24.74-5.09-7.84-11.25-14.8-18.25-21-.97-.86-2.3-2.88-3.67-1.12-1.11,1.42.92,2.28,1.9,3.1,5.54,4.63,10.19,10.13,14.46,15.85,5.7,7.66,10.78,15.78,15.51,24.1.37.65.61,1.37.92,2.05.2.27.34.57.44.89.14.18.2.38.18.6.2.46.09.83-.33,1.11-.41-.47-.82-.95-1.22-1.42-.28-.14-.47-.37-.56-.67Z"/>
        <path class="cls-10" d="M39.8,155.77c.75,1,1.4,2.11,2.27,2.99,1.62,1.63.96,3.49.8,5.33-.06.65.1,1.32.87,1.44.97.15,1.31-.58,1.46-1.34.32-1.73.52-3.48.87-5.2.96-4.77,3.3-8.59,7.56-11.17,1.51-.92,2.4-.62,3.48.67,3.82,4.55,3.97,9.84,3.32,15.32-.1.87-.46,1.7-.56,2.57-.09.73-.09,1.61.86,1.83.94.22,1.54-.53,1.53-1.25-.09-3.54,2.83-4.76,4.91-6.63.37-.34.85-.53,1.38-.32-.52,5.39-6.9,15.38-11.4,17.84-.33.18-.66.42-1.02.47-4.11.59-5.52,3.26-5.86,7.07-.28,3.12-.9,6.22-1.48,9.3-.21,1.14,0,2.58-1.66,3.3-.53-1.92-.42-3.73-.12-5.55.51-3.23.92-6.47,1.52-9.68.45-2.38-.06-4.13-2.28-5.38-2.16-1.21-3.54-3.15-4.44-5.44-1.86-4.7-3.16-9.52-3.14-14.62-.24-1-.21-1.79,1.18-1.53Z"/>
        <path class="cls-1" d="M39.8,155.77c-.76.23-.96.89-1.19,1.53-.14-.45-.4-.89-.4-1.34,0-.44.18-1.21.4-1.26.7-.15.97.49,1.19,1.07Z"/>
        <path class="cls-6" d="M42.87,154.85c.18.11.35.22.53.33-.13.09-.25.18-.38.27-.03-.21-.07-.43-.1-.64l-.05.03Z"/>
      </g>
      <g>
        <path class="cls-5" d="M1.73,97.06s0,0,0,0c0,0,0,0,0-.01v.02Z"/>
        <path class="cls-5" d="M79.57,153.64l.13.13-.09-.14s-.02,0-.04,0c0,0,0,0,0,0Z"/>
        <path class="cls-5" d="M85.49,149.99l.14.15-.1-.15s-.02,0-.04,0c0,0,0,0,0,0Z"/>
        <path class="cls-5" d="M92.21,146.5l.13.14-.09-.14s-.02,0-.03,0c0,0,0,0,0,0Z"/>
        <path class="cls-5" d="M118.17,127.82c.7-.32.74-1.06,1.05-1.63l-.03-.26.22-.13c.49-.47.61-1.14.91-1.71l-.04-.26.22-.15c.73-.61.44-1.69,1.05-2.35-.11-.23-.05-.4.18-.51.69-.9.8-1.9.51-2.97-.17-.2-.18-.4-.02-.6-.25-.56-.02-1.25-.49-1.74l.02.04c-.12-.34-.37-.6-.53-.91l-.04-.06c-.22-.25-.42-.52-.61-.8l-.04-.04c-.22-.33-.46-.64-.85-.79-.24.05-.41-.03-.5-.27-.63-.62-1.64-.33-2.26-.97-1.19.08-2.35-.1-3.45-.55-1.58.53-3.11-.62-4.69-.14-.44,0-.87-.02-1.31-.02-.58.15-1.2.07-1.78.24-.42.02-.84.03-1.27.05-.62.13-1.28.01-1.87.33l-.2.17-.24-.1c-.42-.05-.76.19-1.13.34-.21.19-.44.21-.7.08-.52.28-1.17.06-1.67.44h-.06c-.45.39-1.09.14-1.56.47l-.1.02c-.42.45-1.07.14-1.52.47l-.18.18-.24-.08c-.47-.06-.82.18-1.18.43l-.09.02c-.42.43-1.09.13-1.51.55h-.02c-.45.36-1.16.06-1.52.62-.39,0-.64.27-.94.47l-.05.02c-.4.4-1.16.07-1.44.7-.44-.05-.71.19-.94.52-.37.08-.64.32-.9.57h0c-.3.18-.59.36-.87.56l-.05.03c-.25.21-.53.39-.82.55l-.09.06c-.22.24-.48.42-.78.55l-.1.07c-.21.25-.47.43-.76.55l-.1.08c-.21.25-.47.43-.76.57l-.08.06c-.23.23-.49.43-.78.59l-.06.04c-.25.22-.52.42-.8.6l-.04.03c-.27.21-.54.41-.82.61l-.03.02c-.28.2-.56.41-.83.61l-.03.02c-.29.2-.57.4-.84.61l-.02.02c-.29.19-.57.4-.84.61l-.02.02c-.29.19-.57.4-.84.62h-.02c-.3.2-.58.41-.84.64h0c-.31.18-.6.38-.85.64-.33.16-.62.35-.84.65-.35.14-.65.33-.84.67-.39.09-.7.28-.81.7-.65.06-.58.91-1.14,1.08l-.07.08c-.24.24-.49.47-.75.69h0c-.23.17-.5.25-.78.23-.63-.99-.16-1.87.29-2.76-.03-.25.06-.45.26-.61.79-.88.34-2.2,1.12-3.08-.13-.23-.07-.41.16-.53,1.04-1.02.3-2.68,1.32-3.71-.1-.26-.04-.48.19-.64.91-1.13.37-2.73,1.25-3.87.12-.41.23-.82.35-1.23.75-.93.41-2.25,1.11-3.2.11-.38.23-.77.34-1.15.89-1.13.35-2.72,1.24-3.84.1-.42.21-.84.31-1.26,1.39-5.12,2.16-10.35,2.54-15.63.03-.45.05-.9.08-1.35-.5-1.07.35-2.17-.1-3.24-.17-.24-.17-.47,0-.71-.51-.75.13-1.62-.25-2.39-.18-.21-.2-.44-.04-.67-.49-.76.24-1.71-.37-2.45v.03c-.55-.71.27-1.69-.44-2.37-.21-.52-.07-1.13-.39-1.63v-.03c-.42-.45-.17-1.1-.48-1.58v-.05c-.46-.42-.18-1.1-.55-1.55v-.02c-.39-.43-.11-1.15-.63-1.52-.04-.38-.3-.64-.5-.93v-.03c-.22-.26-.39-.54-.51-.85l-.06-.12c-.7-1.21-1.47-2.37-2.5-3.34l-.06-.06c-.22-.27-.45-.53-.69-.77l.02.02c-.24-.57-.99-.5-1.27-1.03l-.08-.04c-.88-.69-1.88-.76-2.93-.54-.2.16-.42.18-.65.06-.35.08-.64.31-.97.43l-.15.05c-.33.5-1.07.17-1.39.69-.39.06-.67.28-.91.57-.35.12-.63.34-.87.61-.33.15-.62.35-.85.63-.34.14-.64.34-.83.67-.4.1-.72.28-.78.73-.72.07-.66.89-1.11,1.21v-.02c-.54.26-.48,1.02-1.03,1.28l-.03.04c-.46.34-.41,1.05-.96,1.32l-.03.04c-.45.38-.45,1.05-.93,1.41h0c-.54.41-.63,1.09-.95,1.64.09.23.01.38-.22.45-.46.45-.53,1.11-.88,1.62.09.24.01.4-.23.49-.44.5-.59,1.15-.88,1.72l.05.25-.21.14c-.93.8-.35,2.2-1.2,3.02.12.25.06.44-.18.58-1.03,1.39-.43,3.27-1.4,4.67.05.94-.17,1.82-.56,2.66-.84,2.16-1.22,4.38-1.06,6.7.13.67.11,1.32-.19,1.94.47,1.9-.77,3.72-.26,5.63.17.39.19.78-.05,1.15.36,1.14-.36,2.3.06,3.44.17.4.2.79-.04,1.17.43,1.39-.53,2.78-.03,4.17.18.22.17.43-.02.64.61,1.31-.54,2.64.05,3.95.18.21.18.42,0,.62.61,1.32-.6,2.67.09,3.99l.14.25-.15.24c.27,1.21.05,2.38-.41,3.47-.61,1.46-.63-.5-1.07-.24-.02-.41-.27-.69-.55-.96-.14-.32-.36-.59-.54-.88l-.03-.05c-.22-.25-.39-.52-.52-.83l-.06-.11c-.66-.61-.55-1.71-1.41-2.19.08-.49-.14-.78-.6-.89.05-.47-.17-.75-.61-.87.03-.46-.18-.75-.63-.86.03-.46-.18-.75-.63-.86.03-.46-.18-.74-.62-.87.02-.45-.19-.73-.61-.88,0-.43-.21-.72-.61-.88-.02-.42-.24-.7-.6-.88-.05-.4-.26-.68-.61-.88-.07-.39-.28-.67-.62-.87-.08-.39-.28-.68-.64-.86-.07-.4-.27-.69-.66-.84-.04-.43-.23-.74-.69-.82-.01-.69-.89-.6-1.05-1.15l-.09-.08c-.23-.24-.46-.49-.67-.75h0c-.18-.33-.34-.66-.73-.79-.15-.64-.93-.57-1.21-1.07l-.04-.03c-.22-.35-.47-.66-.89-.79-.25.04-.4-.06-.45-.31-.23-.23-.47-.44-.72-.64-.23-.63-.97-.59-1.35-1.02h0c-.3-.59-1.03-.57-1.44-.99-.28.04-.48-.07-.61-.32-.29-.21-.49-.52-.84-.65-.26.05-.44-.05-.54-.29-.29-.28-.55-.62-.99-.7l-.26.02-.13-.22c-.37-.49-1.07-.47-1.47-.91-.28.05-.49-.04-.64-.28-.42-.39-1.06-.39-1.45-.83-.28.06-.5-.02-.67-.25-.6-.63-1.62-.29-2.19-.98-.47-.13-.94-.27-1.42-.4-1.16-.77-2.69-.33-3.84-1.17-1.38.04-2.72-.18-4.03-.64-.81.36-1.74-.26-2.53.29h-.03c-.44.36-1.15.07-1.5.64-.42.03-.71.24-.86.63-.65.16-.61.93-1.07,1.25-.99,1.86-1.2,3.85-1.02,5.91.19.18.19.37.02.56.41.81-.28,1.76.35,2.54v-.04c.53.7-.34,1.7.48,2.34.14.55-.04,1.19.47,1.63.2.51-.03,1.18.56,1.54-.02.4.24.67.46.96v.02c.39.41.06,1.18.72,1.45-.07.46.17.73.56.91.02.41.24.69.59.89.07.39.28.67.61.87.09.38.29.67.63.86.08.39.28.68.64.85.06.4.26.69.63.86.05.41.26.69.63.86.05.41.25.7.63.86.04.41.25.7.62.87.04.41.25.7.62.87.05.4.26.69.62.87.05.4.26.69.63.86.06.4.26.69.63.86.05.4.26.7.64.85.04.42.24.71.64.85.02.44.22.74.67.86.58,1.13,1.55,1.93,2.41,2.81l.03.04c.2.3.37.62.71.79.46.8,1.28,1.24,1.91,1.88l.02.02c.18.33.35.66.76.75.11.69.9.62,1.22,1.08l.02.02c.18.33.35.66.77.74.09.7.9.62,1.19,1.1l.03.03c.19.31.35.65.74.77.38.86,1.29,1.21,1.81,1.93l.05.06c.2.27.42.54.64.79h.01c.17.33.36.63.66.84.13.36.32.66.68.83.07.41.27.72.7.84.62,1.1,1.54,1.95,2.45,2.8l.02.02c.18.32.35.65.72.79.41.84,1.28,1.23,1.86,1.91l.03.03c.2.3.36.63.73.78.41.78,1.25,1.18,1.71,1.91.28.72.14,1.41-.12,2.1.56,1.33-.53,2.66.02,3.99.18.2.19.41,0,.61.44.79-.2,1.7.27,2.49.19.17.2.35.03.54.19.59.04,1.24.33,1.81.2.16.22.33.06.53.17.6.02,1.28.4,1.83h0c.61.66-.31,1.69.54,2.29.12.55-.06,1.2.48,1.63.17.53-.04,1.19.52,1.6.17.52-.08,1.2.57,1.54-.08.43.2.7.44.99h0c.36.43.03,1.2.7,1.47-.08.46.17.73.55.92.04.41.25.69.6.88.08.4.28.7.67.85.42.86,1.18,1.36,1.97,1.83h-.01c1.81,1.1,2.25,2.56,1.89,4.72-.73,4.32-1.83,8.59-1.84,13.02.17.23.16.46-.01.68.31,1.36.38,2.87,2.08,3.37l.23-.08.15.2c.42.56.88.67,1.43.17h0c.51-.24,1.16,0,1.6-.48.37-.13.68-.32.82-.71,1.13-.84.75-2.18,1.01-3.3.78-3.35.74-6.85,1.96-10.12-.05-1.2.23-2.34.68-3.44.46-.38.44-1.04.87-1.44h.02c.5-.3,1.15-.07,1.61-.47h.04c.46-.36,1.14-.08,1.55-.57.31-.14.61-.31.89-.51l.06-.04c.99-.43,1.84-1.04,2.54-1.87l.02-.02c.29-.21.61-.37.78-.71.59-.19.54-.97,1.07-1.22l.03-.04c.25-.25.61-.4.71-.78.66-.19.66-.88.98-1.33.65-.23.66-.91.98-1.37.71-.32.76-1.07,1.06-1.66l-.02-.24.22-.11c.48-.38.48-1.05.9-1.46l-.03.04c.88-.43.41-1.61,1.16-2.11v.02c.79-.55.43-1.66,1.09-2.27-.09-.25-.02-.44.21-.57.64-.69.47-1.72,1-2.45.12-.38.23-.77.35-1.15.89-1.08.34-2.63,1.18-3.72.39-.07.67-.3.91-.59h0c.81-.38,1.77-.48,2.38-1.24.43.04.71-.22.96-.51h0c.8-.4,1.78-.46,2.35-1.27h0s0,0,0,0c0,0,.01-.01.02-.02l.02.02c.43.05.7-.19.9-.54.39-.03.66-.28.92-.56.31-.16.6-.35.87-.56l.05-.03c1.08-.61,2.28-1.01,3.14-1.96h0s0,0,0,0c0,0,.02-.02.02-.02l.02.02c.45.06.72-.17.89-.56.41-.01.69-.25.93-.55.31-.14.6-.32.88-.52l.08-.04c.39-.41,1.15-.08,1.43-.69.41.04.68-.22.96-.47h.03c.43-.36,1.18-.04,1.48-.67h0s0,0,.01,0c0,0,0-.01.01-.02v.02c.42.05.68-.21.95-.45h.03c.43-.37,1.18-.04,1.47-.69.43.06.71-.2.97-.49h0c.8-.39,1.76-.49,2.37-1.25.43.02.71-.21.93-.55.38-.06.65-.3.9-.57.31-.16.6-.36.87-.58l.04-.03c.28-.19.55-.38.83-.57l.06-.04c4.53-2.82,8.88-5.89,12.91-9.39l.02-.02c.3-.2.62-.38.8-.72.77-.51,1.32-1.22,1.79-2,.64-.23.66-.91.98-1.36Z"/>
      </g>
    </g>
    <g>
      <path class="cls-9" d="M114.72,252.5c2.37,2.98,5.21,5.31,8.58,7.14,6.03,3.27,10.81,11.89,6.93,19.7-3.86,7.79-11.78,8.95-17.63,2.48-1.58-1.74-2.94-3.68-4.48-5.46-2.77-3.22-6.12-4.53-10.32-3.11-1.91.64-3.88.69-5.84.16-6.32-1.73-11.65-4.82-14.81-10.87-.08-.16-.17-.32-.19-.36-1.92-4.35-2.39-8.73-3.19-13.02-.61-3.26-1.22-6.53-2.23-9.7-.76-2.36-2.09-3.34-4.33-2.66-6.43,1.95-11.04-.65-14.81-5.57-2.88-3.77-5.47-7.72-6.69-12.39-.52-1.98-.68-4-.34-6.01,1.23-7.43.67-14.85,0-22.28-.21-2.34-.29-4.69-.44-7.04-.05-.76.04-1.43.83-1.83.77-.39,1.38-.16,1.98.35,1.02.87,2.26.98,3.52,1.07,3.64.26,7.32.08,10.92.93,6.96,1.64,11.89,5.86,15.53,11.84,1.81,2.98,2.92,6.2,3.55,9.58,1.84,9.85,6.51,13.35,16.48,14.19,2.93.25,5.83.39,8.54,1.84,6.95,3.71,9.92,10.85,7.49,18.35-.24.74-.46,1.48-.78,2.18-1.78,3.89-.82,7.3,1.72,10.5ZM111.73,239.44c2.95-8.82-2.7-17.11-11.99-17.57-2.71-.13-5.4-.36-8.01-1.1-3.9-1.12-7.37-2.99-9.49-6.61-1.5-2.55-2.4-5.37-2.97-8.28-.66-3.39-1.76-6.62-3.66-9.53-2.72-4.17-6.12-7.52-10.87-9.38-4.68-1.83-9.57-1.55-14.63-1.82,3.87,6.27,7.54,12.33,11.34,18.32,7.28,11.47,15.3,22.35,25.66,31.29.44.38.87.77,1.06,1.35.17.49.19.96-.34,1.27-.42.25-.8.21-1.18-.14-1.82-1.65-3.74-3.19-5.45-4.94-5.94-6.06-11.24-12.68-16.15-19.58-5.03-7.08-9.33-14.65-13.92-22.02-1.21-1.94-2.25-4.01-4.04-5.9.11,1.72.16,3.16.29,4.6.76,8.02,1.34,16.03.06,24.06-.36,2.22.05,4.42.79,6.54,1.56,4.51,4.29,8.31,7.45,11.78,2.7,2.97,6.05,4.4,10.15,3.21.55-.16,1.13-.27,1.7-.36,2.52-.36,4.35.59,5.4,2.9.5,1.09.9,2.24,1.22,3.4,1.4,5.17,2.08,10.49,3.16,15.73,1.02,5,3.58,8.97,7.91,11.61,4.23,2.58,8.7,4.54,13.83,2.54.22-.09.47-.09.71-.12,4.58-.56,7.85,1.69,10.61,5,1.33,1.59,2.52,3.3,3.9,4.84,2.96,3.28,6.61,4.28,9.7,2.67,2.82-1.47,4.44-3.96,5.24-6.96,1.59-5.98-1.88-12-6.86-14.77-3.56-1.98-6.63-4.41-9.15-7.6-3-3.8-4.21-7.88-2.13-12.53.28-.62.47-1.27.69-1.91Z"/>
      <path class="cls-8" d="M99.73,221.87c-2.71-.13-5.4-.36-8.01-1.1-3.9-1.12-7.37-2.99-9.49-6.61-1.5-2.55-2.4-5.37-2.97-8.28-.66-3.39-1.76-6.62-3.66-9.53-2.72-4.17-6.12-7.52-10.87-9.38-4.68-1.83-9.57-1.55-14.63-1.82,3.87,6.27,7.54,12.33,11.34,18.32,7.28,11.47,15.3,22.35,25.66,31.29.44.38.87.77,1.06,1.35.17.49.19.96-.34,1.27-.42.25-.8.21-1.18-.14-1.82-1.65-3.74-3.19-5.45-4.94-5.94-6.06-11.24-12.68-16.15-19.58-5.03-7.08-9.33-14.65-13.92-22.02-1.21-1.94-2.25-4.01-4.04-5.9.11,1.72.16,3.16.29,4.6.76,8.02,1.34,16.03.06,24.06-.36,2.22.05,4.42.79,6.54,1.56,4.51,4.29,8.31,7.45,11.78,2.7,2.97,6.05,4.4,10.15,3.21.55-.16,1.13-.27,1.7-.36,2.52-.36,4.35.59,5.4,2.9.5,1.09.9,2.24,1.22,3.4,1.4,5.17,2.08,10.49,3.16,15.73,1.02,5,3.58,8.97,7.91,11.61,4.23,2.58,8.7,4.54,13.83,2.54.22-.09.47-.09.71-.12,4.58-.56,7.85,1.69,10.61,5,1.33,1.59,2.52,3.3,3.9,4.84,2.96,3.28,6.61,4.28,9.7,2.67,2.82-1.47,4.44-3.96,5.24-6.96,1.59-5.98-1.88-12-6.86-14.77-3.56-1.98-6.63-4.41-9.15-7.6-3-3.8-4.21-7.88-2.13-12.53.27-.62.47-1.27.69-1.91,2.95-8.82-2.7-17.11-11.99-17.57Z"/>
    </g>
  </g>
</svg>