<?xml version="1.0" encoding="UTF-8"?>
<svg id="Layer_2" data-name="Layer 2" xmlns="http://www.w3.org/2000/svg" viewBox="0 0 193.17 267.85">
  <defs>
    <style>
      .cls-1 {
        fill: #0c0d0c;
      }

      .cls-2 {
        fill: #0d0d0c;
      }

      .cls-3 {
        fill: #a7d9c4;
      }

      .cls-4 {
        fill: #080808;
      }
    </style>
  </defs>
  <g id="Layer_6" data-name="Layer 6">
    <g>
      <path class="cls-4" d="M176.79,194.8c-10.67,6.7-22.51,7.74-34.58,5.89-9.57-1.46-17.66-6.43-25.1-12.48-3.19-2.59-6.38-5.18-9.27-8.32-.19.74.1,1.04.31,1.39,3.07,5.13,6.69,9.85,10.39,14.54,2.61,3.31,5.83,4.57,9.85,4.63,10.86.16,21.13,3.17,31.26,6.72,5.9,2.07,10.48,6.24,15.41,9.86,10.15,7.46,16.2,17.34,17.94,29.84,1.13,8.05-3.45,15.93-11.06,18.9-4.51,1.76-9.22,2.08-14.03,2.06-10.44-.03-19.89-2.92-27.92-9.62-7.31-6.1-12.68-13.72-16.21-22.6-3.68-9.26-6.87-18.64-7.74-28.66-.13-1.44-.56-2.72-1.54-3.89-1.48-1.76-2.8-3.65-4.15-5.52-1.73-2.4-3.41-4.84-5.29-7.52.15.82.2,1.33.33,1.81,3.03,11.81,3.62,23.75,1.51,35.75-1.5,8.53-3.87,16.78-9.04,23.99-5.08,7.07-16.06,11.07-25.47,4.62-11.1-7.61-14.85-18.72-14.52-31.46.19-7.45,3.75-13.94,7.77-20.1,4.2-6.43,9.86-11.6,14.85-17.35,4.88-5.63,8.74-11.78,10.47-19.13.21-.9.14-1.63-.39-2.45-2.04-3.13-3.58-6.53-5.12-9.93-3.02-6.65-5.71-13.42-8.32-20.91-.68,4.85-1.63,8.99-2.52,13.14-2.01,9.47-5.2,18.41-10.96,26.32-5.79,7.95-13.98,11.69-23.41,12.16-7.11.35-11.92-4.33-14.92-10.32-5.59-11.17-4.63-22.23,1.76-32.83,5.7-9.44,13.28-17.17,22.03-23.8,7.38-5.59,12.51-12.77,15.28-21.62.28-.9.49-1.79.18-2.78-1.81-5.9-2.28-12.01-2.89-18.1-.47-4.73-.44-9.46-.36-14.24-.17.43-.35.85-.52,1.28-3.53,8.59-7.84,16.77-13.27,24.31-5.3,7.36-11.92,13.12-20.8,15.94-7.58,2.41-14.19,1.17-19.82-4.61-3.56-3.66-5.3-8.2-6.26-13.04-1.8-9.18.11-17.91,4.25-26.06,5.03-9.91,12.92-17.25,22.52-22.64,7.08-3.98,14.74-6.28,22.98-6.16,4.04.06,8.09.07,12.11.1.81-7.98,3.22-15.47,6.06-22.81,1.23-3.19,3.22-6.01,6.17-7.94,2.85-1.86,6.2-1.47,9,.94,1.97,1.69,2.2,3.71.75,7.07-1.23,2.87-2.5,5.73-3.76,8.59-.31.69-.54,1.28.04,2.05,1.89,2.52,3.86,4.89,6.8,6.3,2.57,1.24,5.17,2.4,7.83,3.44,9.29,3.63,19.09,5.93,28.02,10.45,12.42,6.28,21.04,15.77,23.15,30.02.92,6.23-.88,11.65-5.88,15.87-3.59,3.02-7.64,4.83-12.22,5.67-9.56,1.74-18.47.42-26.62-5.17-12.35-8.48-20.1-20.36-25.28-34.13-1.21-3.23-2.09-6.59-3.24-10.28-.75,2.63-1.26,4.87-1.4,7.17-.68,11.2-.5,22.36.16,33.58.45,7.67,4.6,11.21,11.07,13.36,1.8.6,3.65,1.12,5.36,1.92,5.36,2.48,11.05,3.19,16.85,3.32,8.55.19,17.14.16,25.52,2.1,11.46,2.65,20.34,8.54,23.3,20.68,2.35,9.65-.58,18.45-11.56,22.14-4.88,1.64-9.84,2.67-14.96,2.93-8.71.44-17.15-.89-24.69-5.36-7.01-4.16-12.91-9.71-17.57-16.49-.83-1.21-1.67-2.41-2.5-3.61,1.2,3.11,2.01,6.33,3.24,9.39,1.52,3.77,3.15,7.5,4.84,11.2,1.12,2.45,1.94,5.06,3.73,7.19,4.31,5.12,10.03,6.34,16.35,6.04,5.04-.24,9.98-1.31,14.98-1.84,7.71-.81,15.46-1.2,23.16-2.01,11.73-1.24,21.99,2.33,31.32,9.12,2.79,2.03,5,4.58,5.99,8.01,2.69,9.36-.84,18.39-9.76,23.99ZM183.78,171.68c-.67-2.52-2.29-4.49-4.33-6.03-8.89-6.71-18.71-10.3-30.04-9.03-8.51.95-17.1,1.12-25.6,2.23-4.85.64-9.65,1.6-14.59,1.64-8.16.08-16.17-3.12-20.24-13.46-2.11-5.37-4.28-10.75-6.92-15.87-2.77-5.35-4.6-11.03-6.57-16.65-1.14-3.24-1.72-6.69-2.51-10.05-.23-.97-.28-2,.97-2.32,1.32-.33,1.67.59,2.08,1.64,5.62,14.52,13.62,27.34,26.67,36.38,7.09,4.92,15.26,6.24,23.67,6.16,5.89-.06,11.64-1.13,17.07-3.55,6.51-2.9,9.14-7.97,8.55-15.07-1.01-11.95-11.87-19.32-20.4-21.18-8.07-1.76-16.25-2.12-24.47-2.22-6.75-.08-13.4-.74-19.68-3.61-3.08-1.41-6.49-2.04-9.47-3.72-.71-.4-1.42-.81-2.1-1.25-3.52-2.3-5.66-4.99-6.17-9.7-1.26-11.89-1.31-23.74-.76-35.63.21-4.56,1.63-8.94,2.13-13.46.15-1.39,1.09-1.73,2.29-1.8,1.43-.08,1.61.97,1.87,1.97,1.75,6.85,3.45,13.74,6.54,20.14,5.37,11.12,12.29,21.1,23.11,27.56,9.81,5.86,20.22,6.59,30.53,1.23,7.28-3.79,9.79-10.21,7.98-18.2-1.88-8.27-6.62-14.61-12.95-19.97-6.66-5.65-14.84-8.16-22.85-10.92-7.33-2.53-14.69-4.91-21.63-8.42-2.29-1.16-4.17-2.78-5.77-4.76-.71-.88-1.28-1.83-2.44-2.37-1.16-.54-.86-1.72-.45-2.7,1.46-3.44,2.99-6.86,4.39-10.32.58-1.42,1.73-2.95-.22-4.35-1.98-1.42-3.92-1.47-5.77.08-2.13,1.79-3.66,4.06-4.62,6.64-2.07,5.53-3.85,11.16-4.99,16.97-.39,2-.64,4.02-.44,6.07.11,1.14-.44,2.13-1.6,1.73-3.66-1.26-7.4-.63-11.09-.7-20.71-.4-35.24,9.95-45.28,27.06-4.43,7.55-5.92,16.17-3.98,25.03,1.32,6.04,4.21,10.99,9.74,14.14,2.53,1.45,5.21,1.84,8.06,1.43,7.67-1.1,13.84-4.91,19.16-10.38,5.88-6.05,9.75-13.39,13.64-20.73,4.59-8.65,7.33-17.97,9.7-27.41.23-.91.18-2.03,1.49-2.1,1.24-.07,1.08,1.12,1.55,1.78.81,1.15.77,2.24.41,3.45-4.43,14.71-4.24,29.62-.61,44.3,1.59,6.42-.89,11.07-3.4,16.07-3.14,6.27-8.07,11.05-13.59,15.27-8.14,6.21-15.08,13.52-20.36,22.33-5.5,9.18-6.42,18.75-2.19,28.69,2.41,5.67,8.18,10.38,13.07,9.91,8.26-.79,15.6-3.74,20.69-10.75,4.03-5.55,7.11-11.58,8.85-18.25,1.46-5.58,2.83-11.18,3.82-16.87.61-3.5,1.01-6.96,0-10.47-.3-1.03-.32-2.14-.12-3.24.21-1.17.66-2.11,1.98-2.23,1.31-.11,1.81.94,2.07,1.89.4,1.43.51,2.94.81,4.4,1.63,7.83,4.74,15.14,7.9,22.43,2.21,5.1,4.38,10.22,7.45,14.9.57.86.38,1.75.16,2.73-1.96,8.94-6.86,16.18-12.88,22.83-4.52,4.99-9.42,9.65-13.1,15.35-4.04,6.25-7.53,12.82-7.33,20.42.29,11.01,3.84,20.64,13.54,27.1,7.83,5.22,16.87,1.97,21.2-3.93,4.45-6.08,6.53-13.08,8.14-20.28,1.86-8.31,1.87-16.72,1.32-25.14-.12-1.89-.63-3.75-.97-5.63-.71-5.49-2.46-10.74-3.77-16.08-.46-1.9-1.94-3.43-1.99-5.51-.02-.8-.1-1.54.8-1.85.94-.33,1.63.09,1.96.96,3.17,8.38,9.06,15.05,13.97,22.34,1.28,1.91,2.28,4.01,3.61,5.94.89,1.29.48,3.43.8,5.16,2.44,13.26,6.26,26.04,14.26,37.14,8.48,11.75,19.9,17.99,34.58,17.87,2.99-.02,5.98.17,8.93-.56,10.18-2.51,15.39-10.18,12.37-21.36-2.56-9.46-7.56-17.22-15.44-23.09-2.02-1.51-4.03-3.03-6.01-4.58-3.41-2.67-7.15-4.71-11.26-6.08-8.64-2.88-17.39-5.32-26.55-5.79-2.18-.11-4.4-.63-6.63.21-1.02.38-2.04-.37-2.93-1.1-3.63-2.98-6.01-6.98-8.83-10.62-4.38-5.65-7.92-11.85-11.3-18.11-1.12-2.06-1.61-4.53-2.96-6.59-.38-.59-.28-1.36.38-1.83.57-.41,1.18-.29,1.7.12.48.37,1.1.71,1.35,1.21,2.18,4.43,5.94,7.53,9.15,11.1,4.13,4.59,8.92,8.4,13.94,11.9,14.79,10.31,30.61,11.35,47.14,4.88,3.38-1.32,6.26-3.53,8.72-6.23,4.41-4.83,5.56-10.46,3.89-16.69Z"/>
      <path class="cls-3" d="M179.89,188.38c-2.46,2.7-5.34,4.91-8.72,6.23-16.53,6.47-32.35,5.42-47.14-4.88-5.02-3.5-9.81-7.3-13.94-11.9-3.21-3.57-6.97-6.67-9.15-11.1-.25-.5-.87-.84-1.35-1.21-.53-.41-1.14-.53-1.7-.12-.66.47-.76,1.24-.38,1.83,1.34,2.06,1.84,4.53,2.96,6.59,3.38,6.25,6.92,12.46,11.3,18.11,2.82,3.64,5.2,7.64,8.83,10.62.89.73,1.91,1.49,2.93,1.1,2.23-.84,4.44-.33,6.63-.21,9.16.47,17.9,2.92,26.55,5.79,4.11,1.37,7.85,3.41,11.26,6.08,1.98,1.55,3.99,3.08,6.01,4.58,7.88,5.87,12.88,13.63,15.44,23.09,3.02,11.18-2.18,18.85-12.37,21.36-2.95.73-5.94.53-8.93.56-14.67.12-26.1-6.11-34.58-17.87-8.01-11.1-11.82-23.87-14.26-37.14-.32-1.73.09-3.87-.8-5.16-1.33-1.93-2.32-4.03-3.61-5.94-4.9-7.3-10.79-13.96-13.97-22.34-.33-.87-1.01-1.3-1.96-.96-.9.32-.83,1.06-.8,1.85.06,2.08,1.53,3.61,1.99,5.51,1.31,5.35,3.06,10.6,3.77,16.08.33,1.87.84,3.74.97,5.63.55,8.43.54,16.84-1.32,25.14-1.61,7.2-3.68,14.2-8.14,20.28-4.32,5.9-13.36,9.15-21.2,3.93-9.71-6.46-13.25-16.09-13.54-27.1-.2-7.6,3.29-14.17,7.33-20.42,3.69-5.71,8.59-10.37,13.1-15.35,6.02-6.65,10.92-13.89,12.88-22.83.21-.98.41-1.87-.16-2.73-3.07-4.67-5.23-9.79-7.45-14.9-3.16-7.29-6.27-14.6-7.9-22.43-.3-1.46-.41-2.97-.81-4.4-.27-.95-.76-2-2.07-1.89-1.32.11-1.77,1.05-1.98,2.23-.2,1.1-.18,2.21.12,3.24,1.01,3.5.61,6.96,0,10.47-.99,5.69-2.36,11.29-3.82,16.87-1.75,6.67-4.82,12.7-8.85,18.25-5.09,7.01-12.43,9.96-20.69,10.75-4.88.47-10.66-4.24-13.07-9.91-4.23-9.94-3.31-19.51,2.19-28.69,5.28-8.81,12.23-16.12,20.36-22.33,5.52-4.21,10.45-9,13.59-15.27,2.5-5,4.98-9.65,3.4-16.07-3.63-14.68-3.81-29.59.61-44.3.36-1.21.4-2.3-.41-3.45-.47-.67-.32-1.85-1.55-1.78-1.31.07-1.26,1.19-1.49,2.1-2.37,9.44-5.11,18.75-9.7,27.41-3.89,7.34-7.76,14.69-13.64,20.73-5.32,5.47-11.49,9.28-19.16,10.38-2.85.41-5.53.02-8.06-1.43-5.53-3.16-8.42-8.1-9.74-14.14-1.94-8.86-.46-17.48,3.98-25.03,10.04-17.11,24.57-27.47,45.28-27.06,3.7.07,7.43-.56,11.09.7,1.15.4,1.71-.59,1.6-1.73-.2-2.05.05-4.06.44-6.07,1.15-5.81,2.92-11.44,4.99-16.97.96-2.57,2.48-4.85,4.62-6.64,1.85-1.55,3.79-1.5,5.77-.08,1.95,1.39.8,2.92.22,4.35-1.41,3.46-2.94,6.88-4.39,10.32-.42.98-.72,2.16.45,2.7,1.15.54,1.73,1.49,2.44,2.37,1.61,1.98,3.48,3.61,5.77,4.76,6.94,3.5,14.3,5.89,21.63,8.42,8.01,2.76,16.19,5.27,22.85,10.92,6.33,5.36,11.07,11.71,12.95,19.97,1.81,7.99-.7,14.41-7.98,18.2-10.31,5.36-20.71,4.63-30.53-1.23-10.82-6.46-17.74-16.44-23.11-27.56-3.09-6.4-4.79-13.28-6.54-20.14-.26-1-.44-2.05-1.87-1.97-1.2.07-2.14.42-2.29,1.8-.49,4.52-1.91,8.9-2.13,13.46-.55,11.89-.5,23.75.76,35.63.5,4.71,2.65,7.4,6.17,9.7.68.45,1.39.85,2.1,1.25,2.99,1.68,6.39,2.32,9.47,3.72,6.27,2.86,12.93,3.53,19.68,3.61,8.22.1,16.4.46,24.47,2.22,8.54,1.86,19.4,9.22,20.4,21.18.6,7.1-2.04,12.17-8.55,15.07-5.43,2.42-11.18,3.49-17.07,3.55-8.41.09-16.58-1.24-23.67-6.16-13.05-9.05-21.05-21.87-26.67-36.38-.41-1.06-.76-1.97-2.08-1.64-1.25.32-1.2,1.35-.97,2.32.79,3.36,1.37,6.81,2.51,10.05,1.98,5.62,3.81,11.3,6.57,16.65,2.64,5.12,4.8,10.5,6.92,15.87,4.07,10.34,12.09,13.53,20.24,13.46,4.93-.05,9.73-1.01,14.59-1.64,8.5-1.11,17.09-1.28,25.6-2.23,11.34-1.26,21.15,2.33,30.04,9.03,2.04,1.54,3.65,3.52,4.33,6.03,1.67,6.23.52,11.86-3.89,16.69ZM121.6,208.77c4.92,7.31,10.88,13.72,17.3,19.72,6.42,6,13.08,11.7,20.07,17.02.81.62,1.59,1.11,2.58.52.51-.31.65-.84.61-1.04-.25-1.04-.8-1.35-1.29-1.72-8.84-6.72-17.22-13.97-25.04-21.86-4.36-4.4-8.38-9.08-11.79-14.27-.58-.88-1.21-1.89-2.41-1.18-1.35.8-.65,1.93-.05,2.82ZM94.46,176.08c-1,.04-1.43.73-1.44,1.65-.05,3.68-1.05,7.26-1.18,10.91-.44,12.22-3.23,23.9-7.83,35.18-1,2.45-1.96,4.92-2.68,7.48-.48,1.71-1.15,3.34-2.33,4.72-.58.67-.85,1.48-.06,2.17.86.75,1.67.36,2.32-.35,1.02-1.12,1.83-2.41,2.24-3.85,1.69-5.89,4.27-11.44,6.21-17.24,2.89-8.68,4.52-17.58,4.97-26.7.19-3.8,1.24-7.5,1.18-11.32,0-.41.04-.81.06-1.12-.16-.91-.54-1.55-1.46-1.51ZM70.05,102.97c-1.38-.14-1.57,1.02-1.77,2.05-1.93,9.92-3.7,19.88-6.98,29.48-3.3,9.66-7.79,18.71-14.51,26.5-1.5,1.74-3.35,3.17-5.04,4.75-.59.55-.93,1.2-.56,2,.3.64.88.8,1.75.64.45-.34,1.05-.77,1.63-1.23,6.27-5.01,10.31-11.7,13.97-18.64,5.64-10.68,8.53-22.26,10.87-34.01.61-3.06,1.2-6.12,1.77-9.18.2-1.04.32-2.2-1.14-2.34ZM63.21,37.22c-.84-.49-1.51-.03-2.04.75-2.3,3.37-4.8,6.61-6.93,10.09-6.66,10.87-15.01,20.33-24.16,29.11-2.29,2.2-4.42,4.62-7.22,6.25-.68.4-.98.99-.69,1.71.33.85,1.06.97,1.87.77,1.05-.19,1.85-.85,2.6-1.53,11.34-10.25,21.74-21.31,29.84-34.39,1.93-3.12,4.14-6.06,6.22-9.09.31-.45.66-.87.92-1.35.46-.86.53-1.78-.41-2.32ZM75.38,28.91c1.11,2.61,2.76,5.42,4.67,8.05,6.11,8.4,14.25,14.31,23.58,18.62,4,1.85,8.12,3.46,12.55,4.02.34.04.67.15,1,.14,1.21-.03,2.76.16,2.79-1.57.03-1.57-1.43-1.24-2.48-1.36-5.77-.65-11.03-2.85-16.06-5.56-7.87-4.24-14.84-9.59-19.8-17.19-1.33-2.04-2.65-4.09-3.57-6.37-.32-.79-.83-1.51-1.83-1.18-.93.3-1.16,1.07-.85,2.42ZM78.61,102.91c2.43,2.07,4.89,4.11,7.38,6.11,11.74,9.47,25.23,14.37,40.22,15.3.34.02.68.04.86.04,1.16-.18,1.83-.71,1.77-1.77-.05-.88-.66-1.19-1.55-1.23-16.22-.64-30.37-6.43-42.54-17.14-1.32-1.17-2.74-2.23-4.08-3.38-.73-.63-1.47-1.13-2.29-.27-.76.81-.51,1.69.24,2.33ZM149.46,173.83c-2.58.07-5.13.4-7.73.35-14.46-.23-27.57-4.67-39.61-12.52-.98-.64-2.06-1.21-2.83,0-.74,1.16.33,1.86,1.19,2.42,11.82,7.73,24.69,12.31,38.88,12.93,2.92.13,5.84.17,8.75-.19.54-.1,1.07-.18,1.61-.29.83-.18,1.66-.38,1.53-1.51-.13-1.06-.88-1.23-1.79-1.2Z"/>
      <path class="cls-2" d="M69.42,114.49c-2.34,11.75-5.22,23.33-10.87,34.01-3.67,6.94-7.7,13.64-13.97,18.64-.58.46-1.18.89-1.63,1.23-.87.15-1.44,0-1.75-.64-.38-.8-.03-1.45.56-2,1.69-1.58,3.54-3.01,5.04-4.75,6.72-7.79,11.2-16.84,14.51-26.5,3.28-9.59,5.05-19.56,6.98-29.48.2-1.02.38-2.18,1.77-2.05,1.46.14,1.33,1.3,1.14,2.34-.57,3.06-1.16,6.12-1.77,9.18Z"/>
      <path class="cls-2" d="M94.68,190.04c-.45,9.12-2.07,18.02-4.97,26.7-1.93,5.8-4.52,11.36-6.21,17.24-.41,1.44-1.22,2.74-2.24,3.85-.66.72-1.46,1.11-2.32.35-.79-.69-.52-1.5.06-2.17,1.18-1.38,1.85-3.01,2.33-4.72.72-2.56,1.68-5.02,2.68-7.48,4.6-11.28,7.39-22.96,7.83-35.18.13-3.65,1.13-7.24,1.18-10.91.01-.92.44-1.61,1.44-1.65.92-.04,1.3.6,1.46,1.51-.02.31-.07.72-.06,1.12.06,3.82-.99,7.52-1.18,11.32Z"/>
      <path class="cls-2" d="M62.7,40.89c-2.08,3.03-4.29,5.97-6.22,9.09-8.1,13.08-18.5,24.13-29.84,34.39-.75.68-1.55,1.34-2.6,1.53-.81.2-1.54.08-1.87-.77-.29-.73.01-1.32.69-1.71,2.8-1.63,4.93-4.05,7.22-6.25,9.15-8.79,17.5-18.24,24.16-29.11,2.13-3.47,4.63-6.72,6.93-10.09.53-.77,1.2-1.24,2.04-.75.93.54.87,1.46.41,2.32-.25.48-.61.9-.91,1.35Z"/>
      <path class="cls-1" d="M78.37,100.58c.82-.87,1.56-.36,2.29.27,1.34,1.15,2.75,2.21,4.08,3.38,12.17,10.72,26.32,16.5,42.54,17.14.89.04,1.5.34,1.55,1.23.06,1.06-.61,1.59-1.77,1.77-.19,0-.52-.02-.86-.04-14.99-.93-28.48-5.83-40.22-15.3-2.48-2-4.94-4.04-7.38-6.11-.75-.64-1.01-1.52-.24-2.33Z"/>
      <path class="cls-2" d="M121.65,205.96c1.2-.71,1.83.31,2.41,1.18,3.41,5.19,7.43,9.87,11.79,14.27,7.82,7.89,16.2,15.14,25.04,21.86.48.37,1.04.67,1.29,1.72.04.2-.1.73-.61,1.04-.99.6-1.77.1-2.58-.52-6.99-5.32-13.65-11.03-20.07-17.02-6.42-6-12.38-12.41-17.3-19.72-.6-.89-1.31-2.02.05-2.82Z"/>
      <path class="cls-1" d="M76.24,26.5c1.01-.33,1.51.39,1.83,1.18.92,2.28,2.24,4.34,3.57,6.37,4.96,7.6,11.94,12.95,19.8,17.19,5.03,2.71,10.29,4.91,16.06,5.56,1.05.12,2.51-.21,2.48,1.36-.03,1.73-1.58,1.54-2.79,1.57-.33,0-.67-.09-1-.14-4.44-.55-8.55-2.17-12.55-4.02-9.34-4.31-17.48-10.22-23.58-18.62-1.91-2.62-3.56-5.44-4.67-8.05-.31-1.35-.08-2.11.85-2.42Z"/>
      <path class="cls-2" d="M149.71,176.54c-.53.11-1.07.19-1.61.29-2.91.36-5.82.32-8.75.19-14.19-.63-27.06-5.2-38.88-12.93-.85-.56-1.93-1.26-1.19-2.42.77-1.21,1.85-.65,2.83,0,12.04,7.85,25.14,12.29,39.61,12.52,2.59.04,5.15-.28,7.73-.35.91-.03,1.66.14,1.79,1.2.13,1.12-.71,1.33-1.53,1.51Z"/>
    </g>
  </g>
</svg>