<?xml version="1.0" encoding="UTF-8"?>
<svg id="Layer_1" xmlns="http://www.w3.org/2000/svg" version="1.1" viewBox="0 0 452.4 165.3">
  <!-- Generator: Adobe Illustrator 29.5.0, SVG Export Plug-In . SVG Version: 2.1.0 Build 137)  -->
  <defs>
    <style>
      .st0 {
        fill: #010101;
      }

      .st1 {
        fill: none;
        stroke: #231f20;
        stroke-linecap: round;
        stroke-linejoin: round;
        stroke-width: 1.7px;
      }

      .st2 {
        fill: #fff;
      }

      .st3 {
        isolation: isolate;
      }

      .st4 {
        fill: #ed404c;
      }
    </style>
  </defs>
  <g class="st3">
    <g id="Layer_6">
      <path class="st0" d="M182.6,77.4c-1.4-2.2-4.2-2.4-6.5-3.2-1.2-.2-3.5-1.4-4.5-.9-8.1-3.8-15.6-8.9-23.3-13.5-8.6-4.8-15.8-8-25.7-5.5-15.8,3.2-26.6,16.2-40.2,23.8-4.8,2.7-9.9,5-14.8,7.3-3.1,1.7-8.3,3.5-10.1,6.6-1.2,4.4,5,6.5,8.2,7.9,10.8,4,22.5,4.1,33.9,4.8,12.1.3,24.1-2.2,36.1-4.2,10.5-2.5,21.5-3.7,31.7-7.6,4.8-2,9.5-4.5,12.9-8.5,1.4-1.9,3.8-4.6,2.4-7.1h0Z"/>
      <path class="st2" d="M161.3,71.6c-3.6-2.8-7.6-5.1-11.6-7.3-5.5-2.9-11.3-5.5-17.5-6.7-8.2-1.8-15.5-.7-22.8,3.4-4.1,2.3-7.6,5.5-11,8.8-2.2,2.2-4.2,4.4-6.2,6.8-1,1.2-3.8,4.1-2.1,5.6.8.6,2,.5,3,.7,2.3.2,4.6.6,6.9.7,6.2.1,12.4-1,18.6-2,2.3-.4,4.6-.9,6.8-1.7,1.5-.5,2.8-1.8,3.3-3.3,2,1.9,4.1,4.2,7,4.4,2.3.2,4.5,0,6.8-.2,3-.3,6.1-.7,9.1-1.2,3-.6,6.1-1.3,9-2.6,1.1-.5,2.6-1.2,2.6-2.7,0-1.2-.9-2-1.7-2.7h0Z"/>
      <path class="st4" d="M58.6,57.6c5.8-6.3,10.5-14.2,16.2-20.8,10.6-12.4,24.2-15.5,39.5-10.3,7.9,2.7,14.3,7.8,23.1,7,7.3-.7,12.1-8.8,19.1-11.5,12.1-4.7,31.3,3.2,38.4,13.7,6.4,9.4,5.9,26.5-1.6,35.3-3.3,3.9-10.3,6.6-7.6,12.9l6.4,7c2.4,3.1,4.3,8,4.7,11.9,1.2,10.8-.3,21.2-9.2,28.5-11,9-38,11.1-52.1,13-21.1,2.9-37.6,1-56.1-10.4-17.7-11-27-28.3-43-40.1-4.1-3.1-9.6-5.5-13.4-8.6-.9-.7-2.9-2.6-3.1-3.6-1-4.6,2.4-6.1,6.1-7.2,6.6-2,11.7-2.3,18-5.8,4.8-2.7,10.8-7,14.4-11h0ZM85.3,85.9c-2.9,1.6-9.5,6.9-15.6,6.7-2.8-.1.1,1.9.1,1.9,7.7.5,11.4,1.5,17.3,2.3,19.8,2.5,38.5,1.3,57.8-3.7,8.4-2.2,18-4.8,25.6-8.9,2.1-1.1,4.1-2.6,6.1-3.8,0-.8-3.6-1-4.2-1.2-3.4-.9-7-2.2-10.2-3.5-11.3-4.6-21.6-14-33.9-14.8-14-1-26.6,12.2-36.6,20.4-.5.4-5,3.7-6.6,4.6h0Z"/>
      <path class="st0" d="M71.3,92.8c-4.5-.4-9-.9-13.4-1.5-9.8-1.1-19.3-3.9-28.3-7.8-.9-.4-1.8-.8-2.7-1.2-.8-.5-1.4.7-.6,1.1,7.9,4.4,16.6,7.8,25.5,9.5,6.4,1.3,12.9,1.3,19.4,1.6,1.2.1,1.3-1.7.2-1.8h0Z"/>
      <path class="st0" d="M108.6,33.5c.2-.5-.1-1.2-.7-1.2-8.1-2.8-18.3-1.1-23.7,6-.7.8-1.3,1.7-1.9,2.6-.7.9-1.4,1.9-2,2.8-.3.4-.2.9.2,1.2.4.3.9.2,1.2-.2,1.6-2,3.2-4.1,4.9-6,4.8-5.4,12.6-6.7,19.4-5.2.9,0,2.2,1.2,2.8,0h0Z"/>
      <path class="st0" d="M77.9,45.9c-.9,0-1.7.8-1.7,1.7,0,.9.8,1.7,1.7,1.7s1.7-.8,1.7-1.7c0-.9-.8-1.7-1.7-1.7Z"/>
      <path class="st0" d="M176.5,28.2c-3.1-1.8-7-2.1-10.5-1.9-3.9.1-7.7,1.5-11,3.6-.7.6-3.1,1.2-2.5,2.4.2.4.7.5,1.1.3,1.9-1.1,3.8-2.2,5.8-3.1,4.9-2,10.8-2.3,15.8-.3.2.1.5.2.7.4,1,.7,1.8-1,.7-1.4h0Z"/>
      <path class="st0" d="M148.2,36.1c0,1.2,1.9,1.2,1.9,0,0-1.2-1.9-1.2-1.9,0Z"/>
      <path class="st0" d="M145.2,133.8c-.6,0-1.2,0-1.8-.1-6.7-.4-12.8,2.4-19.3,3.5-3.4.5-6.9.6-10.4.7-1.4.2-1.1,2.1.6,1.8,3.8,0,7.6,0,11.4-.7,6.4-1.2,12.6-4.4,19.2-3.6,1.1.2,1.4-1.4.3-1.5h0Z"/>
      <path class="st0" d="M108.3,137.2c-1.1-.4-1.8,1.2-.7,1.7,1.1.4,1.8-1.2.7-1.7Z"/>
      <path class="st0" d="M127.4,73.9c.2,1.2,2.1.9,1.9-.3-.3-3-.5-6.1-.7-9.2.1-1.5-2.2-1.2-1.8.2.1,3,.3,6.2.6,9.3h0Z"/>
      <path class="st4" d="M225.1,44.8v18.6c0,4.2.4,6.9,1.1,8.1.9,1.4,2.8,2.1,5.6,2.1s5.5-.7,7.3-2c1.8-1.4,3-3.5,3.7-6.3.4-1.8,1.3-2.6,2.8-2.6s2.6.6,3.5,1.9c.9,1.3,1.4,3,1.4,5,0,3.3-1.2,6.9-3.7,10.7-.8,1.2-1.5,2-2.1,2.5-.6.4-1.3.7-2.1.7l-9-1.1h-28.3c-1.9,0-3.2-.2-3.9-.6-1.1-.6-1.7-1.6-1.7-2.8s.2-1.3.5-1.7,1.2-.9,2.6-1.6c1.5-.7,2.5-1.8,3-3.1.3-1.1.5-4.3.5-9.7s0-6.1-.2-10.7c-.1-4.5-.2-7.9-.2-10.1,0-2.2-.2-3.6-.5-4.4s-1-1.4-2.1-1.7c-1.8-.6-2.9-1.1-3.4-1.5-.9-.7-1.3-1.4-1.3-2.3,0-2,1.6-3.5,4.9-4.5,2.8-.9,6.5-1.3,11.2-1.3s9.2.3,11.7.8c3.3.7,5,2.2,5,4.4s-.2,1.6-.7,2-1.5,1-3.3,1.7c-1,.5-1.7,1.2-1.9,2.3-.3,1.1-.4,3.5-.4,7.2h0Z"/>
      <path class="st4" d="M274,44.8v23.5c0,1.9.2,3.2.5,4.1s1,1.7,2,2.4c.8.6,1.4,1.1,1.7,1.5.3.4.4.9.4,1.6,0,3.5-4.4,5.2-13.2,5.2s-8.5-.4-11.3-1.1c-.9-.3-1.7-.7-2.3-1.4-.6-.7-.9-1.4-.9-2.3s.2-1.3.4-1.7,1.1-1.1,2.3-1.9c.8-.6,1.4-1.6,1.8-3,.3-1.4.5-3.5.5-6.3s0-2.6-.2-5-.2-3.9-.3-4.3c-.2-1.1-.9-2-2.3-2.5-1.7-.7-2.5-1.8-2.5-3.2s1.1-3,3.3-3.8c3-1.2,6.3-2.1,9.7-3,3.5-.8,6.1-1.2,8-1.2s2.2.8,2.2,2.5h0ZM265.9,27.1c2.3,0,4.2.4,5.6,1.3,1.4.9,2.1,2.1,2.1,3.5s-1,3.7-3.1,4.9c-3.3,1.9-7.3,2.9-11.9,2.9s-3.5-.4-4.7-1.1c-1.6-1-2.3-2.3-2.3-4s1.7-4.1,5-5.5c3.4-1.4,6.5-2,9.5-2h0Z"/>
      <path class="st4" d="M330.1,57l.6,14.3c0,1.1.2,1.9.5,2.4.3.5,1.1,1.5,2.5,3,.4.4.6,1,.6,1.8,0,1.8-1.1,3-3.2,3.7-2.1.7-5.9,1.1-11.4,1.1s-6.4-.3-7.9-1c-1.6-.7-2.4-1.8-2.4-3.3s0-.9.2-1.2.7-.9,1.6-1.9c1.1-1.1,1.6-4.9,1.6-11.3s-.4-6.5-1.3-8.3c-.7-1.4-2-2.1-3.9-2.1s-3.1.6-3.7,1.7c-.7,1.2-1,3.3-1,6.3v8c0,1.6.1,2.7.3,3.3.2.6.9,1.7,2,3.4.3.5.4,1,.4,1.7,0,1.6-1.1,2.8-3.3,3.5-2.2.8-5.7,1.1-10.4,1.1-7.5,0-11.3-1.6-11.3-4.7s.1-1.1.3-1.5.8-.8,1.6-1.4c.7-.5,1.1-1.1,1.3-1.8s.4-2.3.5-4.9c.2-3.1.3-6.3.3-9.7s-.1-3.1-.4-3.7c-.3-.6-1.1-1.3-2.5-2.1-1.2-.7-1.7-1.6-1.7-2.7s.5-2,1.4-2.6c.9-.7,2.9-1.6,5.8-2.6,2.6-.9,5.1-1.7,7.5-2.3s4-.9,4.9-.9,1.5.3,2,.9c.6.6.8,1.3.8,2.1s0,.4,0,1c0,.2,0,.4,0,.6,0,1.3.5,1.9,1.6,1.9s1.3-.5,2.1-1.5c2.3-3.3,5.7-5,10.1-5s6.3.9,8.7,2.7c1.7,1.3,2.9,2.8,3.6,4.5s1.1,4.2,1.3,7.6h0Z"/>
      <path class="st4" d="M383.9,30.3v37c0,2.1,0,3.5.3,4,.2.6.7,1.2,1.5,1.7,1,.7,1.6,1.3,2,1.8.3.5.5,1.1.5,1.9,0,2.2-2.2,3.8-6.5,4.9-3.9,1-7.8,1.5-11.7,1.5s-1.4-.1-1.7-.4c-.3-.3-.4-.9-.5-1.8-.1-1.4-.6-2.1-1.5-2.1s-1.2.4-2.1,1.2c-2.8,2.2-5.8,3.4-9.2,3.4s-7.9-1.6-11.3-4.7c-2-1.9-3.6-4-4.8-6.4-1.6-3.2-2.4-6.4-2.4-9.6s1.1-7.5,3.2-11c1.9-3.3,4.6-5.8,7.9-7.5,2.8-1.5,5.6-2.2,8.3-2.2s5.9.7,8.4,2.1c.4.2.7.3,1,.3.9,0,1.3-1.2,1.3-3.5s-.2-1.8-.7-2.3-1.3-1-2.5-1.4c-1.7-.5-2.5-1.5-2.5-2.8,0-2,2-3.5,5.9-4.6,6.9-1.9,11.5-2.9,13.9-2.9s3.5,1.1,3.5,3.3h0ZM362,50.7c-1.8,0-3.1.9-4.2,2.8-1.4,2.5-2.1,5.8-2.1,9.8s.7,6.4,2,8.3c.9,1.4,2.2,2,3.8,2s3-1,3.8-3.1c.8-2,1.2-5.3,1.2-9.9s-.5-6.9-1.4-8.3c-.7-1.1-1.8-1.6-3.2-1.7h0Z"/>
      <path class="st4" d="M413.7,42c4.7,0,8.7,1.2,11.9,3.6,1.7,1.3,2.9,2.7,3.6,4.4.7,1.6,1,3.9,1,6.7v6c0,4.2.2,6.9.8,8.1.3.6.6,1,.8,1.1s.8.3,1.7.4c.9.1,1.3.7,1.3,1.7s-.5,2.6-1.6,4c-1,1.4-2.4,2.6-4,3.5-2,1.2-4.1,1.8-6.4,1.8s-5.1-1-6.7-2.9c-.6-.7-1.1-1.1-1.6-1.1s-1.3.3-2.1,1c-2.7,2-5.8,3-9.2,3s-6.4-.8-8.6-2.3c-1.4-1-2.6-2.3-3.4-3.9-.8-1.6-1.3-3.3-1.3-5,0-2.8,1.1-5.3,3.4-7.5,3.5-3.4,8.8-5.1,15.9-5.1,1.6,0,2.5-.2,3-.5.4-.3.6-1,.6-2.2,0-2.9-.3-4.9-.9-6.2-.6-1.3-1.6-1.9-2.9-1.9s-1.5.2-2.2.7-1.4,1.4-2.4,2.7c-2.4,3.4-4.9,5.1-7.5,5.1s-2.4-.4-3.2-1.2c-.8-.8-1.3-1.8-1.3-3.1s.5-2.6,1.6-3.9,2.5-2.4,4.2-3.4c4.9-2.6,10-3.9,15.3-3.9h0ZM410.9,65.4c-1.2,0-2.2.5-3.1,1.5s-1.3,2.1-1.3,3.5.3,2.3.9,3.1c.6.8,1.4,1.2,2.5,1.2,2.2,0,3.2-1.8,3.2-5.5s-.2-2.5-.5-3-.9-.8-1.8-.8h0Z"/>
      <path class="st4" d="M242.7,97.2l-3.9,3.8c-1.4,1.4-2.2,2.6-2.2,3.8s.2,1.2.5,1.8c.3.6.9,1.4,1.9,2.5l13.8,15.9c1.2,1.4,2.1,2.3,2.5,2.7.5.4,1.2.8,2.1,1.2,1.3.6,2.3,1.2,2.8,1.9s.8,1.6.8,2.7c0,2.6-1.9,3.9-5.6,3.9h-14c-1,0-1.7-.2-2.3-.6s-1.4-1.4-2.6-3.1c-1.9-2.6-4.4-5.6-7.6-9.1-1.4-1.5-2.3-2.4-2.9-2.9s-1.1-.7-1.5-.7c-1.4,0-2.1,1.3-2.1,4s.5,3.7,1.4,4.5c.2.1.6.4,1.2.8,1.3.9,2,1.9,2,3.2s-1.1,2.8-3.2,3.5-5.8,1.1-10.9,1.1-7.9-.3-9.9-.8c-.9-.2-1.6-.7-2.2-1.3-.6-.6-.8-1.4-.8-2.2,0-1.3.7-2.4,2.2-3.4.7-.4,1.1-.9,1.4-1.5.3-.5.5-1.4.8-2.7.5-2.8.7-7,.7-12.8s-.3-11.7-.8-14.6c-.2-1.2-.5-2-.8-2.5-.3-.5-.9-1-1.8-1.5-1.4-.8-2.1-1.9-2.1-3.3s.4-2.1,1.3-2.8c.9-.7,2.2-1.2,4.1-1.6,2.5-.5,5.6-.7,9.4-.7s6.7.4,8.6,1.1c1.7.7,2.5,1.9,2.5,3.7s-.1,1.3-.4,1.7-.9,1-2,1.9c-.4.3-.8,1.2-1.1,2.5-.3,1.3-.5,2.6-.5,3.8,0,2.1.5,3.1,1.4,3.1s1.1-.2,1.6-.7,1.6-1.7,3.2-3.7c1.8-2.3,2.8-3.8,2.8-4.7s-.2-1.1-.7-2c-.3-.6-.5-1.2-.5-1.7,0-1.8,1-3.1,2.9-3.8,2-.8,5.3-1.1,10.1-1.1s6.6.2,8.4.7c2.2.6,3.4,1.9,3.4,3.9s-.2,1.5-.7,2.2-1,1.1-1.7,1.3c-.5.2-1.7.3-3.6.3-1.3,0-2.3.2-2.9.5-.6.3-1.5.9-2.5,1.9h0Z"/>
      <path class="st4" d="M295.5,120.9h-17.3c-.8,0-1.1.3-1.1,1,0,1.6.9,3.1,2.6,4.5s3.6,2.1,5.6,2.1,2.5-.2,3.9-.7c1.4-.5,2.6-1,3.6-1.7.8-.6,1.5-.9,2-.9s1.3.4,1.9,1.2.9,1.6.9,2.4c0,1.8-1.1,3.5-3.3,5.1-3.9,2.9-8.4,4.4-13.5,4.4s-9.5-1.5-13-4.5c-1.7-1.5-3.1-3.3-4.2-5.3-1.4-2.8-2.2-5.7-2.2-8.8s1.2-7.8,3.8-11.1c2.2-2.8,4.9-5,8.2-6.4,2.5-1.1,5.2-1.6,8.1-1.6,4.7,0,8.6,1.3,11.9,4,1.6,1.3,3,2.9,4,4.7,1.2,2.1,1.7,4.1,1.7,6s-.3,2.9-1,3.9c-.7,1-1.5,1.5-2.6,1.5h0ZM279.1,114h3.7c1.6,0,2.4-.7,2.4-2.2s-.4-2.4-1.1-3.2c-.8-.8-1.8-1.2-3-1.2s-2.5.5-3.2,1.6c-.7,1-1.1,2-1.1,3.1s.2,1.2.5,1.5,1,.4,1.9.4h0Z"/>
      <path class="st4" d="M322.5,108.2v11.8c0,5.2,0,8.3.2,9.1s.8,1.5,1.8,2c.9.4,1.5.8,1.8,1.1s.5.8.5,1.5-.3,1.5-.9,2.2c-.6.7-1.3,1.1-2.3,1.4-1.8.5-4.7.8-8.9.8s-8.1-.4-10-1.1c-.9-.3-1.6-.8-2.2-1.5-.6-.7-.8-1.4-.8-2.1s.2-1,.5-1.4c.3-.3,1-.7,2-1.1,1-.4,1.5-1.6,1.8-3.4.4-3.2.6-7.7.6-13.6s-.2-9.8-.5-11.6-1.2-3-2.6-3.8c-1-.6-1.7-1.1-2.1-1.7s-.6-1.2-.6-1.9c0-1.2.6-2.3,1.7-3.1s3-1.7,5.5-2.5c1.7-.5,3.9-1,6.6-1.5,2.7-.5,4.7-.7,5.9-.7,1.9,0,2.9,1.2,2.9,3.6s-.1,2.6-.4,5.4c-.3,4.4-.5,8.4-.6,12.1h0Z"/>
      <path class="st4" d="M350,108.2v11.8c0,5.2,0,8.3.2,9.1s.8,1.5,1.8,2c.9.4,1.5.8,1.8,1.1s.5.8.5,1.5-.3,1.5-.9,2.2c-.6.7-1.3,1.1-2.3,1.4-1.8.5-4.7.8-8.9.8s-8.1-.4-10-1.1c-.9-.3-1.6-.8-2.2-1.5-.6-.7-.8-1.4-.8-2.1s.2-1,.5-1.4c.3-.3,1-.7,2-1.1,1-.4,1.5-1.6,1.8-3.4.4-3.2.6-7.7.6-13.6s-.2-9.8-.5-11.6-1.2-3-2.6-3.8c-1-.6-1.7-1.1-2.1-1.7s-.6-1.2-.6-1.9c0-1.2.6-2.3,1.7-3.1s3-1.7,5.5-2.5c1.7-.5,3.9-1,6.6-1.5,2.7-.5,4.7-.7,5.9-.7,1.9,0,2.9,1.2,2.9,3.6s-.1,2.6-.4,5.4c-.3,4.4-.5,8.4-.6,12.1h0Z"/>
      <path class="st4" d="M390.6,120.9h-17.3c-.8,0-1.1.3-1.1,1,0,1.6.9,3.1,2.6,4.5,1.7,1.4,3.6,2.1,5.6,2.1s2.5-.2,3.9-.7c1.4-.5,2.6-1,3.6-1.7.8-.6,1.5-.9,2-.9s1.3.4,1.9,1.2.9,1.6.9,2.4c0,1.8-1.1,3.5-3.3,5.1-3.9,2.9-8.4,4.4-13.5,4.4s-9.5-1.5-13-4.5c-1.7-1.5-3.1-3.3-4.2-5.3-1.4-2.8-2.2-5.7-2.2-8.8s1.2-7.8,3.8-11.1c2.2-2.8,4.9-5,8.2-6.4,2.5-1.1,5.2-1.6,8.1-1.6,4.7,0,8.6,1.3,11.9,4,1.6,1.3,3,2.9,4,4.7,1.2,2.1,1.7,4.1,1.7,6s-.3,2.9-1,3.9c-.7,1-1.5,1.5-2.6,1.5h0ZM374.2,114h3.7c1.6,0,2.4-.7,2.4-2.2s-.4-2.4-1.1-3.2c-.8-.8-1.8-1.2-3-1.2s-2.5.5-3.2,1.6c-.7,1-1.1,2-1.1,3.1s.2,1.2.5,1.5,1,.4,1.9.4h0Z"/>
      <path class="st4" d="M413.7,101c1.3,0,2.1.2,2.4.6.3.4.5,1.5.8,3.5.1,1.1.5,1.6,1.1,1.6s1-.4,1.4-1.1c2-3.1,4.5-4.6,7.7-4.6s4.1.7,5.5,2.2c.7.7,1.2,1.6,1.7,2.7.4,1.1.7,2.2.7,3.2s-.3,2.3-.8,3.6-1.2,2.2-2.1,3c-1.6,1.5-3.5,2.2-5.8,2.2s-2.3-.2-3.1-.7-2-1.3-3.3-2.7c-.5-.5-1-.8-1.4-.8-.7,0-1.1.4-1.3,1.2s-.3,2.4-.3,4.9c0,3.7.1,6.2.4,7.6.2.7.4,1.2.7,1.5.3.3,1,.6,2,.9,2.2.7,3.3,1.8,3.3,3.5s-.4,1.9-1.1,2.6c-.7.8-1.7,1.2-2.8,1.5-2.4.5-5.8.7-10.4.7s-7.6-.4-9.9-1.1c-2-.7-3-1.9-3-3.6s.7-2.4,2.2-3.4c.7-.5,1.2-.9,1.5-1.3.3-.4.5-.9.6-1.6.4-2.2.6-6.4.6-12.4s-.1-1.9-.4-2.4-.7-.9-1.5-1.2c-1.7-.7-2.6-1.7-2.6-3s.6-2.2,1.8-3,3.2-1.7,6-2.5c3.8-1.1,7-1.7,9.6-1.7h0Z"/>
      <path class="st1" d="M208,38.7c.4,8.4,1.2,21.4.3,29.1"/>
      <line class="st1" x1="208" y1="70.6" x2="208" y2="70.6"/>
      <path class="st1" d="M207.1,101.2c.4,6.8.9,17.7,0,24.3"/>
      <line class="st1" x1="206.7" y1="128.7" x2="206.7" y2="128.7"/>
      <path class="st1" d="M257.6,57.5c.5,14.9-.4,16.2-1.9,17.9"/>
      <line class="st1" x1="253.7" y1="76.9" x2="253.7" y2="76.9"/>
      <path class="st1" d="M402.5,114.8c.4,9.5,0,15.2-1.9,16.2"/>
      <line class="st1" x1="398.7" y1="132" x2="398.7" y2="132"/>
      <path class="st1" d="M336.1,110.4c.5,18.8-.7,20.3-2.1,21.2"/>
      <line class="st1" x1="331.9" y1="132.7" x2="331.9" y2="132.7"/>
      <path class="st1" d="M308.7,110.4c.5,18.8-.7,20.3-2.1,21.2"/>
      <line class="st1" x1="304.5" y1="132.7" x2="304.5" y2="132.7"/>
      <path class="st1" d="M340.7,53.5c-4.7,9.2-.5,17,1.3,20.3"/>
      <line class="st1" x1="343.3" y1="75.9" x2="343.3" y2="75.9"/>
      <path class="st1" d="M393.8,66.7c-4.2,6-.8,11.1,2.2,13.1"/>
      <line class="st1" x1="398.2" y1="81.4" x2="398.2" y2="81.4"/>
      <path class="st1" d="M256.3,31.1c-3,1.1-3.6,4.3-1.8,5.7"/>
      <line class="st1" x1="256.1" y1="38" x2="256.1" y2="38"/>
      <path class="st1" d="M366.3,105.6c-5,3.5-7,7.7-7.5,11.9"/>
      <line class="st1" x1="358.8" y1="120" x2="358.8" y2="120"/>
      <path class="st1" d="M271,105.8c-5,3.8-6.2,7.6-7.2,11.8"/>
      <line class="st1" x1="263.4" y1="120.3" x2="263.4" y2="120.3"/>
      <path class="st1" d="M314.7,70.1c.9-16.6-2.3-16.6-4.7-17.3"/>
      <line class="st1" x1="314.7" y1="72.3" x2="314.7" y2="72.3"/>
    </g>
  </g>
</svg>